<svg width="105" height="43" viewBox="0 0 105 43" fill="none" xmlns="http://www.w3.org/2000/svg">
<path fill-rule="evenodd" clip-rule="evenodd" d="M56.4892 5C54.7426 5 53.3117 6.36486 53.3117 8.10373C53.3117 8.89562 53.4631 9.5392 53.9766 10.0996C54.4835 10.6527 55.331 11.1108 56.6856 11.5698C57.2596 11.766 57.6154 11.9819 57.8288 12.2323C58.0387 12.4785 58.1222 12.7716 58.1222 13.1504C58.1222 13.6625 57.9576 14.0921 57.6759 14.3925C57.3949 14.6921 56.9894 14.8719 56.4892 14.8719C55.9908 14.8719 55.586 14.6861 55.3029 14.3673C55.0183 14.0469 54.8485 13.5831 54.8414 13.016L54.8399 12.8946H53L53.0018 13.0193C53.017 14.0727 53.3813 14.9638 54 15.5921C54.6189 16.2207 55.4851 16.5787 56.4892 16.5787C57.4843 16.5787 58.3535 16.2365 58.9746 15.6328C59.5961 15.0286 59.9618 14.1695 59.9618 13.1504C59.9618 12.1856 59.7387 11.4582 59.1985 10.8772C58.6635 10.3018 57.8305 9.88449 56.6446 9.50649C56.1199 9.33886 55.746 9.15031 55.5041 8.92028C55.2675 8.69539 55.1513 8.42554 55.1513 8.07422C55.1513 7.34371 55.7913 6.70681 56.4892 6.70681C56.912 6.70681 57.2626 6.84495 57.5071 7.0895C57.7515 7.33385 57.9009 7.69534 57.9009 8.16276V8.28573H59.7424L59.7405 8.16085C59.7253 7.18038 59.3824 6.38727 58.8018 5.83958C58.2219 5.29257 57.4152 5 56.4892 5ZM93.2501 9.55074V7.72299L93.1204 7.73009C92.181 7.78157 91.5512 8.05441 91.14 8.49694V7.95125H89.4627V16.3722H91.2433V11.66C91.2433 10.9927 91.4083 10.4797 91.7178 10.1293C92.0259 9.78066 92.4921 9.576 93.1312 9.5547L93.2501 9.55074ZM65.3621 7.72991C63.1228 7.72991 61.1221 9.58747 61.1221 12.2355C61.1221 14.4828 63.032 16.5787 65.4063 16.5787C67.2157 16.5787 68.7948 15.453 69.4466 13.725L69.5093 13.5586H67.7237L67.6888 13.623C67.2391 14.4521 66.3816 14.931 65.4654 14.931C64.3208 14.931 63.3228 14.1689 62.9427 12.9487H69.6579L69.6743 12.8449C69.7201 12.555 69.7201 12.3108 69.7201 12.0614V12.0614V12.0584C69.7201 9.64425 67.8353 7.72991 65.3621 7.72991ZM74.874 7.72991C72.4092 7.72991 70.575 9.70978 70.575 12.2355C70.575 14.6335 72.4732 16.5787 74.8887 16.5787C76.7562 16.5787 78.3667 15.4832 79.0332 13.5896L79.0909 13.4258H77.1262L77.0935 13.498C76.6849 14.3997 75.8869 14.931 74.8887 14.931C73.4194 14.931 72.3556 13.715 72.3556 12.147C72.3556 11.3396 72.6161 10.6475 73.063 10.1585C73.5091 9.67049 74.147 9.37769 74.9183 9.37769C75.4491 9.37769 75.8852 9.51529 76.2426 9.76338C76.601 10.0122 76.8874 10.3771 77.1092 10.8423L77.1426 10.9123H79.0786L79.0358 10.7568C78.5325 8.92666 76.7822 7.72991 74.874 7.72991ZM97.9008 7.72991C95.6615 7.72991 93.6608 9.58747 93.6608 12.2355C93.6608 14.4828 95.5708 16.5787 97.9451 16.5787C99.7544 16.5787 101.333 15.453 101.985 13.725L102.048 13.5586H100.262L100.227 13.623C99.7778 14.4521 98.9203 14.931 98.0041 14.931C96.8595 14.931 95.8616 14.1689 95.4815 12.9487H102.197L102.213 12.8449C102.259 12.555 102.259 12.3108 102.259 12.0614V12.0584C102.259 9.64425 100.374 7.72991 97.9008 7.72991ZM82.0202 7.95125H80.2397V12.6339C80.2397 14.0964 80.6603 15.0883 81.3242 15.7134C81.9865 16.3371 82.8728 16.5787 83.7713 16.5787C84.7245 16.5787 85.5899 16.2735 86.0831 15.7055V16.3722H87.7309V7.95125H85.9503V12.4863C85.9503 13.2592 85.7731 13.8699 85.4389 14.2851C85.108 14.6962 84.6108 14.931 83.9336 14.931C83.2578 14.931 82.7898 14.733 82.4861 14.3503C82.1775 13.9617 82.0202 13.3605 82.0202 12.5159V7.95125ZM67.9249 11.5223H62.9172C63.095 10.2607 64.2502 9.37769 65.4063 9.37769C66.6185 9.37769 67.7482 10.2733 67.9249 11.5223ZM100.464 11.5223H95.456C95.6337 10.2607 96.7889 9.37769 97.9451 9.37769C99.1573 9.37769 100.287 10.2733 100.464 11.5223ZM56.99 23.242H53.6945V34.4076H55.5341V30.0987H57.0048C58.2039 30.0987 59.1911 29.8028 59.8805 29.2193C60.5729 28.6333 60.9496 27.7701 60.9496 26.6704C60.9496 25.5698 60.565 24.7067 59.8672 24.1211C59.1725 23.538 58.1819 23.242 56.99 23.242ZM68.791 23.242H67.0104V25.2882H68.791V23.242ZM55.5341 28.3919V24.9488H56.9753C57.6516 24.9488 58.1854 25.1073 58.5476 25.396C58.9059 25.6817 59.11 26.1055 59.11 26.6704C59.11 27.2289 58.9125 27.6528 58.5596 27.9399C58.2031 28.2299 57.6734 28.3919 56.99 28.3919H55.5341ZM65.7542 27.5861V25.7584L65.6245 25.7655C64.6851 25.817 64.0552 26.0898 63.644 26.5323V25.9867H61.9667V34.4076H63.7473V29.6954C63.7473 29.0281 63.9123 28.5151 64.2219 28.1647C64.5299 27.8161 64.9962 27.6114 65.6353 27.5901L65.7542 27.5861ZM82.1384 25.7653C79.663 25.7653 77.7361 27.6524 77.7361 30.3299C77.7361 32.7649 79.7452 34.6142 82.1974 34.6142C83.2759 34.6142 84.2542 34.1964 84.8781 33.375V34.4076H86.6587V25.9867H84.8781V26.9333C84.2147 26.1405 83.2513 25.7653 82.1384 25.7653ZM92.2665 25.7653C89.8017 25.7653 87.9675 27.7452 87.9675 30.2709C87.9675 32.6689 89.8657 34.6142 92.2813 34.6142C94.1487 34.6142 95.7592 33.5186 96.4257 31.625L96.4834 31.4612H94.5187L94.486 31.5334C94.0774 32.4351 93.2794 32.9664 92.2813 32.9664C90.8119 32.9664 89.7481 31.7504 89.7481 30.1824C89.7481 29.375 90.0086 28.6829 90.4555 28.1939C90.9016 27.7059 91.5395 27.4131 92.3108 27.4131C92.8416 27.4131 93.2777 27.5507 93.6351 27.7988C93.9935 28.0476 94.2799 28.4125 94.5017 28.8777L94.5351 28.9477H96.4711L96.4283 28.7922C95.925 26.9621 94.1747 25.7653 92.2665 25.7653ZM68.791 25.9867H67.0104V34.4076H68.791V25.9867ZM71.5765 25.9867H69.6715L73.0156 34.4076H74.26L77.5736 25.9867H75.6686L73.644 31.6329L71.5765 25.9867ZM98.3782 25.9867H96.4578L99.7688 34.1219L98.5226 37.1375H100.382L105 25.9867H103.079L100.7 32.1116L98.3782 25.9867ZM79.5167 30.2119C79.5167 28.6659 80.7212 27.4131 82.1827 27.4131C83.8048 27.4131 84.9077 28.6789 84.9077 30.2119C84.9077 31.6963 83.7056 32.9664 82.1827 32.9664C80.7208 32.9664 79.5167 31.6836 79.5167 30.2119Z" fill="#2E3542"/>
<path fill-rule="evenodd" clip-rule="evenodd" d="M18.8288 15.5929C19.9247 15.5929 20.8212 16.4868 20.8212 17.5793C20.8212 18.2745 20.4726 18.9201 19.9247 19.2677L20.8212 22.7438H18.8288H16.8364L17.733 19.2677C17.1851 18.9201 16.8364 18.2745 16.8364 17.5793C16.8364 16.5365 17.733 15.5929 18.8288 15.5929Z" fill="#2E3542"/>
<path d="M5.47911 27.2628C5.62854 27.5111 5.77797 27.7594 5.97721 28.0077C6.17646 28.256 6.32589 28.5043 6.57494 28.7526C6.77418 29.0009 7.02323 29.2492 7.22247 29.4975C7.47152 29.7458 7.72057 29.994 7.96962 30.292C8.21867 30.5403 8.46772 30.7886 8.76658 31.0865C9.06544 31.3348 9.31449 31.6328 9.61335 31.8811C9.91221 32.1294 10.2111 32.3777 10.5099 32.6756C10.8088 32.9239 11.1077 33.1722 11.4563 33.4205C11.805 33.6688 12.1039 33.9171 12.4525 34.1654C12.8012 34.4137 13.1499 34.662 13.4487 34.8606C13.7974 35.1089 14.1461 35.3076 14.4947 35.5559C14.7936 35.7545 15.1423 35.9531 15.4909 36.2014C15.7898 36.4001 16.1385 36.5987 16.537 36.7973C16.8856 36.996 17.2343 37.1946 17.583 37.3932C17.9815 37.5919 18.3301 37.7905 18.6788 37.9891L18.7286 38.0388L18.7784 37.9891C19.1271 37.7905 19.5256 37.5919 19.8742 37.3932C20.2229 37.1946 20.6214 36.996 20.9202 36.7973C21.2689 36.5987 21.6176 36.4001 21.9663 36.2014C22.3149 36.0028 22.6636 35.7545 23.0123 35.5559C23.3609 35.3076 23.7096 35.1089 24.0583 34.8606C24.407 34.6123 24.7556 34.4137 25.0545 34.1654C25.4032 33.9171 25.702 33.6688 26.0507 33.4205C26.3496 33.1722 26.6982 32.9239 26.9971 32.6756C27.3458 32.4273 27.6446 32.1294 27.8937 31.8811C28.1925 31.6328 28.4914 31.3348 28.7404 31.0865C29.0393 30.8382 29.2884 30.5403 29.5374 30.292C29.7865 30.0437 30.0355 29.7954 30.2846 29.4975C30.5336 29.2492 30.7328 29.0009 30.9321 28.7526C31.1313 28.5043 31.3306 28.256 31.5298 28.0077C31.729 27.7594 31.8785 27.5111 32.0279 27.2628C32.1773 27.0145 32.3268 26.7662 32.4264 26.5676C32.526 26.4186 32.5758 26.2696 32.6754 26.1206C32.7253 25.9717 32.8249 25.8227 32.8747 25.7234C32.9245 25.5744 32.9743 25.4751 33.0241 25.3261C33.0739 25.2268 33.0739 25.0778 33.1237 24.9785C33.1735 24.7302 33.1735 24.4819 33.2234 24.2336C33.2234 23.9853 33.2234 23.737 33.2234 23.4391V23.2901V23.2404C33.2234 23.0914 33.2234 22.9921 33.2234 22.9425C33.2234 22.8431 33.2234 22.7438 33.2234 22.6445V22.5452H28.2423C26.3994 27.1635 23.2613 31.0865 18.7286 34.9103C14.2457 31.0865 11.0578 27.1635 9.21487 22.5452H4.33348H4.03462H2.24146H1.94259H0.498101H0.19924V22.2472V8.88896V8.34271V8.14408V7.9951L0.298861 7.94544L0.448291 7.79646L0.846772 7.44885C1.44449 6.85294 2.09203 6.30669 2.73956 5.76045C3.38709 5.2142 4.08443 4.71761 4.78177 4.27068C5.47911 3.82374 6.22626 3.37681 6.92361 2.97954C7.67076 2.58227 8.41791 2.23466 9.16506 1.9367C9.91221 1.63875 10.7092 1.34079 11.5061 1.0925C12.3031 0.844203 13.1499 0.645567 13.9468 0.49659C14.7438 0.347613 15.5906 0.198636 16.3875 0.148977C17.1845 0.049659 18.0313 0 18.8282 0C19.6252 0 20.472 0.049659 21.2689 0.099318C22.1157 0.198636 22.9127 0.347613 23.7096 0.49659C24.5066 0.645567 25.3035 0.844203 26.1005 1.0925C26.8975 1.34079 27.6944 1.58909 28.4416 1.9367C29.1887 2.23466 29.9359 2.58227 30.683 2.97954C31.4302 3.37681 32.1275 3.77409 32.8249 4.27068C33.5222 4.71761 34.2196 5.2142 34.8671 5.76045C35.5146 6.30669 36.1621 6.85294 36.7599 7.44885L37.1583 7.84612L37.3078 7.9951L37.4074 8.09442V8.2434V8.44203V8.98828V15.1957V15.3943H37.1085H33.572H33.2732V15.0963V9.83248V9.78283L33.2234 9.73317C32.7253 9.28624 32.2271 8.88896 31.6792 8.49169C31.1313 8.09442 30.6332 7.74681 30.0853 7.39919C29.5374 7.05158 28.9397 6.75363 28.3918 6.45567C27.794 6.15772 27.2461 5.90942 26.6484 5.66113C26.0009 5.41283 25.4032 5.2142 24.7556 5.01556C24.1081 4.81692 23.4606 4.66795 22.813 4.51897C22.1655 4.36999 21.4682 4.32033 20.8206 4.22102C20.1731 4.17136 19.4758 4.1217 18.8282 4.1217C18.1807 4.1217 17.4834 4.17136 16.8358 4.22102C16.1883 4.27068 15.4909 4.36999 14.8434 4.51897C14.1959 4.66795 13.5484 4.81692 12.9008 5.01556C12.2533 5.2142 11.6058 5.41283 11.008 5.66113C10.4103 5.90942 9.81259 6.15772 9.26468 6.45567C8.71677 6.75363 8.11905 7.05158 7.57114 7.39919C7.02323 7.74681 6.47532 8.09442 5.97721 8.49169C5.47911 8.88896 4.9312 9.28624 4.4331 9.73317L4.38329 9.78283V9.83248V18.3242H8.11905C7.62095 15.9902 7.3719 13.4576 7.42171 10.6767C15.2917 8.14408 22.4644 8.14408 30.3344 10.6767C30.3842 13.4576 30.1351 15.9902 29.637 18.3242H33.3728H33.6716H37.2082H37.507V18.6221V22.5452C37.507 24.4322 37.507 25.3758 37.3576 26.1206C37.2082 26.9152 36.9093 27.4118 36.3614 28.405L36.3116 28.5043C36.1621 28.8022 35.9629 29.1002 35.7637 29.3981C35.5644 29.6961 35.3652 29.994 35.1161 30.292C34.9169 30.59 34.6678 30.8879 34.4188 31.2355C34.1697 31.5335 33.9207 31.8811 33.6218 32.179C33.3728 32.477 33.0739 32.7749 32.7751 33.1226C32.4762 33.4205 32.1773 33.7185 31.8287 34.0164C31.5298 34.3144 31.1811 34.6123 30.8325 34.9103C30.4838 35.2082 30.1351 35.5062 29.7865 35.8041C29.4378 36.1021 29.0891 36.3504 28.6906 36.6484C28.342 36.9463 27.9435 37.1946 27.545 37.4926C27.1465 37.7409 26.748 38.0388 26.3496 38.3368C25.9511 38.5851 25.5526 38.883 25.1043 39.1313C24.7058 39.3796 24.2575 39.6776 23.8092 39.9258C23.4108 40.1741 22.9625 40.4224 22.4644 40.6707C22.0161 40.919 21.5678 41.1673 21.0697 41.4156C20.6214 41.6639 20.1233 41.9122 19.675 42.1108L19.0773 42.4088L18.878 42.5081L18.7286 42.5578L18.5792 42.5081L18.3799 42.4088L17.7822 42.1108C17.2841 41.8625 16.8358 41.6639 16.3875 41.4156C15.9392 41.1673 15.4411 40.919 14.9928 40.6707C14.5446 40.4224 14.0963 40.1741 13.648 39.9258C13.1997 39.6776 12.8012 39.4293 12.3529 39.1313C11.9046 38.883 11.5061 38.5851 11.1077 38.3368C10.7092 38.0388 10.3107 37.7905 9.91221 37.4926C9.51373 37.1946 9.16506 36.9463 8.76658 36.6484C8.3681 36.3504 8.01943 36.0524 7.67076 35.8041C7.32209 35.5062 6.97342 35.2082 6.62475 34.9103C6.27607 34.6123 5.9274 34.3144 5.62854 34.0164C5.32968 33.7185 4.98101 33.4205 4.68215 33.1226C4.38329 32.8246 4.08443 32.477 3.83538 32.179C3.53652 31.8811 3.28747 31.5335 3.03842 31.2355C2.78937 30.9376 2.54032 30.6396 2.34108 30.292C2.14184 29.994 1.89278 29.6961 1.69354 29.3981C1.4943 29.1002 1.29506 28.8022 1.14563 28.5043L1.09582 28.405C0.796962 27.809 0.547911 27.4118 0.398481 27.0145C0.249051 26.6172 0.0996202 26.22 0.0498101 25.6737L0 25.3261H0.348671H4.03462H4.23386L4.33348 25.5247V25.5744V25.6241C4.38329 25.773 4.4331 25.8723 4.53272 26.0213C4.58253 26.1703 4.68215 26.3193 4.78177 26.4683C5.18025 26.7662 5.27987 27.0145 5.47911 27.2628ZM26.2499 13.4079C21.6674 12.2161 16.0389 12.1665 11.4065 13.4079C11.6058 19.6153 14.3951 25.5247 18.8282 29.8451C23.2613 25.4751 26.0507 19.6153 26.2499 13.4079Z" fill="#24B04B"/>
</svg>
