<svg width="47" height="40" viewBox="0 0 47 40" fill="none" xmlns="http://www.w3.org/2000/svg">
<path d="M16.2063 29.5971L16.2075 29.5952C18.1102 26.3606 19.0241 21.1534 19.0241 14.0625V3C19.0241 1.61929 17.9048 0.5 16.5241 0.5H3.41811C2.0374 0.5 0.918112 1.61929 0.918112 3V15.5458C0.918112 16.9265 2.0374 18.0458 3.41811 18.0458H7.66695C8.52842 18.0458 9.18979 18.758 9.10789 19.5736C8.77049 22.9338 7.94806 25.6167 6.66745 27.6502L6.66548 27.6534C5.58554 29.3971 4.07629 30.8055 2.12408 31.8775C0.762098 32.6254 0.122093 34.4323 1.06848 35.7963L2.5794 37.974C3.24092 38.9275 4.49267 39.3215 5.57449 38.822C10.2905 36.6448 13.8438 33.5722 16.2063 29.5971ZM43.6822 29.5971L43.6834 29.5952C45.5861 26.3606 46.5 21.1534 46.5 14.0625V3C46.5 1.61929 45.3807 0.5 44 0.5H30.894C29.5133 0.5 28.394 1.61929 28.394 3V15.5458C28.394 16.9265 29.5133 18.0458 30.894 18.0458H35.1429C36.0043 18.0458 36.6657 18.758 36.5838 19.5736C36.2464 22.9338 35.424 25.6167 34.1434 27.6502L34.1414 27.6534C33.0615 29.3971 31.5522 30.8055 29.6 31.8775C28.238 32.6254 27.598 34.4323 28.5444 35.7963L30.0553 37.974C30.7168 38.9275 31.9686 39.3215 33.0504 38.822C37.7665 36.6448 41.3197 33.5722 43.6822 29.5971Z" fill="#030D21" stroke="#030D21"/>
</svg>
