<svg width="18" height="11" viewBox="0 0 18 11" fill="none" xmlns="http://www.w3.org/2000/svg">
<path d="M10.0654 10.0205L17.5592 2.88947C17.699 2.75649 17.8098 2.59862 17.8854 2.42488C17.9611 2.25114 18 2.06492 18 1.87686C18 1.49706 17.8414 1.13281 17.5592 0.864253C17.4195 0.731275 17.2536 0.625791 17.071 0.553824C16.8884 0.481857 16.6927 0.444817 16.4951 0.444817C16.096 0.444817 15.7132 0.595692 15.431 0.864253L9.00128 6.99695L2.57158 0.864252C2.43225 0.730576 2.26648 0.624474 2.08385 0.552068C1.90121 0.479661 1.70531 0.442382 1.50745 0.442382C1.3096 0.442382 1.1137 0.479661 0.931065 0.552068C0.748426 0.624474 0.582663 0.730576 0.443333 0.864252C0.302856 0.996837 0.191355 1.15458 0.115263 1.32837C0.0391731 1.50217 -5.40973e-08 1.68858 -6.22703e-08 1.87686C-7.04433e-08 2.06514 0.039173 2.25155 0.115263 2.42535C0.191355 2.59914 0.302856 2.75688 0.443333 2.88947L7.93715 10.0205C8.07648 10.1542 8.24225 10.2603 8.42489 10.3327C8.60753 10.4051 8.80342 10.4424 9.00128 10.4424C9.19913 10.4424 9.39503 10.4051 9.57767 10.3327C9.76031 10.2603 9.92607 10.1542 10.0654 10.0205Z" fill="#011949"/>
</svg>
