<svg width="216" height="70" viewBox="0 0 216 70" fill="none" xmlns="http://www.w3.org/2000/svg">
<path d="M86.7649 44.8425C87.004 45.2509 87.243 45.6593 87.5618 46.0677C87.8805 46.4761 88.1195 46.8845 88.5179 47.2929C88.8367 47.7013 89.2351 48.1097 89.5538 48.5181C89.9522 48.9265 90.3506 49.3349 90.749 49.825C91.1474 50.2334 91.5458 50.6418 92.0239 51.1319C92.502 51.5403 92.9004 52.0303 93.3785 52.4387C93.8566 52.8471 94.3347 53.2556 94.8127 53.7456C95.2908 54.154 95.7689 54.5624 96.3267 54.9708C96.8845 55.3792 97.3625 55.7876 97.9203 56.196C98.4781 56.6044 99.0359 57.0128 99.5139 57.3396C100.072 57.748 100.629 58.0747 101.187 58.4831C101.665 58.8098 102.223 59.1365 102.781 59.5449C103.259 59.8717 103.817 60.1984 104.454 60.5251C105.012 60.8518 105.57 61.1785 106.127 61.5053C106.765 61.832 107.323 62.1587 107.88 62.4854L107.96 62.5671L108.04 62.4854C108.598 62.1587 109.235 61.832 109.793 61.5053C110.351 61.1785 110.988 60.8518 111.466 60.5251C112.024 60.1984 112.582 59.8717 113.139 59.5449C113.697 59.2182 114.255 58.8098 114.813 58.4831C115.371 58.0747 115.928 57.748 116.486 57.3396C117.044 56.9312 117.602 56.6044 118.08 56.196C118.637 55.7876 119.116 55.3792 119.673 54.9708C120.151 54.5624 120.709 54.154 121.187 53.7456C121.745 53.3372 122.223 52.8471 122.622 52.4387C123.1 52.0303 123.578 51.5403 123.976 51.1319C124.454 50.7235 124.853 50.2334 125.251 49.825C125.649 49.4166 126.048 49.0082 126.446 48.5181C126.845 48.1097 127.163 47.7013 127.482 47.2929C127.801 46.8845 128.12 46.4761 128.438 46.0677C128.757 45.6593 128.996 45.2509 129.235 44.8425C129.474 44.4341 129.713 44.0257 129.873 43.699C130.032 43.4539 130.112 43.2089 130.271 42.9638C130.351 42.7188 130.51 42.4737 130.59 42.3104C130.669 42.0653 130.749 41.902 130.829 41.6569C130.908 41.4936 130.908 41.2485 130.988 41.0852C131.068 40.6768 131.068 40.2684 131.147 39.86C131.147 39.4516 131.147 39.0432 131.147 38.5531V38.3081V38.2264C131.147 37.9813 131.147 37.818 131.147 37.7363C131.147 37.5729 131.147 37.4096 131.147 37.2462V37.0829H123.179C120.231 44.6791 115.211 51.1319 107.96 57.4212C100.789 51.1319 95.6892 44.6791 92.741 37.0829H84.9323H84.4542H81.5857H81.1076H78.7968H78.3187V36.5928V14.6208V13.7223V13.3956V13.1505L78.4781 13.0688L78.7171 12.8238L79.3546 12.252C80.3108 11.2719 81.3466 10.3734 82.3825 9.47491C83.4183 8.57643 84.5339 7.75963 85.6494 7.02451C86.7649 6.28938 87.9602 5.55426 89.0757 4.90082C90.2709 4.24738 91.4661 3.67561 92.6614 3.18553C93.8566 2.69545 95.1315 2.20537 96.4064 1.79697C97.6813 1.38856 99.0359 1.06184 100.311 0.816803C101.586 0.571762 102.94 0.326721 104.215 0.245041C105.49 0.0816803 106.845 0 108.12 0C109.394 0 110.749 0.0816803 112.024 0.163361C113.378 0.326721 114.653 0.571762 115.928 0.816803C117.203 1.06184 118.478 1.38856 119.753 1.79697C121.028 2.20537 122.303 2.61377 123.498 3.18553C124.693 3.67561 125.888 4.24738 127.084 4.90082C128.279 5.55426 129.394 6.2077 130.51 7.02451C131.625 7.75963 132.741 8.57643 133.777 9.47491C134.813 10.3734 135.849 11.2719 136.805 12.252L137.442 12.9055L137.681 13.1505L137.841 13.3139V13.5589V13.8856V14.7841V24.9942V25.3209H137.363H131.705H131.227V24.8308V16.1727V16.091L131.147 16.0093C130.351 15.2742 129.554 14.6208 128.677 13.9673C127.801 13.3139 127.004 12.7421 126.127 12.1704C125.251 11.5986 124.295 11.1085 123.418 10.6184C122.462 10.1284 121.586 9.71995 120.629 9.31155C119.594 8.90315 118.637 8.57643 117.602 8.24971C116.566 7.92299 115.53 7.67795 114.494 7.43291C113.458 7.18787 112.343 7.10618 111.307 6.94282C110.271 6.86114 109.155 6.77946 108.12 6.77946C107.084 6.77946 105.968 6.86114 104.932 6.94282C103.896 7.0245 102.781 7.18787 101.745 7.43291C100.709 7.67795 99.6733 7.92299 98.6374 8.24971C97.6016 8.57643 96.5657 8.90315 95.6096 9.31155C94.6534 9.71995 93.6972 10.1284 92.8207 10.6184C91.9442 11.1085 90.988 11.5986 90.1116 12.1704C89.2351 12.7421 88.3586 13.3139 87.5618 13.9673C86.7649 14.6208 85.8884 15.2742 85.0916 16.0093L85.012 16.091V16.1727V30.14H90.988C90.1912 26.3011 89.7928 22.1354 89.8725 17.5613C102.462 13.3956 113.936 13.3956 126.526 17.5613C126.606 22.1354 126.207 26.3011 125.41 30.14H131.386H131.865H137.522H138V30.6301V37.0829C138 40.1867 138 41.7386 137.761 42.9638C137.522 44.2707 137.044 45.0875 136.167 46.7211L136.088 46.8845C135.849 47.3746 135.53 47.8646 135.211 48.3547C134.892 48.8448 134.574 49.3349 134.175 49.825C133.857 50.3151 133.458 50.8051 133.06 51.3769C132.661 51.867 132.263 52.4387 131.785 52.9288C131.386 53.4189 130.908 53.909 130.43 54.4807C129.952 54.9708 129.474 55.4609 128.916 55.951C128.438 56.4411 127.88 56.9312 127.323 57.4212C126.765 57.9113 126.207 58.4014 125.649 58.8915C125.092 59.3816 124.534 59.79 123.896 60.2801C123.339 60.7701 122.701 61.1785 122.064 61.6686C121.426 62.077 120.789 62.5671 120.151 63.0572C119.514 63.4656 118.876 63.9557 118.159 64.3641C117.522 64.7725 116.805 65.2626 116.088 65.671C115.45 66.0794 114.733 66.4878 113.936 66.8962C113.219 67.3046 112.502 67.713 111.705 68.1214C110.988 68.5298 110.191 68.9382 109.474 69.2649L108.518 69.755L108.199 69.9183L107.96 70L107.721 69.9183L107.402 69.755L106.446 69.2649C105.649 68.8565 104.932 68.5298 104.215 68.1214C103.498 67.713 102.701 67.3046 101.984 66.8962C101.267 66.4878 100.55 66.0794 99.8327 65.671C99.1155 65.2626 98.4781 64.8541 97.761 64.3641C97.0438 63.9557 96.4064 63.4656 95.7689 63.0572C95.1315 62.5671 94.494 62.1587 93.8566 61.6686C93.2191 61.1785 92.6614 60.7701 92.0239 60.2801C91.3865 59.79 90.8287 59.2999 90.2709 58.8915C89.7131 58.4014 89.1554 57.9113 88.5976 57.4212C88.0398 56.9312 87.4821 56.4411 87.004 55.951C86.5259 55.4609 85.9681 54.9708 85.49 54.4807C85.012 53.9907 84.5339 53.4189 84.1355 52.9288C83.6574 52.4387 83.259 51.867 82.8606 51.3769C82.4622 50.8868 82.0637 50.3967 81.745 49.825C81.4263 49.3349 81.0279 48.8448 80.7092 48.3547C80.3904 47.8646 80.0717 47.3746 79.8327 46.8845L79.753 46.7211C79.2749 45.741 78.8765 45.0875 78.6375 44.4341C78.3984 43.7806 78.1594 43.1272 78.0797 42.2287L78 41.6569H78.5578H84.4542H84.7729L84.9323 41.9837V42.0653V42.147C85.012 42.3921 85.0916 42.5554 85.251 42.8005C85.3307 43.0455 85.49 43.2906 85.6494 43.5356C86.2869 44.0257 86.4462 44.4341 86.7649 44.8425ZM119.992 22.0537C112.661 20.0933 103.657 20.0117 96.247 22.0537C96.5657 32.2637 101.028 41.9837 108.12 49.0899C115.211 41.902 119.673 32.2637 119.992 22.0537Z" fill="url(#paint0_linear)"/>
<path d="M105.914 36.2292H108.604L108.628 35.9383C108.628 35.0172 109.236 34.7991 110.102 34.484C111.904 33.8296 113.144 32.2541 113.144 29.9029C113.144 26.9943 111.131 25.2007 108.253 25.2007C105.399 25.2007 103.34 26.9701 103.34 30.3635H106.522C106.522 29.297 107.341 28.6183 108.207 28.6183C109.189 28.6183 109.868 29.1515 109.868 30.1211C109.868 30.5331 109.704 31.1876 108.932 31.5027L108.066 31.8905C105.89 32.8358 105.703 34.1931 105.914 35.9141V36.2292ZM107.271 42.3372C108.417 42.3372 109.4 41.4404 109.4 40.18C109.4 38.9681 108.417 38.0713 107.271 38.0713C106.124 38.0713 105.141 38.9681 105.141 40.18C105.141 41.4404 106.124 42.3372 107.271 42.3372Z" fill="url(#paint1_linear)" stroke="url(#paint2_linear)"/>
<line opacity="0.3" x1="172.5" y1="34.5" x2="215.5" y2="34.5" stroke="#011949" stroke-linecap="round"/>
<line opacity="0.3" x1="0.5" y1="34.5" x2="43.5" y2="34.5" stroke="#011949" stroke-linecap="round"/>
<defs>
<linearGradient id="paint0_linear" x1="50.6719" y1="154.091" x2="191.735" y2="153.076" gradientUnits="userSpaceOnUse">
<stop stop-color="#24B04B"/>
<stop offset="1" stop-color="#0263BC"/>
</linearGradient>
<linearGradient id="paint1_linear" x1="98.8745" y1="62.9235" x2="121.924" y2="62.8127" gradientUnits="userSpaceOnUse">
<stop stop-color="#24B04B"/>
<stop offset="1" stop-color="#0263BC"/>
</linearGradient>
<linearGradient id="paint2_linear" x1="98.8745" y1="62.9235" x2="121.924" y2="62.8127" gradientUnits="userSpaceOnUse">
<stop stop-color="#24B04B"/>
<stop offset="1" stop-color="#0263BC"/>
</linearGradient>
</defs>
</svg>
