<svg width="17" height="17" viewBox="0 0 17 17" fill="none" xmlns="http://www.w3.org/2000/svg">
<path d="M7.59141 1.03782C7.4684 1.15973 7.37076 1.30477 7.30413 1.46458C7.23749 1.62439 7.20319 1.7958 7.20319 1.96893C7.20319 2.14205 7.23749 2.31346 7.30413 2.47327C7.37076 2.63307 7.4684 2.77812 7.59141 2.90003L11.9226 7.2146L1.96091 7.2146C1.61282 7.2146 1.27899 7.35277 1.03285 7.59871C0.786715 7.84465 0.648437 8.17821 0.648437 8.52602C0.648437 8.87383 0.786715 9.2074 1.03285 9.45333C1.27899 9.69927 1.61282 9.83744 1.96091 9.83744L11.9226 9.83744L7.59142 14.152C7.34427 14.399 7.20543 14.7339 7.20543 15.0831C7.20543 15.4323 7.34427 15.7673 7.59142 16.0142C7.83856 16.2612 8.17376 16.3999 8.52327 16.3999C8.87278 16.3999 9.20798 16.2612 9.45513 16.0142L16.0175 9.45713C16.137 9.33241 16.2306 9.18534 16.2931 9.02436C16.3625 8.86738 16.3984 8.69765 16.3984 8.52602C16.3984 8.35439 16.3625 8.18466 16.2931 8.02768C16.2306 7.8667 16.137 7.71963 16.0175 7.59491L9.45513 1.03782C9.33311 0.914901 9.18795 0.817337 9.02802 0.750758C8.86808 0.684179 8.69653 0.649902 8.52327 0.649902C8.35001 0.649902 8.17846 0.684179 8.01852 0.750758C7.85859 0.817337 7.71343 0.914901 7.59141 1.03782Z" fill="white"/>
</svg>
