<svg width="22" height="22" viewBox="0 0 22 22" fill="none" xmlns="http://www.w3.org/2000/svg">
<rect width="21.7948" height="21.9969" rx="1.39281" fill="white"/>
<path d="M14.5529 8.15871C14.5022 8.10765 14.4419 8.06712 14.3755 8.03946C14.3091 8.0118 14.2379 7.99756 14.166 7.99756C14.094 7.99756 14.0228 8.0118 13.9564 8.03946C13.89 8.06712 13.8298 8.10765 13.7791 8.15871L9.71958 12.223L8.01404 10.5123C7.96145 10.4615 7.89936 10.4216 7.83132 10.3948C7.76329 10.3679 7.69064 10.3548 7.61753 10.3561C7.54441 10.3573 7.47226 10.373 7.4052 10.4021C7.33813 10.4313 7.27746 10.4733 7.22666 10.5259C7.17585 10.5785 7.1359 10.6406 7.10909 10.7086C7.08228 10.7766 7.06913 10.8493 7.0704 10.9224C7.07166 10.9955 7.08731 11.0676 7.11646 11.1347C7.14561 11.2017 7.18768 11.2624 7.24028 11.3132L9.3327 13.4053C9.38336 13.4563 9.44363 13.4968 9.51003 13.5245C9.57643 13.5522 9.64765 13.5664 9.71958 13.5664C9.79152 13.5664 9.86274 13.5522 9.92914 13.5245C9.99554 13.4968 10.0558 13.4563 10.1065 13.4053L14.5529 8.95959C14.6082 8.90857 14.6523 8.84665 14.6825 8.77773C14.7127 8.70881 14.7283 8.63439 14.7283 8.55915C14.7283 8.48391 14.7127 8.40949 14.6825 8.34057C14.6523 8.27165 14.6082 8.20973 14.5529 8.15871Z" fill="url(#paint0_linear)" stroke="url(#paint1_linear)" stroke-width="0.348201"/>
<defs>
<linearGradient id="paint0_linear" x1="3.58235" y1="20.2563" x2="21.5852" y2="20.0484" gradientUnits="userSpaceOnUse">
<stop stop-color="#24B04B"/>
<stop offset="1" stop-color="#0263BC"/>
</linearGradient>
<linearGradient id="paint1_linear" x1="3.58235" y1="20.2563" x2="21.5852" y2="20.0484" gradientUnits="userSpaceOnUse">
<stop stop-color="#24B04B"/>
<stop offset="1" stop-color="#0263BC"/>
</linearGradient>
</defs>
</svg>
