<svg width="96" height="112" viewBox="0 0 96 112" fill="none" xmlns="http://www.w3.org/2000/svg">
<g filter="url(#filter0_b)">
<mask id="mask0" mask-type="alpha" maskUnits="userSpaceOnUse" x="5" y="6" width="86" height="100">
<g opacity="0.9">
<path d="M88.0208 19.0537L52.2113 7.56172C49.685 6.59904 46.3166 6.59903 43.7902 7.56174L7.98076 19.0537C6.74315 19.4167 5.89551 20.5306 5.89551 21.794V63.9312C5.89551 69.4118 8.16491 75.0222 12.6403 80.6065C16.0584 84.8714 20.7874 89.154 26.6955 93.3356C36.6208 100.36 46.3943 104.669 46.8055 104.849C47.1857 105.016 47.5934 105.099 48.0012 105.099C48.4089 105.099 48.8166 105.016 49.1968 104.849C49.6079 104.669 59.3812 100.36 69.3064 93.3356C75.2145 89.154 79.9434 84.8714 83.3616 80.6065C87.837 75.0224 90.106 69.412 90.106 63.9312V21.794C90.106 20.5306 89.2588 19.4167 88.0208 19.0537Z" fill="#24B04B"/>
<path d="M88.0208 19.0537L52.2113 7.56172C49.685 6.59904 46.3166 6.59903 43.7902 7.56174L7.98076 19.0537C6.74315 19.4167 5.89551 20.5306 5.89551 21.794V63.9312C5.89551 69.4118 8.16491 75.0222 12.6403 80.6065C16.0584 84.8714 20.7874 89.154 26.6955 93.3356C36.6208 100.36 46.3943 104.669 46.8055 104.849C47.1857 105.016 47.5934 105.099 48.0012 105.099C48.4089 105.099 48.8166 105.016 49.1968 104.849C49.6079 104.669 59.3812 100.36 69.3064 93.3356C75.2145 89.154 79.9434 84.8714 83.3616 80.6065C87.837 75.0224 90.106 69.412 90.106 63.9312V21.794C90.106 20.5306 89.2588 19.4167 88.0208 19.0537Z" fill="url(#paint0_linear)"/>
</g>
</mask>
<g mask="url(#mask0)">
<path fill-rule="evenodd" clip-rule="evenodd" d="M-13.4727 53.8635C-13.4727 19.3927 14.0495 -8.54858 47.9991 -8.54858C47.9994 -8.54858 47.9997 -8.54858 48 -8.54858C81.9514 -8.54858 109.474 19.3927 109.474 53.8635C109.474 88.3314 81.9517 116.274 48 116.274C47.9997 116.274 47.9994 116.274 47.9991 116.274C14.0495 116.274 -13.4727 88.3314 -13.4727 53.8635Z" fill="#3643A2"/>
<path d="M98.7649 1.98792H-2.76465V104.876H98.7649V1.98792Z" fill="#6DA544"/>
<path d="M48.0004 25.0024L86.0739 53.4319L48.0004 81.8613L9.92676 53.4319L48.0004 25.0024Z" fill="#FFDA44"/>
<path d="M47.9993 69.6769C56.8528 69.6769 64.0299 62.4037 64.0299 53.4318C64.0299 44.4599 56.8528 37.1868 47.9993 37.1868C39.1459 37.1868 31.9688 44.4599 31.9688 53.4318C31.9688 62.4037 39.1459 69.6769 47.9993 69.6769Z" fill="#F0F0F0"/>
<path d="M39.984 52.4166C37.1963 52.4166 34.5059 52.8463 31.9736 53.6435C32.0857 62.5178 39.2158 69.6776 47.9995 69.6776C53.4309 69.6776 58.2278 66.9378 61.1275 62.7505C56.1665 56.4566 48.5325 52.4166 39.984 52.4166Z" fill="#0052B4"/>
<path d="M63.7333 56.5442C63.9264 55.5366 64.0305 54.4967 64.0305 53.4318C64.0305 44.4597 56.8532 37.1862 47.9993 37.1862C41.3931 37.1862 35.7219 41.2366 33.2676 47.0198C35.437 46.5644 37.6833 46.3245 39.9838 46.3245C49.2954 46.3245 57.7184 50.2465 63.7333 56.5442Z" fill="#0052B4"/>
</g>
<path opacity="0.3" d="M93.4701 14.3981L93.47 14.3983L93.4822 14.4018C94.6866 14.7549 95.5 15.8337 95.5 17.0456V65.0752C95.5 71.1781 92.974 77.4661 87.9212 83.7697C84.0613 88.5851 78.7083 93.4359 71.9996 98.1834C60.7254 106.162 49.6195 111.057 49.1631 111.257L49.1628 111.257C48.7937 111.419 48.3974 111.5 48.0004 111.5C47.6037 111.5 47.2072 111.419 46.8379 111.257L46.8377 111.257C46.3811 111.057 35.275 106.162 24.0008 98.1834C17.2921 93.4359 11.939 88.5851 8.07923 83.7697C3.02643 77.4659 0.5 71.1779 0.5 65.0752V17.0456C0.5 15.8338 1.31375 14.7549 2.51788 14.4018L2.51793 14.402L2.52995 14.3981L43.3528 1.29908L43.3655 1.29499L43.378 1.29022C46.1434 0.236576 49.8566 0.23658 52.622 1.2902L52.6345 1.29497L52.6472 1.29906L93.4701 14.3981Z" stroke="#011949"/>
</g>
<defs>
<filter id="filter0_b" x="-30" y="-30" width="156" height="172" filterUnits="userSpaceOnUse" color-interpolation-filters="sRGB">
<feFlood flood-opacity="0" result="BackgroundImageFix"/>
<feGaussianBlur in="BackgroundImage" stdDeviation="15"/>
<feComposite in2="SourceAlpha" operator="in" result="effect1_backgroundBlur"/>
<feBlend mode="normal" in="SourceGraphic" in2="effect1_backgroundBlur" result="shape"/>
</filter>
<linearGradient id="paint0_linear" x1="48.0008" y1="120.733" x2="48.0008" y2="41.6487" gradientUnits="userSpaceOnUse">
<stop stop-color="#216935"/>
<stop offset="1" stop-color="#216935" stop-opacity="0"/>
</linearGradient>
</defs>
</svg>
