<svg width="96" height="112" viewBox="0 0 96 112" fill="none" xmlns="http://www.w3.org/2000/svg">
<g filter="url(#filter0_b)">
<mask id="mask0" mask-type="alpha" maskUnits="userSpaceOnUse" x="5" y="6" width="86" height="100">
<g opacity="0.9">
<path d="M88.0198 19.0537L52.2103 7.56172C49.684 6.59904 46.3156 6.59903 43.7893 7.56174L7.97978 19.0537C6.74217 19.4167 5.89453 20.5306 5.89453 21.794V63.9312C5.89453 69.4118 8.16394 75.0222 12.6393 80.6065C16.0574 84.8714 20.7864 89.154 26.6945 93.3356C36.6198 100.36 46.3933 104.669 46.8045 104.849C47.1847 105.016 47.5925 105.099 48.0002 105.099C48.4079 105.099 48.8156 105.016 49.1959 104.849C49.6069 104.669 59.3802 100.36 69.3055 93.3356C75.2136 89.154 79.9424 84.8714 83.3606 80.6065C87.8361 75.0224 90.1051 69.412 90.1051 63.9312V21.794C90.1051 20.5306 89.2578 19.4167 88.0198 19.0537Z" fill="#24B04B"/>
<path d="M88.0198 19.0537L52.2103 7.56172C49.684 6.59904 46.3156 6.59903 43.7893 7.56174L7.97978 19.0537C6.74217 19.4167 5.89453 20.5306 5.89453 21.794V63.9312C5.89453 69.4118 8.16394 75.0222 12.6393 80.6065C16.0574 84.8714 20.7864 89.154 26.6945 93.3356C36.6198 100.36 46.3933 104.669 46.8045 104.849C47.1847 105.016 47.5925 105.099 48.0002 105.099C48.4079 105.099 48.8156 105.016 49.1959 104.849C49.6069 104.669 59.3802 100.36 69.3055 93.3356C75.2136 89.154 79.9424 84.8714 83.3606 80.6065C87.8361 75.0224 90.1051 69.412 90.1051 63.9312V21.794C90.1051 20.5306 89.2578 19.4167 88.0198 19.0537Z" fill="url(#paint0_linear)"/>
</g>
</mask>
<g mask="url(#mask0)">
<path fill-rule="evenodd" clip-rule="evenodd" d="M-13.4727 53.8635C-13.4727 19.3927 14.0495 -8.54858 47.9991 -8.54858C47.9994 -8.54858 47.9997 -8.54858 48 -8.54858C81.9514 -8.54858 109.474 19.3927 109.474 53.8635C109.474 88.3314 81.9517 116.274 48 116.274C47.9997 116.274 47.9994 116.274 47.9991 116.274C14.0495 116.274 -13.4727 88.3314 -13.4727 53.8635Z" fill="white"/>
<path d="M159.128 103.346C159.128 112.327 152.071 119.458 143.445 119.458H12.7542C4.1286 119.458 -2.92871 112.327 -2.92871 103.346V23.0501C-2.92871 14.0696 4.1286 6.93799 12.7542 6.93799H143.445C152.071 6.93799 159.128 14.0696 159.128 23.0501V103.346Z" fill="#B2EAED"/>
<path d="M-2.92871 94.6299V103.346C-2.92871 112.327 4.1286 119.458 12.7542 119.458H143.445C152.071 119.458 159.128 112.327 159.128 103.346V94.6299H-2.92871Z" fill="#B71234"/>
<path d="M159.128 103.346C159.128 112.327 152.071 119.458 143.445 119.458H12.7542C4.1286 119.458 -2.92871 112.327 -2.92871 103.346" fill="#870221"/>
<path d="M12.7549 6.93799H143.446C152.071 6.93799 159.129 14.0696 159.129 23.0502V52.369" fill="#8BCBCE"/>
<path d="M9.81445 4.95569L134.212 45.6355C142.422 48.3204 146.585 58.5681 143.369 68.7064L132.868 101.805" fill="#77BCBF"/>
<path d="M16.4142 38.6339L18.5053 31.7665L12.7549 27.5404H19.8122L21.9033 20.673L23.9943 27.5404H31.0516L25.3012 31.7665L27.3923 38.6339L21.6419 34.4078L16.4142 38.6339Z" fill="#B71234"/>
<path d="M146.843 86.4418C146.843 86.1776 146.843 86.1776 146.581 86.1776C146.32 86.1776 146.059 85.9135 146.059 85.9135L145.797 85.6494L145.536 85.3852C145.536 85.3852 145.536 85.3852 145.275 85.3852C145.013 85.1211 145.013 85.1211 144.752 84.857H144.49C144.229 84.857 143.968 84.857 143.968 84.857C143.968 84.857 143.968 84.5928 143.706 84.5928C143.706 84.5928 143.706 84.3287 143.445 84.3287L143.183 84.0646H142.922C142.922 84.0646 142.922 84.0646 142.661 84.0646V83.8004C142.661 83.5363 142.661 83.5363 142.399 83.5363C142.399 83.5363 142.138 83.2722 142.138 83.5363C142.138 83.5363 141.877 83.5363 141.877 83.8004C141.877 83.8004 141.877 83.8004 141.615 83.8004C141.354 83.8004 141.354 83.8004 141.354 83.8004C141.354 83.5363 141.092 83.5363 140.831 83.2722C140.831 83.2722 140.831 83.2722 140.57 83.2722C140.57 83.2722 140.57 83.2722 140.308 83.2722C140.047 83.2722 140.047 83.0081 140.047 82.7439H139.786H139.524C139.524 82.7439 139.524 82.7439 139.263 82.7439C139.001 82.7439 139.001 82.7439 139.001 82.7439C139.001 82.7439 139.001 82.7439 138.74 82.7439C138.74 82.7439 138.74 82.7439 138.74 83.008H138.479C138.479 83.008 138.479 83.0081 138.217 82.7439C138.217 82.7439 138.217 82.7439 137.956 82.7439C137.956 82.7439 137.956 82.7439 137.694 82.7439C137.694 82.7439 137.694 82.7439 137.694 82.4798C137.694 82.2157 137.694 82.2157 137.694 82.2157C137.694 82.2157 137.433 82.2157 137.433 82.4798C137.172 82.4798 137.172 82.2157 137.172 81.9515C137.172 81.9515 137.172 81.9515 136.91 81.9515L136.649 82.2157C136.649 82.2157 136.649 82.2157 136.388 82.2157C136.388 82.2157 136.388 82.2157 136.388 81.9515V81.6874C136.388 81.6874 136.388 81.6874 136.126 81.6874C136.126 81.9515 135.865 82.2157 135.603 81.9515C135.603 81.6874 135.603 81.6874 135.603 81.4233V81.1591C135.603 81.1591 135.603 80.895 135.342 80.895C135.342 80.895 135.081 80.895 135.081 81.1591C135.081 81.1591 135.081 81.4233 134.819 81.4233C134.819 81.4233 134.819 81.4233 134.558 81.4233L134.296 81.6874C134.296 81.6874 134.035 81.6874 134.035 81.9515C134.035 81.9515 134.035 81.9515 133.774 81.6874V81.4233V81.1591C133.774 81.1591 133.774 80.895 133.512 80.895C133.512 80.895 133.512 80.895 133.512 80.6309C133.512 80.6309 133.512 80.6309 133.512 80.3667C133.512 80.1026 133.512 80.1026 133.251 79.8385L132.99 80.1026C132.99 80.1026 132.99 80.3667 132.728 80.3667C132.728 80.3667 132.467 80.3667 132.467 80.1026C132.467 79.8385 132.467 79.8385 132.205 79.8385C132.205 79.8385 132.205 79.8385 131.944 79.8385C131.944 79.8385 131.944 79.8385 131.944 80.1026V80.3667C131.944 80.6309 131.944 80.895 131.683 80.895C131.683 80.895 131.421 80.895 131.421 80.6309C131.421 80.3667 131.16 80.3667 131.16 80.3667C131.16 80.3667 130.899 80.3667 130.899 80.1026V79.8385V79.5743C130.899 79.5743 130.637 79.5743 130.637 79.8385C130.637 79.8385 130.376 80.1026 130.376 79.8385V79.5743C130.114 79.3102 130.114 79.3102 130.114 79.8385C130.114 80.1026 129.853 80.1026 129.853 80.1026C129.853 80.1026 129.853 80.1026 129.592 80.1026C129.592 80.1026 127.501 79.8385 124.887 79.8385L120.182 79.5743H119.92C119.92 79.5743 119.92 79.5743 119.659 79.3102H119.398H119.136H118.875L118.614 79.0461L117.307 78.2537H117.045H116.784L116.523 77.9895H116.261L116 78.2537L115.738 77.9895H115.477L115.216 77.7254L114.954 77.4613H114.693H114.431H114.17L113.909 77.1971L113.647 77.4613H113.386H113.125H112.863L112.602 77.9895H111.818V77.4613V77.1971H112.079H111.556V76.933V76.6689H111.295L111.033 77.1971V76.933H110.772L110.511 77.1971L110.249 77.4613H109.988V77.1971V76.933H109.727L109.465 77.1971L108.942 77.4613V77.1971V76.933H108.681V77.1971H108.42L108.158 76.933L107.636 77.4613L107.113 77.7254H106.851C106.851 77.7254 100.84 78.5178 97.1803 78.5178C93.7823 78.5178 94.0437 77.7254 94.0437 77.7254C94.0437 77.7254 94.0437 77.7254 94.0437 77.4613C94.0437 77.1972 94.0437 77.1971 94.0437 77.1971V76.933H93.7823C92.9981 76.933 92.7368 77.1972 92.4754 77.4613C92.4754 77.4613 90.9071 77.4613 85.4181 77.1971C85.4181 77.1971 85.1567 77.1971 84.8953 77.1971C84.6339 77.1971 84.3725 76.6689 84.1112 76.933C83.8498 77.1972 83.5884 76.933 83.5884 76.6689C83.327 76.6689 83.0656 77.1972 82.8042 76.933C82.5429 76.6689 82.0201 77.1972 81.7587 76.933C81.7587 76.933 81.4973 76.4047 81.4973 76.6689C81.236 76.933 81.4973 76.1406 80.9746 76.1406C80.9746 76.4048 80.7132 76.4048 80.7132 76.1406C80.7132 76.1406 80.7132 76.1406 80.4518 76.1406C80.1904 76.1406 80.1904 76.4048 80.1904 76.4048C79.929 76.6689 79.4063 76.1406 79.4063 76.6689C79.4063 76.933 78.8835 76.933 78.6221 76.933C78.6221 76.4048 78.0994 76.6689 77.838 76.933C77.5766 77.1972 77.0538 76.933 76.7925 76.933C76.5311 76.933 76.2697 76.933 76.2697 76.6689C76.5311 76.4047 76.2697 76.1406 76.0083 76.4048C75.7469 76.4048 76.0083 76.6689 75.7469 76.6689C75.4855 76.933 75.7469 76.1406 75.2242 76.4048C75.2242 76.933 74.44 76.933 74.1786 76.933C73.9173 76.933 73.6559 77.1971 73.1331 77.1971H71.5648L69.7351 77.7254C68.6896 77.9895 67.9055 78.2537 67.9055 78.2537C67.6441 78.2537 67.6441 78.2537 67.3827 78.2537L55.3591 80.895L54.8364 80.6309H54.575H54.3136H53.7908L53.5295 80.3667H53.2681L53.0067 80.6309H52.7453H52.4839L51.9612 80.895H51.6998H51.4384H51.177V80.6309V80.3667H50.9156L50.6543 80.6309L50.3929 80.895H50.1315L49.8701 80.6309H49.6087H49.3474L48.8246 81.1591H48.5632H48.3018L48.0404 81.4233V81.6874L47.7791 81.9515H47.2563H46.9949V81.6874H46.4721H46.2108L45.9494 81.4233H45.688H45.4266H45.1652H44.9039V81.6874V81.9515V82.2157H44.6425V82.4798V82.7439H44.3811H44.1197H43.8583H43.5969L43.0742 83.008H42.8128H42.5514H42.29L42.0287 82.7439L41.7673 82.4798L41.5059 82.7439L40.9831 83.2722H40.7217V83.008L40.4604 82.7439H40.199V83.008V82.7439V82.4798L39.9376 82.7439L39.6762 83.008V82.7439V82.4798H39.4148V82.7439V83.008V83.2722H39.1535L38.8921 83.008H38.6307V83.2722L38.3693 83.5363L37.5852 84.3287H37.0624L36.801 83.8004L36.5396 84.3287H36.2783H36.0169H35.7555H35.4941V84.0646L35.2327 84.3287V84.5928L34.71 84.857H34.1872L33.1417 85.3852H32.8803H32.6189L32.0961 85.6494H31.8348L31.312 85.9135H31.0506H30.7892H30.5278L30.0051 86.1776L29.2209 86.4418H28.9596C28.6982 86.7059 28.4368 86.7059 27.914 86.97C27.914 86.97 27.6526 86.97 27.3913 86.97C27.1299 86.97 27.1299 86.97 27.1299 87.2342V87.4983C27.3913 87.7624 27.914 87.7624 28.4368 87.7624C28.4368 87.7624 28.6982 87.7624 28.9596 87.7624C30.7892 87.7624 32.0961 87.4983 33.6644 87.7624C33.9258 87.7624 34.1872 87.7624 34.4486 87.7624C34.9713 87.7624 35.7555 87.7624 36.2783 87.7624C36.5396 87.7624 36.5396 87.7624 36.801 87.7624C37.0624 87.7624 37.3238 87.7624 37.5852 87.7624C38.3693 87.7624 38.8921 87.7624 38.8921 87.7624C39.4148 88.0266 40.199 88.0266 40.7217 88.0266C40.7217 88.0266 40.9831 88.0266 42.0287 88.0266C42.29 88.0266 42.29 88.0266 42.5514 88.0266C44.9039 87.7624 46.7335 87.7624 49.086 87.4983C49.3474 87.4983 49.8701 87.4983 50.1315 87.4983C50.1315 87.4983 50.3929 87.4983 51.177 87.4983C51.4384 87.4983 51.6998 87.4983 51.6998 87.4983C51.6998 87.4983 52.4839 87.4983 53.0067 87.4983C55.0978 87.4983 57.1888 87.4983 59.2799 87.7624H59.8026C61.6323 87.7624 63.2006 88.0266 65.0303 88.0266C65.2917 88.0266 65.8144 88.0266 66.0758 88.0266C66.5986 88.0266 66.8599 88.0266 67.3827 88.0266H67.6441C68.951 88.2907 70.2579 88.2907 71.5648 88.2907H72.0876C72.349 88.2907 72.6103 88.2907 72.6103 88.2907C72.8717 88.2907 73.1331 88.2907 73.3945 88.2907C73.3945 88.2907 73.6559 88.2907 73.9173 88.2907C74.44 88.2907 74.9628 88.2907 75.4855 88.2907C76.0083 88.2907 76.5311 88.2907 77.0538 88.2907C77.3152 88.2907 77.838 88.2907 78.0994 88.2907C78.3608 88.2907 78.3608 88.2907 78.6221 88.2907H78.8835C79.6677 88.2907 80.1904 88.0266 80.9746 88.0266C81.4973 88.0266 82.0201 88.0266 82.5429 87.7624C83.0656 87.7624 83.8498 87.4983 84.3725 87.4983C85.4181 87.4983 86.4636 87.4983 87.5091 87.2342C88.2933 87.2342 89.3388 86.97 89.8616 86.97C91.1685 86.97 92.9981 86.7059 94.0437 86.7059C94.305 86.7059 94.8278 86.7059 95.0892 86.7059C95.612 86.7059 96.1347 86.7059 96.6575 86.7059C97.4416 86.7059 98.4872 86.4418 99.2713 86.4418C99.2713 86.4418 99.5327 86.4418 99.7941 86.4418C100.055 86.4418 100.317 86.4418 100.578 86.4418C101.362 86.4418 102.408 86.4418 103.192 86.4418C103.192 86.4418 103.192 86.4418 103.453 86.4418C103.715 86.4418 103.715 86.4418 103.976 86.4418C105.022 86.4418 106.067 86.4418 107.113 86.4418C108.681 86.4418 110.249 86.4418 111.818 86.7059C113.647 86.7059 115.477 86.7059 117.045 86.97C120.182 87.2342 122.796 86.97 125.41 87.2342C125.671 87.2342 126.194 87.2342 126.455 87.2342C126.455 87.2342 127.239 87.2342 127.501 87.2342C129.069 87.2342 131.421 86.97 132.205 86.97C132.99 86.97 133.251 86.97 133.251 86.97C136.126 86.97 138.217 86.4418 141.092 86.4418C142.138 86.1776 143.183 86.7059 144.49 86.4418H144.752C145.013 86.4418 145.013 86.4418 145.275 86.4418C145.536 86.4418 145.797 86.4418 146.059 86.4418C146.843 86.97 146.843 86.7059 146.843 86.4418Z" fill="#008542"/>
<path d="M130.638 78.518C130.638 78.2539 130.638 77.9897 130.638 77.7256C130.638 77.7256 130.638 77.4615 130.638 77.1973V76.9332V76.6691C130.638 76.6691 130.638 76.6691 130.638 76.4049C130.638 76.4049 130.638 76.4049 130.638 76.1408V75.8767C130.638 75.6125 130.638 75.6125 130.376 75.3484C130.376 75.3484 130.376 75.3484 130.115 75.0843L129.854 74.8201C129.854 74.8201 129.854 74.8201 129.854 74.556C129.854 74.556 129.854 74.556 129.854 74.2919C129.854 74.2919 129.854 74.0277 129.592 74.0277C129.592 74.0277 129.592 74.0277 129.592 73.7636C129.592 73.7636 129.592 73.7636 129.331 73.4995C129.331 73.4995 129.069 73.4995 129.069 73.2353L128.808 72.9712C128.808 72.9712 128.808 72.7071 128.547 72.7071C128.547 72.7071 128.547 72.7071 128.285 72.7071C128.285 72.7071 128.285 72.443 128.024 72.443C128.024 72.443 128.024 72.443 128.024 72.1788V71.9147C128.024 71.9147 128.024 71.9147 128.024 71.6506V71.3864V71.1223C128.024 71.1223 128.024 71.1223 128.024 70.8582C128.024 70.8582 128.024 70.8582 128.024 70.594V70.3299C128.024 70.3299 128.024 70.0658 127.762 69.8016V69.5375V69.2734C127.762 69.2734 127.762 69.2734 127.762 69.0092C127.762 69.0092 127.763 68.7451 127.501 68.7451C127.501 68.7451 127.501 68.7451 127.501 68.481C127.501 68.481 127.501 68.481 127.501 68.2168V67.9527V67.6886C127.501 67.4244 127.501 67.4244 127.501 67.1603C127.501 66.8962 127.501 66.8962 127.501 66.632V66.3679V66.1038C127.501 65.8396 127.501 65.8396 127.501 65.5755C127.501 65.3114 127.501 65.3114 127.501 65.0473V64.7831V64.519C127.501 64.2549 127.501 63.9907 127.501 63.7266C127.501 63.4625 127.501 63.4625 127.501 63.1983C127.501 62.9342 127.501 62.9342 127.501 62.6701C127.501 62.4059 127.24 62.4059 127.24 62.1418C127.24 61.8777 127.24 61.8777 127.24 61.8777V61.6135V61.3494C127.24 61.0853 127.24 61.0853 127.24 60.8211C127.24 60.557 127.24 60.557 126.978 60.2929V60.0287C126.978 59.7646 126.978 59.7646 126.978 59.5005L126.717 59.2364C126.717 59.2364 126.717 58.9722 126.456 58.9722C126.456 58.9722 126.456 58.9722 126.456 58.7081V58.444C126.456 58.1798 126.194 57.9157 126.194 57.6516V57.3874C126.194 57.1233 126.194 57.1233 126.194 57.1233V56.8592V56.595C126.194 56.595 126.194 56.3309 125.933 56.3309V56.0668H126.194C126.456 55.8026 126.456 55.8026 126.456 55.5385C126.456 55.2744 126.456 55.2744 126.456 55.0102V54.7461C126.456 54.7461 126.456 54.7461 126.456 54.482C126.456 54.2178 126.194 54.2178 126.194 53.9537V53.6896V53.4254V53.1613V52.8972L125.933 52.633C125.933 52.633 125.933 52.633 125.933 52.3689C125.933 52.3689 125.933 52.1048 125.671 52.1048C125.671 51.8407 125.671 51.5765 125.41 51.5765L125.149 51.3124C125.149 51.3124 125.149 51.0483 124.887 51.0483C124.887 51.0483 124.887 51.0483 124.626 51.0483C124.626 51.0483 124.626 51.0483 124.626 50.7841C124.626 50.7841 124.626 50.52 124.365 50.52C124.365 50.2559 124.103 50.2559 123.842 49.9917C123.842 49.9917 123.842 49.7276 123.58 49.7276C123.58 49.4635 123.319 49.1993 123.058 49.1993L122.796 48.9352C122.796 48.9352 122.796 48.6711 122.535 48.6711C122.535 48.6711 122.535 48.6711 122.273 48.6711C122.273 48.4069 122.012 48.1428 121.751 48.1428C121.751 48.1428 121.751 48.1428 121.751 47.8787C121.751 47.8787 121.751 47.6145 121.489 47.6145L121.228 47.3504C120.967 47.3504 120.967 47.0863 120.967 47.0863L120.705 46.8221C120.705 46.8221 120.705 46.8221 120.444 46.8221C120.444 46.8221 120.444 46.8221 120.444 46.558C120.444 46.558 120.444 46.2939 120.182 46.2939C120.182 46.2939 120.182 46.0297 119.921 46.0297C119.921 46.0297 119.921 46.0297 119.66 46.0297C119.398 45.7656 119.137 45.7656 119.137 45.2374C118.876 45.2374 118.614 44.9732 118.614 44.9732C118.614 44.9732 118.614 44.9732 118.353 44.9732C118.353 44.9732 118.091 44.9732 118.091 44.7091C117.83 44.7091 117.83 44.445 117.569 44.445C117.569 44.445 117.569 44.1808 117.307 44.1808C117.046 44.1808 117.046 44.1808 117.046 43.9167C116.784 43.6526 116.523 43.6526 116.262 43.3884C116.262 43.3884 116.262 43.3884 116 43.3884H115.739C115.739 43.3884 115.739 43.3884 115.478 43.3884C115.216 43.3884 115.216 43.1243 114.955 43.1243H114.693C114.693 43.1243 114.693 43.1243 114.432 43.1243H114.171C114.171 43.1243 114.171 43.1243 113.909 43.1243C113.909 43.1243 113.648 43.1243 113.386 43.1243L113.125 42.8602C112.864 42.8602 112.864 42.596 112.602 42.596C112.341 42.596 112.341 42.596 112.08 42.596H111.818H111.557C111.557 42.596 111.557 42.596 111.295 42.596C111.034 42.596 111.034 42.596 111.034 42.596H110.773L110.511 42.3319H110.25H109.989C109.727 42.3319 109.727 42.3319 109.466 42.3319C109.204 42.3319 108.943 42.3319 108.943 42.3319H108.682H108.42C108.42 42.3319 108.42 42.3319 108.159 42.3319H107.897C107.636 42.3319 107.636 42.3319 107.636 42.3319C107.375 42.3319 106.852 42.0678 106.591 42.0678H106.329C106.329 42.0678 106.329 42.0678 106.068 42.0678H105.806C105.806 42.0678 105.806 42.0678 105.545 42.0678H104.761C104.5 42.0678 104.5 42.0678 104.238 42.0678C103.977 42.0678 103.977 42.0678 103.715 42.0678C103.454 42.0678 103.454 42.0678 103.454 42.0678C103.454 42.0678 102.931 42.0678 102.67 42.0678H102.408C102.147 42.0678 102.147 42.0678 101.886 42.0678C101.624 42.0678 101.624 42.0678 101.363 42.0678C101.102 42.0678 100.84 42.0678 100.84 42.0678H100.579H100.317H100.056H99.5332C99.2719 42.0678 99.2719 42.0678 99.2719 42.0678H99.0105C99.0105 42.0678 98.4877 42.3319 98.2263 42.3319H97.9649C97.7036 42.3319 97.7036 42.3319 97.4422 42.3319C97.1808 42.3319 97.1808 42.3319 96.9194 42.3319C96.658 42.3319 96.3967 42.3319 96.3967 42.3319H96.1353H95.8739H95.6125C95.6125 42.3319 95.3511 42.3319 95.0897 42.3319C94.8284 42.3319 94.567 42.3319 94.567 42.3319H94.3056H94.0442C94.0442 42.3319 94.0442 42.3319 93.7828 42.3319C93.5215 42.3319 93.5215 42.3319 93.2601 42.3319C92.9987 42.3319 92.9987 42.3319 92.7373 42.3319C92.4759 42.3319 92.4759 42.3319 92.4759 42.3319C92.2145 42.3319 91.9532 42.3319 91.9532 42.3319C91.6918 42.3319 91.6918 42.3319 91.6918 42.3319C91.4304 42.3319 90.9076 42.3319 90.6462 42.3319H90.3849C90.1235 42.3319 90.1235 42.3319 89.8621 42.3319C89.8621 42.3319 89.8621 42.3319 89.6007 42.3319H89.3393C89.3393 42.3319 89.3393 42.3319 89.078 42.3319C88.8166 42.3319 88.8166 42.3319 88.5552 42.0678C88.2938 42.0678 88.0324 41.8036 87.771 41.8036C87.5097 41.8036 87.5097 41.5395 87.2483 41.5395C86.9869 41.5395 86.9869 41.5395 86.9869 41.2754H86.7255C86.7255 41.2754 86.4641 41.2754 86.7255 41.0112C86.7255 41.0112 86.7255 41.0112 86.4641 41.0112C86.2028 41.0112 86.2028 41.0112 86.2028 40.7471C85.9414 40.7471 85.9414 40.483 85.68 40.483H85.4186C85.4186 40.483 85.4186 40.483 85.4186 40.2188H85.1572C85.1572 40.2188 85.1572 40.2188 84.8958 40.2188C84.6345 40.2188 84.6345 40.2188 84.6345 40.2188H84.3731H84.1117C84.1117 40.2188 84.1117 40.2188 84.1117 39.9547C83.8503 39.9547 83.5889 39.9547 83.3276 39.9547C83.0662 39.9547 83.0662 39.9547 83.0662 39.6906C83.0662 39.4264 83.0662 39.4264 83.0662 39.4264C83.0662 39.4264 83.0662 39.6906 82.8048 39.4264C82.8048 39.4264 82.5434 39.4264 82.5434 39.1623H82.282C82.0206 39.1623 82.0206 39.1623 81.7593 39.1623C81.7593 39.1623 81.7593 39.1623 81.4979 39.1623C81.2365 39.1623 81.2365 38.8982 81.2365 39.1623H80.9751C80.7137 39.1623 80.9751 39.1623 80.7137 39.1623C80.7137 39.1623 80.4524 39.4264 80.4524 39.1623C80.191 39.1623 79.9296 39.1623 79.6682 39.1623C79.4068 39.1623 79.1454 39.1623 79.1454 39.1623C79.1454 39.1623 79.1454 39.1623 78.8841 39.4264H78.6227H78.3613C78.3613 39.4264 78.0999 39.4264 77.8385 39.4264C77.8385 39.4264 77.8385 39.4264 77.5771 39.4264C77.3158 39.4264 77.3158 39.6906 77.0544 39.6906H76.793H76.5316C76.5316 39.6906 76.5316 39.9547 76.2702 39.6906C76.0089 39.6906 76.0089 39.6906 76.0089 39.6906C75.7475 39.6906 75.7475 39.6906 75.4861 39.9547C75.4861 39.9547 75.4861 39.9547 75.2247 39.9547C74.9633 39.9547 75.2247 39.9547 74.9633 39.9547H74.702H74.4406H74.1792C74.1792 39.9547 73.9178 39.9547 73.9178 40.2188H73.6564C73.395 40.2188 73.395 40.2188 73.1337 40.483C73.1337 40.483 72.8723 40.483 72.8723 40.7471C72.6109 41.0112 72.0881 41.0112 71.8267 41.2754H71.5654C71.5654 41.2754 71.5654 41.2754 71.304 41.2754C71.304 41.2754 71.304 41.5395 71.0426 41.5395L70.7812 41.8036C70.7812 41.8036 70.7812 41.8036 70.5198 41.8036H70.2585C70.2585 41.8036 70.2585 42.0678 69.9971 42.0678H69.7357H69.4743H69.2129C69.2129 42.0678 69.2129 42.0678 68.9515 42.0678H68.6902C68.4288 42.3319 68.4288 42.3319 68.1674 42.596C68.1674 42.596 68.1674 42.596 67.906 42.596C67.6446 42.596 67.6446 42.596 67.3832 42.8602C67.3832 42.8602 67.3832 42.8602 67.1219 42.8602C66.8605 42.8602 66.8605 42.8602 66.8605 42.8602H66.5991H66.3377C66.3377 42.8602 66.3377 42.8602 66.0763 42.8602C66.0763 42.8602 66.0763 42.8602 65.815 43.1243H65.5536C65.5536 43.1243 65.2922 43.1243 65.2922 43.3884L65.0308 43.6526H64.7694C64.7694 43.6526 64.508 43.6526 64.508 43.9167C64.2467 44.1808 63.9853 44.1808 63.7239 44.1808C63.4625 44.1808 63.4625 44.445 63.2011 44.445C63.2011 44.445 62.9398 44.445 63.2011 44.445C63.2011 44.445 63.2011 44.445 62.9398 44.445H62.6784C62.417 44.7091 62.417 44.7091 62.1556 44.9732C62.1556 44.9732 62.1556 44.9732 61.8942 44.9732C61.8942 44.9732 61.6328 44.9732 61.6328 45.2374V45.5015H61.3715C61.3715 45.5015 61.1101 45.5015 61.3715 45.5015C61.3715 45.5015 61.3715 45.5015 61.1101 45.7656L60.8487 46.0297V46.2939H60.5873C60.5873 46.2939 60.3259 46.558 60.0646 46.2939C60.0646 46.2939 60.0646 46.2939 60.0646 46.0297V45.7656C60.0646 45.7656 59.8032 45.7656 59.8032 45.5015C59.8032 45.5015 59.5418 45.2374 59.2804 45.2374C59.019 45.2374 59.019 45.2374 58.7576 45.2374L58.4963 45.5015C58.2349 45.5015 58.2349 45.7656 57.9735 45.7656C57.9735 46.0297 57.7121 46.0297 57.7121 46.0297C57.7121 46.0297 57.7121 46.0297 57.4507 46.2939V46.558V46.8221L57.1894 47.0863H56.928H56.6666H56.4052C56.1438 47.0863 56.1438 47.0863 55.8824 46.8221L55.6211 46.558C55.6211 46.558 55.3597 46.558 55.3597 46.2939C55.3597 46.2939 55.3597 46.0297 55.0983 46.0297C54.8369 46.0297 54.8369 46.0297 54.5755 46.0297H54.3141C54.3141 46.0297 54.0528 46.0297 54.0528 46.2939C54.0528 46.558 53.7914 46.558 53.7914 46.8221V47.0863C53.7914 47.0863 53.7914 47.0863 53.7914 47.3504V47.6145C53.7914 47.8787 53.7914 47.8787 53.53 47.8787C53.53 47.8787 53.53 48.1428 53.53 48.4069C53.53 48.4069 53.53 48.4069 53.53 48.6711C53.53 48.6711 53.53 48.6711 53.53 48.9352C53.53 48.9352 53.53 48.9352 53.53 49.1993C53.53 49.4635 53.53 49.7276 53.53 49.7276L53.2686 49.9917C53.0072 50.2559 53.0072 50.2559 52.7459 50.52C52.7459 50.52 52.4845 50.52 52.4845 50.7841C52.4845 50.7841 52.4845 50.7841 52.4845 51.0483C52.4845 51.3124 52.4845 51.3124 52.2231 51.3124C52.2231 51.3124 51.9617 51.5765 51.9617 51.8407C51.7003 52.1048 51.7003 52.6331 51.4389 52.8972C51.4389 52.8972 51.4389 52.8972 51.1776 53.1613V53.4254C51.1776 53.4254 51.1776 53.6896 50.9162 53.6896V53.9537C50.9162 53.9537 50.9162 54.2178 50.6548 54.2178V54.482C50.6548 54.482 50.6548 54.7461 50.9162 54.7461C50.9162 54.7461 50.9162 55.0102 51.1776 55.0102C51.1776 55.0102 51.1776 55.0102 51.4389 55.0102C51.4389 55.0102 51.4389 55.0102 51.4389 55.2744C51.4389 55.2744 51.7003 55.5385 51.4389 55.5385C51.4389 55.5385 51.4389 55.8026 51.4389 56.0668V56.3309C51.4389 56.3309 51.4389 56.595 51.4389 56.8592C51.4389 56.8592 51.4389 57.1233 51.1776 57.1233C51.1776 57.1233 51.1776 57.3874 50.9162 57.3874L50.6548 57.6516C50.6548 57.9157 50.3934 57.9157 50.3934 58.1798L50.132 58.444L49.8707 58.7081L49.6093 58.9722C49.3479 59.2363 49.3479 59.2364 49.0865 59.5005L48.8251 59.7646C48.8251 60.0287 48.5637 60.0287 48.5637 60.2929L48.3024 60.557C48.3024 60.557 48.3024 60.8211 48.041 60.8211H47.7796C47.7796 60.8211 47.5182 60.8211 47.5182 61.0853C47.5182 61.0853 47.2568 61.0853 47.2568 61.3494C47.2568 61.6135 47.2568 61.3494 47.2568 61.6135C47.2568 61.6135 47.2568 61.8777 47.5182 61.8777L47.7796 62.1418L48.041 62.4059H48.3024H48.5637C48.5637 62.4059 48.5637 62.4059 48.5637 62.6701V62.9342C48.5637 62.9342 48.5637 62.9342 48.8251 62.9342C49.0865 63.1983 49.3479 63.1983 49.6093 63.1983H49.8707H50.132C50.3934 63.1983 50.3934 63.1983 50.3934 63.1983H50.6548C50.6548 63.1983 50.6548 63.1983 50.9162 63.1983H51.1776L51.4389 63.4625C51.4389 63.4625 51.7003 63.4625 51.7003 63.7266L51.9617 63.9907C51.9617 63.9907 51.9617 63.9907 51.9617 63.7266C51.9617 63.7266 51.9617 63.7266 51.9617 63.4625C51.9617 63.4625 51.9617 63.4625 52.2231 63.4625C52.4845 63.4625 52.4845 63.4625 52.7459 63.1983C52.7459 63.1983 52.7459 63.1983 53.0072 63.1983C53.2686 63.1983 53.2686 62.9342 53.53 62.9342C53.53 62.9342 53.7914 62.9342 53.7914 62.6701C54.0528 62.6701 54.0528 62.4059 54.3141 62.4059H54.5755C54.5755 62.4059 54.5755 62.4059 54.5755 62.6701C54.5755 62.9342 54.3141 63.1983 54.0528 63.4625L53.7914 63.7266C53.7914 63.7266 53.7914 63.7266 53.53 63.9907V64.2549V64.519C53.53 64.519 53.53 64.519 53.53 64.7831C53.2686 64.7831 53.0072 64.7831 53.0072 64.519C53.0072 64.2549 52.7459 64.2549 52.7459 64.2549C52.7459 64.519 52.7459 64.519 52.7459 64.7831H52.4845C52.4845 64.7831 52.4845 64.7831 52.2231 64.7831L52.4845 65.0473C52.4845 65.0473 52.4845 65.0473 52.4845 65.3114C52.4845 65.3114 52.4845 65.3114 52.4845 65.5755C52.4845 65.8396 52.4845 65.8397 52.4845 65.8397C52.4845 65.8397 52.4845 65.8396 52.4845 66.1038V66.3679C52.4845 66.3679 52.4845 66.632 52.7459 66.632C53.0072 66.632 53.0072 66.8962 53.2686 66.8962H53.53H53.7914H54.0528H54.3141C54.3141 66.8962 54.3141 66.8962 54.5755 66.8962H54.8369H55.0983H55.3597C55.6211 66.8962 55.6211 66.8962 55.6211 66.8962L55.8824 66.632C55.8824 66.632 55.8824 66.3679 56.1438 66.3679C56.4052 66.3679 56.4052 66.1038 56.6666 66.1038C56.928 66.1038 56.928 66.1038 56.928 66.1038C56.928 65.8396 57.1894 65.8397 57.1894 65.8397H57.4507H57.7121C57.7121 65.8397 57.7121 65.8397 57.9735 65.8397C57.9735 65.8397 57.9735 65.8397 58.2349 65.8397C58.2349 65.8397 58.2349 65.8397 58.4963 65.8397C58.4963 65.8397 58.4963 65.5755 58.7576 65.8397H59.019H59.2804C59.2804 65.8397 59.2804 65.8397 59.5418 65.8397C59.5418 65.8397 59.5418 65.8396 59.5418 66.1038C59.5418 66.1038 59.5418 65.8396 59.8032 66.1038H60.0646V66.3679C60.0646 66.3679 60.0646 66.3679 60.3259 66.3679C60.3259 66.3679 60.3259 66.3679 60.3259 66.632V66.8962V67.1603C60.3259 67.1603 60.5873 67.1603 60.5873 66.8962C60.5873 66.6321 60.5873 66.632 60.5873 66.632C60.5873 66.632 60.5873 66.6321 60.5873 66.8962V67.1603V66.8962V67.1603C60.5873 66.8962 60.5873 66.8962 60.8487 67.1603C60.8487 67.1603 60.8487 66.8962 60.8487 66.632C60.8487 66.632 60.8487 66.632 61.1101 66.632V66.3679V66.1038V65.8397C61.1101 65.8397 61.1101 65.8396 61.1101 65.5755H61.3715C61.3715 65.8396 61.3715 65.8397 61.3715 65.8397V66.1038C61.3715 66.1038 61.3715 65.8396 61.3715 65.5755C61.3715 65.3114 61.3715 65.3114 61.3715 65.3114C61.3715 65.3114 61.6328 65.3114 61.3715 65.5755C61.3715 65.5755 61.3715 65.5755 61.3715 65.8397C61.3715 65.5755 61.3715 65.5755 61.3715 65.3114C61.3715 65.3114 61.6328 65.3114 61.6328 65.5755L61.3715 65.3114V65.0473V64.7831V65.0473L61.6328 65.3114V65.0473C61.6328 64.7831 61.6328 64.7831 61.6328 64.7831C61.6328 64.7831 61.6328 64.7831 61.8942 64.7831V65.0473V65.3114V65.0473V64.7831C61.8942 64.7831 61.8942 64.519 61.8942 64.7831V64.519C61.8942 64.519 62.1556 64.519 62.1556 64.7831C62.1556 64.7831 62.1556 64.7831 62.417 64.7831V65.0473C62.417 65.0473 62.417 65.0473 62.417 64.7831V64.519C62.417 64.519 62.417 64.519 62.6784 64.519C62.6784 64.519 62.6784 64.519 62.6784 64.7831C62.6784 65.0473 62.6784 65.0473 62.6784 65.0473V64.7831C62.6784 64.7831 62.6784 64.7831 62.6784 64.519C62.6784 64.519 62.6784 64.519 62.417 64.519C62.417 64.519 62.417 64.519 62.6784 64.519C62.9398 64.519 62.6784 64.7831 62.9398 64.519V64.7831V65.0473C62.9398 65.0473 62.9398 65.0473 63.2011 64.7831V64.519C63.2011 64.519 63.2011 64.519 63.4625 64.519C63.4625 64.519 63.4625 64.519 63.4625 64.2549C63.4625 63.9907 63.4625 63.9907 63.7239 63.9907V64.2549C63.7239 64.519 63.7239 64.519 63.7239 64.519C63.7239 64.519 63.7239 64.519 63.7239 64.2549C63.7239 63.9907 63.7239 63.9907 63.7239 63.7266C63.7239 63.7266 63.7239 63.7266 63.7239 63.9907V64.2549C63.7239 64.2549 63.7239 64.2549 63.7239 63.9907V63.7266C63.7239 63.7266 63.7239 63.7266 63.9853 63.7266H64.2467C64.2467 63.4625 64.2467 63.4625 64.508 63.4625C64.7694 63.4625 64.7694 63.1983 65.0308 63.1983C65.0308 63.1983 65.0308 63.1983 65.2922 63.1983C65.2922 63.1983 65.2922 63.1983 65.5536 63.1983C65.5536 63.1983 65.5536 63.1983 65.815 63.1983C65.815 63.1983 65.815 63.1983 66.0763 63.1983C66.0763 63.1983 66.0763 63.1983 66.3377 63.1983H66.5991H66.8605V62.9342C66.8605 62.9342 67.1219 62.9342 67.1219 63.1983C67.1219 63.1983 67.1219 63.1983 67.3832 63.1983C67.6446 63.1983 67.6446 63.1983 67.6446 63.1983C67.6446 63.1983 67.6446 63.1983 67.906 63.1983C67.906 63.1983 67.906 63.1983 68.1674 63.1983L68.4288 62.9342C68.4288 62.9342 68.6902 62.9342 68.6902 63.1983C68.6902 63.1983 68.6902 63.1983 68.9515 63.1983C68.9515 63.1983 68.9515 63.1983 69.2129 63.1983C69.2129 63.1983 69.2129 62.9342 69.4743 62.9342C69.4743 62.9342 69.7357 62.9342 69.7357 63.1983C69.7357 63.1983 69.9971 63.1983 69.9971 62.9342C69.9971 62.9342 69.9971 62.9342 70.2585 62.9342H70.5198H70.7812C70.7812 62.9342 70.7812 62.9342 71.0426 63.1983V63.4625C71.0426 63.4625 71.0426 63.4625 71.0426 63.7266C71.0426 63.7266 71.0426 63.9907 71.304 63.9907C71.304 63.9907 71.304 64.2549 71.0426 64.2549C71.0426 64.519 71.0426 64.519 71.0426 64.519C71.0426 64.7831 71.0426 65.0473 70.7812 65.3114C70.7812 65.5755 70.7812 65.5755 70.5198 65.8397V66.1038C70.5198 66.1038 70.5198 66.1038 70.5198 66.3679C70.5198 66.3679 70.5198 66.6321 70.5198 66.8962C70.5198 67.1603 70.5198 67.1603 70.5198 67.4244V67.6886C70.5198 67.9527 70.5198 67.9527 70.5198 68.2168C70.5198 68.481 70.5198 68.481 70.5198 68.7451V69.0092C70.5198 69.2734 70.2585 69.5375 70.2585 69.5375C70.2585 69.5375 70.2585 69.8016 69.9971 69.8016C69.9971 69.8016 69.9971 69.8016 69.9971 70.0658C69.9971 70.3299 69.9971 70.3299 69.7357 70.594C69.7357 70.8582 69.7357 71.1223 69.4743 71.1223C69.4743 71.3864 69.4743 71.3864 69.2129 71.6506C69.2129 71.9147 68.9515 71.9147 68.9515 72.1788C68.9515 72.1788 68.9515 72.1788 68.9515 72.443C68.9515 72.443 68.6902 72.4429 68.6902 72.7071C68.6902 72.7071 68.6902 72.9712 68.4288 72.9712L68.1674 73.2353C68.1674 73.2353 68.1674 73.2354 68.1674 73.4995C67.906 73.7636 67.6446 74.0277 67.3832 74.2919L67.1219 74.556L66.8605 74.8201L66.5991 75.0843C66.5991 75.0843 66.5991 75.0843 66.3377 75.3484L66.0763 75.6125C66.0763 75.6125 66.0763 75.8767 65.815 75.8767C65.815 75.8767 65.815 76.1408 65.5536 76.1408L65.2922 76.6691L65.0308 76.9332C65.0308 76.9332 65.0308 77.1973 64.7694 77.1973C64.508 77.4615 64.5081 77.7256 64.2467 77.7256C63.9853 77.7256 63.9853 77.9897 63.7239 77.9897C63.4625 77.9897 63.2011 77.9897 62.9398 77.9897C62.6784 77.9897 62.417 77.9897 62.417 77.9897H62.1556C61.8942 77.9897 61.8942 77.9897 61.6328 77.9897H61.3715C61.1101 77.9897 61.1101 77.9897 60.8487 78.2539C60.5873 78.2539 60.5873 78.518 60.3259 78.518L60.0646 78.7821C59.8032 78.7821 59.8032 79.0463 59.5418 79.0463L59.2804 79.3104L59.019 79.5745C59.019 79.5745 59.019 79.5745 59.019 79.8386C59.019 80.1028 59.019 80.1028 58.7576 80.1028H58.4963C58.4963 80.1028 58.2349 80.1028 58.2349 80.3669H57.9735V80.631V80.8952V81.1593C57.9735 81.1593 57.9735 81.1593 57.7121 81.4234L57.4507 81.6876C57.4507 81.6876 57.7121 81.4234 57.9735 81.4234C57.9735 81.4234 58.2349 81.4234 58.2349 81.1593C58.4963 81.1593 58.7576 80.8952 59.2804 80.8952C59.2804 80.8952 59.2804 80.8952 59.2804 81.1593C59.019 81.4234 59.019 81.4234 58.7576 81.6876C58.7576 81.6876 58.7576 81.6876 58.7576 81.9517C59.019 81.9517 59.2804 81.6876 59.5418 81.6876H59.8032C60.0646 81.6876 60.3259 81.6876 60.3259 81.4234C60.3259 81.4234 60.5873 81.4234 60.3259 81.6876C60.3259 81.6876 60.3259 81.6876 60.0646 81.9517C60.0646 81.9517 60.0646 81.9517 60.0646 82.2158V82.48C60.0646 82.48 60.3259 82.48 60.3259 82.2158C60.5873 82.2158 60.8487 82.2158 61.1101 82.2158C61.3715 82.2158 61.3715 82.2158 61.6328 82.2158C61.6328 82.2158 61.8942 82.2158 61.8942 82.48L62.1556 82.7441H62.417C62.6784 82.7441 62.6784 82.7441 62.6784 82.7441H62.9398H63.2011H63.4625C63.4625 82.7441 63.7239 82.48 63.7239 82.7441H63.9853C63.9853 82.7441 63.9853 82.7441 64.2467 82.48C64.5081 82.48 64.508 82.48 64.7694 82.48C65.0308 82.48 65.2922 82.48 65.5536 82.48H65.815H66.5991C66.8605 82.48 67.1219 82.48 67.1219 82.48L67.3832 82.2158C67.3832 82.2158 67.6446 82.2158 67.6446 81.9517C67.6446 81.9517 67.906 81.9517 67.906 81.6876C67.906 81.6876 68.1674 81.6876 68.1674 81.4234V81.1593C68.1674 81.1593 68.1674 81.1593 68.4288 81.1593H68.6902C68.6902 81.1593 68.6902 80.8952 68.9515 81.1593L69.2129 80.8952C69.4743 80.631 69.2129 80.8952 69.4743 80.8952V80.631H69.7357C69.7357 80.631 69.7357 80.3669 69.9971 80.1028C69.9971 80.1028 69.9971 80.1028 70.2585 80.1028L70.5198 79.8386V80.1028V79.8386C70.5198 79.8386 70.7812 79.5745 70.7812 79.3104V79.5745L71.0426 79.3104H71.304C71.304 79.3104 71.304 79.3104 71.5654 79.3104C71.5654 79.3104 71.5654 79.3104 71.8267 79.3104L72.0881 79.0463L72.3495 78.7821C72.3495 78.7821 72.3495 78.7821 72.6109 78.7821L72.8723 78.518V78.2539H73.1337C73.1337 78.2539 73.395 78.2539 73.395 77.9897C73.395 77.9897 73.395 77.9897 73.395 77.7256H73.6564C73.6564 77.7256 73.6564 77.4615 73.9178 77.4615C73.9178 77.4615 73.9178 77.4615 74.1792 77.4615V77.1973C74.4406 77.1973 74.4406 77.1973 74.4406 76.9332C74.4406 76.9332 74.4406 76.9332 74.702 76.9332H74.9633C74.9633 76.9332 74.9633 76.9332 74.9633 76.6691C74.9633 76.6691 74.9633 76.6691 75.2247 76.6691C75.4861 76.6691 75.4861 76.6691 75.4861 76.4049C75.4861 76.4049 75.4861 76.1408 75.7475 76.1408C75.7475 76.1408 75.7475 76.1408 76.0089 76.1408C76.2702 76.1408 76.2702 76.1408 76.2702 76.1408C76.2702 76.1408 76.2702 75.8767 76.5316 76.1408C76.5316 76.1408 76.5316 76.1408 76.5316 75.8767H76.793V75.6125C77.0544 75.3484 77.0544 75.3484 77.3158 75.3484C77.3158 75.3484 77.3158 75.3484 77.3158 75.0843V74.8201C77.5772 74.8201 77.5771 74.8201 77.5771 74.556C77.5771 74.556 77.5771 74.556 77.5771 74.2919C77.8385 74.2919 77.8385 74.0277 77.8385 74.0277C77.8385 74.0277 78.0999 74.0277 77.8385 74.0277V73.7636C77.8385 73.4995 77.8385 73.4995 77.8385 73.4995V73.2353C77.8385 73.2353 77.8385 73.2353 78.0999 73.2353C78.0999 73.2353 78.0999 73.2354 78.0999 72.9712C78.0999 72.9712 78.3613 72.9712 78.3613 72.7071C78.3613 72.7071 78.3613 72.7071 78.3613 72.443C78.6227 72.1788 78.8841 71.9147 78.8841 71.6506C78.8841 71.6506 78.8841 71.3864 79.1454 71.3864C79.1454 71.3864 79.1454 71.3864 79.4068 71.1223C79.4068 70.8582 79.4068 70.8582 79.6682 70.8582C79.6682 70.8582 79.6682 70.594 79.9296 70.594C79.9296 70.594 79.9296 70.594 80.191 70.594C80.191 70.3299 80.191 70.3299 80.4524 70.3299C80.7137 70.3299 80.7137 70.0658 80.9751 69.8016C81.2365 69.8016 81.4979 70.0658 81.4979 70.3299C81.4979 70.3299 81.7593 70.3299 81.7593 70.594C81.7593 70.594 81.7593 70.594 81.7593 70.8582C81.7593 70.8582 81.7593 70.8582 82.0206 70.8582V71.1223C82.0206 71.1223 82.0206 71.3864 82.282 71.3864H82.5434C82.5434 71.3864 82.5434 71.3864 82.5434 71.6506L82.8048 71.9147C82.8048 72.1788 83.0662 72.1788 83.0662 72.1788H83.3276L83.5889 72.443L83.8503 72.7071V72.9712C83.8503 72.9712 84.1117 72.9712 84.1117 73.2353C84.1117 73.2353 84.1117 73.2354 84.1117 73.4995C84.1117 73.4995 84.1117 73.4995 84.3731 73.4995H84.6345C84.8958 73.4995 84.8958 73.7636 85.1572 73.7636L85.4186 74.0277L85.68 74.2919C85.9414 74.556 86.2028 74.8201 86.2028 75.0843C86.2028 75.0843 86.4641 75.3484 86.4641 75.0843C86.4641 75.0843 86.2028 75.0843 86.4641 75.0843C86.7255 75.3484 86.7255 75.3484 86.9869 75.3484C86.9869 75.3484 87.2483 75.3484 87.2483 75.6125C87.2483 75.6125 87.5097 75.8767 87.5097 76.1408C87.5097 76.4049 87.5097 76.6691 87.5097 76.9332H87.2483C86.9869 76.9332 86.9869 76.9332 86.7255 76.9332C86.4641 76.9332 86.4641 76.9332 86.2028 76.9332C85.9414 76.9332 85.9414 76.9332 85.9414 76.9332H85.68H85.4186C85.4186 76.9332 85.1572 76.9332 84.8958 76.9332C84.8958 76.9332 84.6345 76.9332 84.6345 77.1973H84.3731L84.1117 77.4615C83.8503 77.7256 83.8503 77.9897 83.5889 78.2539C83.3275 78.518 83.3276 78.518 83.0662 78.7821L82.8048 79.0463H83.0662C83.3276 79.0463 83.3275 78.7821 83.5889 78.7821C83.3275 79.0463 83.3276 79.0462 83.0662 79.3104L82.8048 79.5745C83.0662 79.3104 83.3275 79.3104 83.5889 79.3104H83.8503C83.8503 79.3104 83.8503 79.3104 83.8503 79.5745C83.5889 79.5745 83.3276 79.8386 83.3276 79.8386C83.5889 79.8386 83.5889 79.8386 83.8503 79.5745C83.8503 79.5745 83.8503 79.5745 84.1117 79.5745C84.1117 79.5745 84.1117 79.5745 84.1117 79.3104C84.1117 79.3104 84.1117 79.0462 84.1117 79.3104C84.1117 79.3104 84.1117 79.3104 84.3731 79.3104C84.6345 79.3104 84.8958 79.0462 85.4186 79.3104C85.4186 79.3104 85.68 79.3104 85.9414 79.3104C86.2028 79.3104 86.2028 79.3104 86.4641 79.3104C86.7255 79.3104 86.7255 79.3104 86.9869 79.3104C87.2483 79.3104 87.2483 79.3104 87.5097 79.3104C87.771 79.3104 87.771 79.3104 88.0324 79.0463H88.2938C88.5552 79.0463 88.5552 79.0463 88.5552 79.0463H88.8166C88.8166 79.0463 88.8166 79.0463 89.078 79.0463H89.3393H89.6007H89.8621C90.1235 79.0463 90.1235 79.0463 90.1235 79.0463C90.1235 79.0463 90.1235 79.0463 90.3849 79.0463H90.6462C90.6462 79.0463 90.6463 78.7821 90.9076 78.7821H91.169C91.169 78.7821 91.169 78.518 91.169 78.7821H91.4304C91.4304 78.7821 91.6918 78.7821 91.6918 78.518C91.6918 78.518 91.6918 78.518 91.9532 78.518C91.9532 78.518 92.2145 78.518 92.4759 78.2539H92.7373C92.7373 78.2539 92.7373 78.2539 92.9987 77.9897C92.9987 77.9897 92.9987 77.9897 92.9987 77.7256V77.4615C92.9987 77.4615 93.2601 77.4615 92.9987 77.4615C92.9987 77.1973 92.9987 77.1973 93.2601 76.9332C93.2601 76.6691 93.2601 76.4049 93.2601 76.4049C93.2601 76.4049 93.2601 76.4049 93.5215 76.4049C93.5215 76.4049 93.5215 76.4049 93.5215 76.1408C93.5215 75.8767 93.5215 75.8767 93.5215 75.8767C93.5215 75.8767 93.5215 75.8767 93.5215 75.6125C93.5215 75.6125 93.5215 75.6125 93.7828 75.6125V75.3484C93.7828 75.3484 93.7828 75.0843 94.0442 75.0843C94.0442 75.0843 94.0442 75.0843 94.3056 75.0843C94.3056 75.0843 94.3056 75.0843 94.3056 74.8201V74.556C94.3056 74.2919 94.567 74.2919 94.567 74.2919C94.567 74.2919 94.567 74.2919 94.8284 74.2919V74.0277V73.7636C94.8284 73.7636 94.8284 73.7636 94.8284 73.4995C94.8284 73.4995 94.8284 73.4995 94.8284 73.2353C94.8284 73.2353 94.8284 73.2354 94.8284 72.9712V72.7071C94.8284 72.4429 94.8284 72.443 94.567 72.443L94.3056 72.1788V71.9147C94.3056 71.9147 94.3056 71.9147 94.3056 71.6506V71.3864C94.3056 71.3864 94.3056 71.1223 94.0442 71.1223C94.0442 70.8582 93.7828 70.8582 93.7828 70.594V70.3299V70.0658L93.5215 69.8016V69.5375V69.2734C93.5215 69.0092 93.5215 69.0092 93.2601 68.7451L92.9987 68.481C92.9987 68.481 92.9987 68.481 92.9987 68.2168C92.9987 68.2168 92.9987 68.2168 92.9987 67.9527C92.9987 67.6886 92.9987 67.6886 92.7373 67.4244C92.7373 67.4244 92.7373 67.4244 92.7373 67.1603V66.8962V67.1603C92.7373 67.1603 92.7373 67.1603 92.9987 67.1603H93.2601C93.2601 67.1603 93.2601 67.1603 93.7828 67.1603C94.0442 67.1603 94.0442 67.1603 94.0442 67.1603H94.3056H94.567C94.8284 67.1603 94.8284 67.1603 94.8284 67.1603H95.0897C95.0897 67.1603 95.0897 67.1603 95.0897 66.8962C95.0897 66.8962 95.0897 66.8962 95.3511 66.8962H95.6125C95.6125 66.8962 95.6125 67.1603 95.6125 66.8962C95.6125 66.8962 95.6125 66.8962 95.8739 66.8962C95.8739 66.8962 96.1353 66.8962 96.1353 67.1603H96.3967H96.658C96.658 67.1603 96.658 67.1603 96.9194 67.1603L97.1808 66.8962V67.1603V67.4244C97.1808 67.4244 97.1808 67.4244 97.4422 67.1603L97.7036 66.8962V67.1603V66.8962C97.7036 66.6321 97.7036 66.632 97.9649 66.632C97.9649 66.632 97.965 66.632 98.2263 66.632V66.8962H98.4877C98.4877 66.8962 98.4877 66.632 98.7491 66.632C98.7491 66.632 98.7491 66.6321 98.7491 66.8962V67.1603C98.7491 67.1603 99.0105 67.1603 99.0105 66.8962C99.0105 66.6321 99.2719 66.632 99.5332 66.632H99.7946C99.7946 66.632 100.056 66.6321 100.056 66.8962C100.056 66.8962 100.056 66.8962 100.056 67.1603C100.056 67.4244 100.056 67.6886 100.056 67.6886V67.9527C100.056 67.9527 100.056 67.9527 99.7946 67.9527V68.2168V68.481C99.7946 68.481 99.7946 68.481 100.056 68.481C100.056 68.481 100.317 68.481 100.056 68.481C100.056 68.7451 100.056 68.7451 100.056 69.0092C100.056 69.0092 100.056 69.0092 100.056 69.2734C100.056 69.2734 100.056 69.2734 100.056 69.5375C100.056 69.8016 100.056 69.8016 100.317 70.0658C100.317 70.0658 100.317 70.0658 100.317 70.3299V70.594C100.317 70.594 100.317 70.594 100.317 70.8582C100.317 70.8582 100.317 71.1223 100.317 71.3864V71.6506C100.317 71.9147 100.317 71.9147 100.317 71.9147V72.1788C100.317 72.443 100.317 72.4429 100.317 72.7071C100.317 72.7071 100.317 72.7071 100.317 72.9712V73.2353C100.317 73.2353 100.317 73.2354 100.317 73.4995C100.317 73.7636 100.317 73.7636 100.317 73.7636C100.317 73.7636 100.317 73.7636 100.317 74.0277V74.2919C100.317 74.2919 100.317 74.2919 100.317 74.556C100.317 74.556 100.317 74.556 100.317 74.8201V75.0843C100.317 75.0843 100.317 75.0843 100.317 75.3484C100.317 75.6125 100.317 75.6125 100.317 75.6125C100.317 75.6125 100.317 75.6125 100.317 75.8767C100.317 75.8767 100.317 75.8767 100.056 75.8767H99.7946H99.5332C99.5332 75.8767 99.2719 75.8767 98.7491 75.8767C98.7491 75.8767 98.4877 75.8767 98.2263 75.8767C97.965 75.8767 97.4422 75.8767 97.1808 75.8767C97.1808 75.8767 97.1808 75.8767 96.9194 75.8767H96.658C96.3967 75.8767 96.1353 75.8767 96.1353 75.8767C95.8739 75.8767 95.6125 76.1408 95.6125 76.1408C95.6125 76.1408 95.3511 76.1408 95.3511 76.4049H95.0897C94.8284 76.6691 94.3056 76.6691 94.0442 77.1973C93.7828 77.1973 93.7828 77.1973 93.7828 77.4615V77.7256V77.9897C93.7828 77.7256 94.0442 77.7256 94.0442 77.4615V77.7256C94.0442 77.7256 94.0442 77.9897 93.7828 77.9897L93.5215 78.2539L93.7828 77.9897C94.0442 77.7256 94.3056 77.7256 94.3056 77.7256C94.3056 77.9897 94.0442 77.9897 94.0442 78.2539C94.0442 78.2539 94.0442 78.2539 94.3056 78.2539C94.3056 78.2539 94.567 78.2539 94.567 77.9897C94.8284 77.9897 94.8284 77.7256 94.8284 77.4615C94.8284 77.4615 95.0897 77.4615 95.0897 77.7256C95.0897 77.9897 95.0897 77.9897 94.8284 78.2539C94.8284 78.2539 94.8284 78.2539 95.0897 78.2539C95.3511 78.2539 95.3511 77.9897 95.3511 77.9897C95.6125 77.9897 95.6125 77.9897 95.8739 78.2539L95.6125 78.518C95.6125 78.518 95.6125 78.518 95.8739 78.518C95.8739 78.518 95.8739 78.518 95.8739 78.2539C95.8739 78.2539 95.8739 78.2539 96.1353 78.2539C96.1353 78.2539 96.3967 78.2539 96.658 78.2539C96.658 78.2539 96.658 78.2539 96.9194 78.2539C96.9194 78.2539 97.1808 78.2539 97.1808 78.518C97.1808 78.518 97.1808 78.518 97.4422 78.518H97.7036H97.9649C98.2263 78.518 98.2263 78.2539 98.4877 78.518C99.7946 78.518 98.7491 77.9897 100.056 78.518C100.056 78.518 100.056 78.518 100.056 78.2539C100.056 78.2539 100.056 78.2539 100.317 78.2539C100.317 78.2539 100.317 78.2539 100.579 78.2539H100.84C101.102 78.2539 101.102 78.2539 101.363 78.2539H101.624C101.886 78.2539 101.886 78.2539 101.886 78.2539H102.147C102.408 78.2539 102.408 78.2539 102.67 78.2539H102.931H103.193H103.454C103.454 78.2539 103.715 78.2539 103.977 78.2539H104.238H104.499H104.761C104.761 78.2539 104.761 78.2539 105.022 78.2539H105.284H105.545H105.806C105.806 78.2539 105.806 78.2539 106.068 78.2539H106.329C106.068 78.2539 106.068 78.2539 106.329 77.7256C106.329 77.7256 106.329 77.4615 106.591 77.1973C106.591 77.1973 106.591 76.9332 106.852 76.9332C106.852 76.9332 106.852 76.9332 106.852 76.6691C106.852 76.6691 106.852 76.4049 107.113 76.4049C107.113 76.4049 107.113 76.4049 107.113 76.1408L107.375 75.8767C107.375 75.8767 107.636 75.8767 107.636 75.6125C107.636 75.6125 107.636 75.3484 107.897 75.3484L108.159 75.0843H108.42V74.8201C108.42 74.556 108.42 74.556 108.682 74.2919C108.682 74.2919 108.682 74.0277 108.943 74.0277C108.943 74.0277 108.943 74.0277 109.204 74.0277C109.204 74.0277 109.204 74.0277 109.204 73.7636C109.204 73.7636 109.204 73.7636 109.204 73.4995C109.204 73.4995 109.204 73.4995 109.204 73.2353C109.204 73.2353 109.466 73.2354 109.466 72.9712C109.466 72.9712 109.466 72.9712 109.727 72.7071C109.727 72.7071 109.727 72.7071 109.989 72.443L110.25 72.1788L110.511 72.443C110.511 72.443 110.511 72.443 110.511 72.1788C110.511 72.1788 110.511 72.1788 110.511 71.9147V71.6506C110.511 71.6506 110.773 71.3864 110.773 71.6506V71.3864C110.773 71.3864 110.773 71.3864 111.034 71.3864L111.295 71.1223V70.8582C111.295 70.8582 111.295 70.8582 111.557 70.594H111.818C111.818 70.3299 111.818 70.3299 112.08 70.3299C112.08 70.3299 112.341 70.3299 112.341 70.0658L112.602 69.8016V69.5375H112.864C112.864 69.5375 112.864 69.2734 113.125 69.5375H113.386C113.648 69.5375 113.648 69.5375 113.909 69.2734C113.909 69.2734 113.909 69.2734 114.171 69.0092C114.432 68.7451 114.432 69.0092 114.432 68.7451C114.432 68.481 114.693 68.481 114.693 68.481C114.693 68.481 114.693 68.2168 114.955 68.2168H115.216C115.216 68.2168 115.216 68.2168 115.216 67.9527C115.216 67.6886 115.216 67.6886 115.216 67.6886C115.216 67.6886 115.216 67.6886 115.478 67.6886H115.739C115.739 67.6886 116 67.6886 116 67.4244C116 67.4244 116 67.4244 116.262 67.4244C116.523 67.4244 116.523 67.4244 116.523 67.6886V67.9527C116.523 67.9527 116.523 67.9527 116.523 68.2168C116.523 68.2168 116.523 68.2168 116.523 68.481C116.523 68.481 116.523 68.481 116.523 68.7451C116.523 68.7451 116.523 68.7451 116.523 69.0092V69.2734C116.523 69.2734 116.784 69.0092 116.784 69.2734V69.5375V69.8016C117.046 69.8016 117.046 69.8016 117.046 70.0658C117.046 70.0658 117.046 70.0658 117.046 70.3299C117.046 70.3299 117.046 70.594 117.307 70.594V70.8582H117.569C117.569 70.8582 117.569 71.1223 117.83 71.1223V71.3864C117.83 71.3864 118.091 71.3864 118.091 71.6506H118.353H118.614C118.614 71.6506 118.614 71.6506 118.614 71.9147C118.876 71.9147 118.876 72.1788 119.137 71.9147C119.137 71.9147 119.398 71.9147 119.398 72.1788H119.66C119.66 72.1788 119.921 72.1788 119.921 72.443C119.921 72.443 119.921 72.443 120.182 72.443C120.444 72.443 120.444 72.443 120.705 72.443C120.705 72.443 120.705 72.443 120.967 72.443H121.228C121.228 72.443 121.228 72.443 121.489 72.443C121.751 72.443 121.751 72.443 121.751 72.443H122.012H122.273H122.535C122.535 72.443 122.535 72.443 122.796 72.443C122.796 72.443 122.796 72.443 123.058 72.443C123.058 72.443 123.058 72.443 123.319 72.443C123.58 72.443 123.842 72.4429 124.103 72.7071C124.103 72.7071 124.103 72.9712 124.365 72.9712V73.2353C124.365 73.2353 124.365 73.4995 124.365 73.2353V73.4995V73.7636L124.103 74.0277C124.103 74.0277 124.103 74.0277 123.842 74.0277C123.842 74.0277 123.842 74.0277 123.58 74.0277C123.58 74.0277 123.58 74.0277 123.319 74.0277C123.058 74.0277 123.058 74.0277 122.796 74.0277H122.535H122.273H122.012H121.751C121.751 74.0277 121.751 74.0277 121.489 74.0277C121.489 74.0277 121.228 74.0277 121.228 74.2919C121.228 74.2919 121.228 74.2919 120.967 74.2919C120.705 74.2919 120.705 74.2919 120.705 74.556C120.705 74.556 120.705 74.556 120.444 74.556C120.444 74.556 122.012 72.9712 120.182 74.556C120.182 74.556 120.182 74.556 119.921 74.8201L119.66 75.0843C119.66 75.0843 119.398 75.3484 119.137 75.6125C119.137 75.8767 118.876 75.8767 118.876 76.1408C118.876 76.1408 119.137 76.1408 119.137 75.8767C119.398 75.8767 119.398 75.6125 119.66 75.6125C119.66 75.6125 119.66 75.6125 119.66 75.8767C119.398 76.1408 119.398 76.1408 119.398 76.1408C119.137 76.1408 119.398 76.4049 119.137 76.4049C119.137 76.4049 119.137 76.4049 119.398 76.4049C119.66 76.4049 119.66 76.1408 119.921 76.1408C119.921 76.1408 119.921 76.1408 120.182 76.1408C120.182 76.1408 120.182 76.1408 120.444 76.1408C120.444 76.1408 120.444 76.4049 120.182 76.4049C119.921 76.4049 119.921 76.6691 119.66 76.6691C119.66 76.6691 119.66 76.6691 119.921 76.6691C119.921 76.6691 119.921 76.6691 120.444 76.4049C120.705 76.4049 120.705 76.4049 120.705 76.4049C120.705 76.4049 120.967 76.4049 121.228 76.4049C121.489 76.4049 121.489 76.4049 121.489 76.4049C121.751 76.4049 122.012 76.4049 122.012 76.4049C122.012 76.4049 122.012 76.4049 122.273 76.4049H122.535C122.535 76.4049 122.535 76.4049 123.058 76.4049C123.319 76.4049 123.58 76.4049 123.58 76.4049C123.58 76.4049 123.58 76.4049 123.842 76.4049H124.103H124.887C124.887 76.4049 125.149 76.4049 125.41 76.4049C125.671 76.4049 125.671 76.4049 125.671 76.4049H125.933C126.194 76.4049 126.194 76.4049 126.194 76.4049V76.1408V76.4049C126.194 76.4049 126.194 76.4049 126.456 76.4049C126.456 76.4049 126.456 76.4049 126.717 76.4049C126.717 76.4049 126.717 76.4049 126.978 76.1408H127.24C127.24 76.1408 127.24 76.1408 127.501 75.8767L127.762 75.6125C127.762 75.6125 127.762 75.6125 128.024 75.3484H128.285L128.547 75.0843H128.808C129.069 75.0843 129.069 74.8201 129.331 74.8201C129.331 74.8201 129.592 74.8201 129.592 74.556C129.592 74.556 129.592 74.556 129.854 74.556C129.854 74.556 130.115 74.556 130.115 74.2919L130.376 74.0277H130.638V73.7636C130.638 73.7636 130.638 73.7636 130.638 73.4995C130.376 78.7821 130.638 78.7821 130.638 78.518C130.638 78.7821 130.638 78.518 130.638 78.518Z" fill="#7F6644"/>
<path d="M130.376 77.4614C130.376 77.1973 130.376 77.1973 130.376 77.4614C130.376 77.1973 130.376 77.1973 130.376 76.9332C130.376 76.9332 130.376 76.9332 130.376 76.669C130.376 76.669 130.376 76.669 130.376 76.4049V76.1408C130.376 75.8767 130.376 75.8767 130.115 75.6125C130.115 75.6125 130.115 75.6125 129.854 75.3484L129.592 75.0843C129.592 75.0843 129.592 75.0843 129.592 74.8201C129.592 74.8201 129.592 74.8201 129.592 74.556C129.592 74.556 129.592 74.2919 129.331 74.2919C129.331 74.2919 129.331 74.2919 129.331 74.0277C129.331 74.0277 129.331 74.0277 129.069 73.7636C129.069 73.7636 128.808 73.7636 128.808 73.4995L128.547 73.2353C128.547 73.2353 128.547 72.9712 128.285 72.9712C128.285 72.9712 128.285 72.9712 128.024 72.9712C128.024 72.9712 128.024 72.7071 127.762 72.7071C127.762 72.7071 127.762 72.7071 127.762 72.4429V72.1788C127.762 72.1788 127.762 72.1788 127.762 71.9147V71.6505V71.3864C127.762 71.3864 127.762 71.3864 127.762 71.1223C127.762 71.1223 127.762 71.1223 127.762 70.8582V70.594C127.762 70.594 127.762 70.3299 127.501 70.0658V69.8016V69.5375C127.501 69.5375 127.501 69.5375 127.501 69.2734C127.501 69.2734 127.501 69.0092 127.24 69.0092C127.24 69.0092 127.24 69.0092 127.24 68.7451C127.24 68.7451 127.24 68.7451 127.24 68.481V68.2168V67.9527C127.24 67.6886 127.24 67.6886 127.24 67.4244C127.24 67.1603 127.24 67.1603 127.24 66.8962V66.632V66.3679C127.24 66.1038 127.24 66.1038 127.24 65.8396C127.24 65.5755 127.24 65.5755 127.24 65.3114V65.0473V64.7831C127.24 64.519 127.24 64.2549 127.24 63.9907C127.24 63.7266 127.24 63.7266 127.24 63.4625C127.24 63.1983 127.24 63.1983 127.24 62.9342C127.24 62.6701 126.978 62.6701 126.978 62.4059C126.978 62.1418 126.978 62.1418 126.978 62.1418V61.8777V61.6135C126.978 61.3494 126.978 61.3494 126.978 61.0853C126.978 60.8211 126.978 60.8211 126.717 60.557V60.2929C126.717 60.0287 126.717 60.0288 126.717 59.7646L126.456 59.5005C126.456 59.5005 126.456 59.2364 126.194 59.2364C126.194 59.2364 126.194 59.2364 126.194 58.9722V58.7081C126.194 58.444 125.933 58.1798 125.933 57.9157V57.6516C125.933 57.3874 125.933 57.3874 125.933 57.3874V57.1233V56.8592C125.933 56.8592 125.933 56.595 125.671 56.595V56.3309H125.933C126.194 56.0668 126.194 56.0668 126.194 55.8026C126.194 55.5385 126.194 55.5385 126.194 55.2744V55.0102C126.194 55.0102 126.194 55.0102 126.194 54.7461C126.194 54.482 125.933 54.482 125.933 54.2179V53.9537V53.6896V53.4255V53.1613L125.671 52.8972C125.671 52.8972 125.671 52.8972 125.671 52.6331C125.671 52.6331 125.671 52.3689 125.41 52.3689C125.41 52.1048 125.41 51.8407 125.149 51.8407L124.887 51.5765C124.887 51.5765 124.887 51.3124 124.626 51.3124C124.626 51.3124 124.626 51.3124 124.365 51.3124C124.365 51.3124 124.365 51.3124 124.365 51.0483C124.365 51.0483 124.364 50.7841 124.103 50.7841C124.103 50.52 123.842 50.52 123.58 50.2559C123.58 50.2559 123.58 49.9917 123.319 49.9917C123.319 49.7276 123.058 49.4635 122.796 49.4635L122.535 49.1994C122.535 49.1994 122.535 48.9352 122.273 48.9352C122.273 48.9352 122.273 48.9352 122.012 48.9352C122.012 48.6711 121.751 48.407 121.489 48.407C121.489 48.407 121.489 48.407 121.489 48.1428C121.489 48.1428 121.489 47.8787 121.228 47.8787L120.967 47.6146C120.705 47.6146 120.705 47.3504 120.705 47.3504L120.444 47.0863C120.444 47.0863 120.444 47.0863 120.182 47.0863C120.182 47.0863 120.182 47.0863 120.182 46.8222C120.182 46.8222 120.182 46.558 119.921 46.558C119.921 46.558 119.921 46.2939 119.66 46.2939C119.66 46.2939 119.66 46.2939 119.398 46.2939C119.137 46.0298 118.875 46.0298 118.875 45.5015C118.614 45.5015 118.353 45.2374 118.353 45.2374C118.353 45.2374 118.353 45.2374 118.091 45.2374C118.091 45.2374 117.83 45.2374 117.83 44.9732C117.569 44.9732 117.569 44.7091 117.307 44.7091C117.307 44.7091 117.307 44.445 117.046 44.445C116.784 44.445 116.784 44.445 116.784 44.1808C116.523 43.9167 116.262 43.9167 116 43.6526C116 43.6526 116 43.6526 115.739 43.6526H115.478C115.478 43.6526 115.478 43.6526 115.216 43.6526C114.955 43.6526 114.955 43.3885 114.693 43.3885H114.432C114.432 43.3885 114.432 43.3885 114.171 43.3885H113.909C113.909 43.3885 113.909 43.3885 113.648 43.3885C113.648 43.3885 113.386 43.3885 113.125 43.3885L112.864 43.1243C112.602 43.1243 112.602 42.8602 112.341 42.8602C112.08 42.8602 112.08 42.8602 111.818 42.8602H111.557H111.295C111.295 42.8602 111.295 42.8602 111.034 42.8602C110.773 42.8602 110.773 42.8602 110.773 42.8602H110.511L110.25 42.5961H109.988H109.727C109.466 42.5961 109.466 42.5961 109.204 42.5961C108.943 42.5961 108.682 42.5961 108.682 42.5961H108.42H108.159C108.159 42.5961 108.159 42.5961 107.897 42.5961H107.636C107.375 42.5961 107.375 42.5961 107.375 42.5961C107.113 42.5961 106.591 42.3319 106.329 42.3319H106.068C106.068 42.3319 106.068 42.3319 105.806 42.3319H105.545C105.545 42.3319 105.545 42.3319 105.284 42.3319H104.499C104.238 42.3319 104.238 42.3319 103.977 42.3319C103.715 42.3319 103.715 42.3319 103.454 42.3319C103.193 42.3319 103.193 42.3319 103.193 42.3319C103.193 42.3319 102.67 42.3319 102.408 42.3319H102.147C101.886 42.3319 101.886 42.3319 101.624 42.3319C101.363 42.3319 101.363 42.3319 101.101 42.3319C100.84 42.3319 100.579 42.3319 100.579 42.3319H100.317H100.056H99.7946H99.2718C99.0104 42.3319 99.0104 42.3319 99.0104 42.3319H98.7491C98.7491 42.3319 98.2263 42.5961 97.9649 42.5961H97.7035C97.4422 42.5961 97.4421 42.5961 97.1808 42.5961C96.9194 42.5961 96.9194 42.5961 96.658 42.5961C96.3966 42.5961 96.1352 42.5961 96.1352 42.5961H95.8739H95.6125H95.3511C95.3511 42.5961 95.0897 42.5961 94.8283 42.5961C94.567 42.5961 94.3056 42.5961 94.3056 42.5961H94.0442H93.7828C93.7828 42.5961 93.7828 42.5961 93.5214 42.5961C93.26 42.5961 93.26 42.5961 92.9987 42.5961C92.7373 42.5961 92.7373 42.5961 92.4759 42.5961C92.2145 42.5961 92.2145 42.5961 92.2145 42.5961C91.9531 42.5961 91.6917 42.5961 91.6917 42.5961C91.4304 42.5961 91.4304 42.5961 91.4304 42.5961C91.169 42.5961 90.6462 42.5961 90.3848 42.5961H90.1234C89.8621 42.5961 89.8621 42.5961 89.6007 42.5961C89.6007 42.5961 89.6007 42.5961 89.3393 42.5961H89.0779C89.0779 42.5961 89.0779 42.5961 88.8165 42.5961C88.5552 42.5961 88.5552 42.5961 88.2938 42.3319C88.0324 42.3319 87.771 42.0678 87.5096 42.0678C87.2482 42.0678 87.2483 41.8037 86.9869 41.8037C86.7255 41.8037 86.7255 41.8037 86.7255 41.5395H86.4641C86.4641 41.5395 86.2027 41.5395 86.4641 41.2754C86.4641 41.2754 86.4641 41.2754 86.2027 41.2754C85.9413 41.2754 85.9413 41.2754 85.9413 41.0113C85.68 41.0113 85.68 40.7471 85.4186 40.7471H85.1572C85.1572 40.7471 85.1572 40.7471 85.1572 40.483H84.8958C84.8958 40.483 84.8958 40.483 84.6344 40.483C84.373 40.483 84.3731 40.483 84.3731 40.483H84.1117H83.8503C83.8503 40.483 83.8503 40.483 83.8503 40.2189C83.5889 40.2189 83.3275 40.2189 83.0661 40.2189C82.8048 40.2189 82.8048 40.2189 82.8048 39.9547C82.8048 39.6906 82.8048 39.6906 82.8048 39.6906C82.8048 39.6906 82.8048 39.9547 82.5434 39.6906C82.5434 39.6906 82.282 39.6906 82.282 39.4265H82.0206C81.7592 39.4265 81.7592 39.4265 81.4978 39.4265C81.4978 39.4265 81.4978 39.4265 81.2365 39.4265C80.9751 39.4265 80.9751 39.1623 80.9751 39.4265H80.7137C80.4523 39.4265 80.7137 39.4265 80.4523 39.4265C80.4523 39.4265 80.1909 39.6906 80.1909 39.4265C79.9296 39.4265 79.6682 39.4265 79.4068 39.4265C79.1454 39.4265 78.884 39.4265 78.884 39.4265C78.884 39.4265 78.884 39.4265 78.6226 39.6906H78.3613H78.0999C78.0999 39.6906 77.8385 39.6906 77.5771 39.6906C77.5771 39.6906 77.5771 39.6906 77.3157 39.6906C77.0544 39.6906 77.0543 39.9547 76.793 39.9547H76.5316H76.2702C76.2702 39.9547 76.2702 40.2189 76.0088 39.9547C75.7474 39.9547 75.7474 39.9547 75.7474 39.9547C75.4861 39.9547 75.4861 39.9547 75.2247 40.2189C75.2247 40.2189 75.2247 40.2189 74.9633 40.2189C74.7019 40.2189 74.9633 40.2189 74.7019 40.2189H74.4405H74.1791H73.9178C73.9178 40.2189 73.6564 40.2189 73.6564 40.483H73.395C73.1336 40.483 73.1336 40.483 72.8722 40.7471C72.8722 40.7471 72.6109 40.7471 72.6109 41.0113C72.3495 41.2754 71.8267 41.2754 71.5653 41.5395H71.3039C71.3039 41.5395 71.3039 41.5395 71.0426 41.5395C71.0426 41.5395 71.0426 41.8037 70.7812 41.8037L70.5198 42.0678C70.5198 42.0678 70.5198 42.0678 70.2584 42.0678H69.997C69.997 42.0678 69.997 42.3319 69.7357 42.3319H69.4743H69.2129H68.9515C68.9515 42.3319 68.9515 42.3319 68.6901 42.3319H68.4287C68.1674 42.5961 68.1674 42.5961 67.906 42.8602C67.906 42.8602 67.906 42.8602 67.6446 42.8602C67.3832 42.8602 67.3832 42.8602 67.1218 43.1243C67.1218 43.1243 67.1218 43.1243 66.8605 43.1243C66.5991 43.1243 66.5991 43.1243 66.5991 43.1243H66.3377H66.0763C66.0763 43.1243 66.0763 43.1243 65.8149 43.1243C65.8149 43.1243 65.8149 43.1243 65.5535 43.3885H65.2922C65.2922 43.3885 65.0308 43.3885 65.0308 43.6526L64.7694 43.9167H64.508C64.508 43.9167 64.2466 43.9167 64.2466 44.1808C63.9853 44.445 63.7239 44.445 63.4625 44.445C63.2011 44.445 63.2011 44.7091 62.9397 44.7091C62.9397 44.7091 62.6783 44.7091 62.9397 44.7091C62.9397 44.7091 62.9397 44.7091 62.6783 44.7091H62.417C62.1556 44.9732 62.1556 44.9732 61.8942 45.2374C61.8942 45.2374 61.8942 45.2374 61.6328 45.2374L94.5669 73.4995V73.2353C94.5669 73.2353 94.567 73.2353 94.8283 73.2353V72.9712V72.7071C94.8283 72.7071 94.8283 72.7071 94.8283 72.4429C94.8283 72.4429 94.8283 72.4429 94.8283 72.1788C94.8283 72.1788 94.8283 72.1788 94.8283 71.9147V71.6505C94.8283 71.3864 94.8283 71.3864 94.5669 71.3864L94.3056 71.1223V70.8582C94.3056 70.8582 94.3056 70.8581 94.3056 70.594V70.3299C94.3056 70.3299 94.3056 70.0658 94.0442 70.0658C94.0442 69.8016 93.7828 69.8016 93.7828 69.5375V69.2734V69.0092L93.5214 68.7451V68.481V68.2168C93.5214 67.9527 93.5214 67.9527 93.26 67.6886L92.9987 67.4244C92.9987 67.4244 92.9987 67.4244 92.9987 67.1603C92.9987 67.1603 92.9987 67.1603 92.9987 66.8962C92.9987 66.632 92.9986 66.632 92.7373 66.3679C92.7373 66.3679 92.7373 66.3679 92.7373 66.1038V65.8396V66.1038C92.7373 66.1038 92.7373 66.1038 92.9987 66.1038H93.26C93.26 66.1038 93.26 66.1038 93.7828 66.1038C94.0442 66.1038 94.0442 66.1038 94.0442 66.1038H94.3056H94.5669C94.8283 66.1038 94.8283 66.1038 94.8283 66.1038H95.0897C95.0897 66.1038 95.0897 66.1038 95.0897 65.8396C95.0897 65.8396 95.0897 65.8396 95.3511 65.8396H95.6125C95.6125 65.8396 95.6125 66.1038 95.6125 65.8396C95.6125 65.8396 95.6125 65.8396 95.8739 65.8396C95.8739 65.8396 96.1352 65.8396 96.1352 66.1038H96.3966H96.658C96.658 66.1038 96.658 66.1038 96.9194 66.1038L97.1808 65.8396V66.1038V66.3679C97.1808 66.3679 97.1808 66.3679 97.4422 66.1038L97.7035 65.8396V66.1038V65.8396C97.7035 65.5755 97.7035 65.5755 97.9649 65.5755C97.9649 65.5755 97.9649 65.5755 98.2263 65.5755V65.8396H98.4877C98.4877 65.8396 98.4877 65.5755 98.7491 65.5755C98.7491 65.5755 98.7491 65.5755 98.7491 65.8396V66.1038C98.7491 66.1038 99.0104 66.1038 99.0104 65.8396C99.0104 65.5755 99.2718 65.5755 99.5332 65.5755H99.7946C99.7946 65.5755 100.056 65.5755 100.056 65.8396C100.056 65.8396 100.056 65.8396 100.056 66.1038C100.056 66.3679 100.056 66.632 100.056 66.632V66.8962C100.056 66.8962 100.056 66.8962 99.7946 66.8962V67.1603V67.4244C99.7946 67.4244 99.7946 67.4244 100.056 67.4244C100.056 67.4244 100.317 67.4244 100.056 67.4244C100.056 67.6886 100.056 67.6886 100.056 67.9527C100.056 67.9527 100.056 67.9527 100.056 68.2168C100.056 68.2168 100.056 68.2168 100.056 68.481C100.056 68.7451 100.056 68.7451 100.317 69.0092C100.317 69.0092 100.317 69.0092 100.317 69.2734V69.5375C100.317 69.5375 100.317 69.5375 100.317 69.8016C100.317 69.8016 100.317 70.0658 100.317 70.3299V70.594C100.317 70.8581 100.317 70.8582 100.317 70.8582V71.1223C100.317 71.3864 100.317 71.3864 100.317 71.6505C100.317 71.6505 100.317 71.6505 100.317 71.9147V72.1788C100.317 72.1788 100.317 72.1788 100.317 72.4429C100.317 72.7071 100.317 72.7071 100.317 72.7071C100.317 72.7071 100.317 72.7071 100.317 72.9712V73.2353C100.317 73.2353 100.317 73.2353 100.317 73.4995C100.317 73.4995 100.317 73.4995 100.317 73.7636V74.0277C100.317 74.0277 100.317 74.0277 100.317 74.2919C100.317 74.556 100.317 74.556 100.317 74.556C100.317 74.556 100.317 74.556 100.317 74.8201C100.317 74.8201 100.317 74.8201 100.056 74.8201H99.7946H99.5332C99.5332 74.8201 99.2718 74.8201 98.7491 74.8201C98.7491 74.8201 98.4877 74.8201 98.2263 74.8201C97.9649 74.8201 97.7035 74.8201 97.1808 74.8201L101.101 78.2538H101.363C101.624 78.2538 101.624 78.2538 101.624 78.2538H101.886C102.147 78.2538 102.147 78.2538 102.408 78.2538H102.67H102.931H103.193C103.193 78.2538 103.454 78.2538 103.715 78.2538H103.977H104.238H104.499C104.499 78.2538 104.499 78.2538 104.761 78.2538H105.022H105.284H105.545C105.545 78.2538 105.545 78.2538 105.806 78.2538H106.068C105.806 78.2538 105.806 78.2538 106.068 77.7256C106.068 77.7256 106.068 77.4614 106.329 77.1973C106.329 77.1973 106.329 76.9332 106.591 76.9332C106.591 76.9332 106.591 76.9332 106.591 76.669C106.591 76.669 106.591 76.4049 106.852 76.4049C106.852 76.4049 106.852 76.4049 106.852 76.1408L107.113 75.8767C107.113 75.8767 107.375 75.8767 107.375 75.6125C107.375 75.6125 107.375 75.3484 107.636 75.3484L107.897 75.0843H108.159V74.8201C108.159 74.556 108.159 74.556 108.42 74.2919C108.42 74.2919 108.42 74.0277 108.682 74.0277C108.682 74.0277 108.682 74.0277 108.943 74.0277C108.943 74.0277 108.943 74.0277 108.943 73.7636C108.943 73.7636 108.943 73.7636 108.943 73.4995C108.943 73.4995 108.943 73.4995 108.943 73.2353C108.943 73.2353 109.204 73.2353 109.204 72.9712C109.204 72.9712 109.204 72.9712 109.466 72.7071C109.466 72.7071 109.466 72.7071 109.727 72.4429L109.988 72.1788L110.25 72.4429C110.25 72.4429 110.25 72.4429 110.25 72.1788C110.25 72.1788 110.25 72.1788 110.25 71.9147V71.6505C110.25 71.6505 110.511 71.3864 110.511 71.6505V71.3864C110.511 71.3864 110.511 71.3864 110.773 71.3864L111.034 71.1223V70.8582C111.034 70.8582 111.034 70.8581 111.295 70.594H111.557C111.557 70.3299 111.557 70.3299 111.818 70.3299C111.818 70.3299 112.08 70.3299 112.08 70.0658L112.341 69.8016V69.5375H112.602C112.602 69.5375 112.602 69.2734 112.864 69.5375H113.125C113.386 69.5375 113.386 69.5375 113.648 69.2734C113.648 69.2734 113.648 69.2734 113.909 69.0092C114.171 68.7451 114.171 69.0092 114.171 68.7451C114.171 68.481 114.432 68.481 114.432 68.481C114.432 68.481 114.432 68.2168 114.693 68.2168H114.955C114.955 68.2168 114.955 68.2168 114.955 67.9527C114.955 67.6886 114.955 67.6886 114.955 67.6886C114.955 67.6886 114.955 67.6886 115.216 67.6886H115.478C115.478 67.6886 115.739 67.6886 115.739 67.4244C115.739 67.4244 115.739 67.4244 116 67.4244C116.262 67.4244 116.262 67.4244 116.262 67.6886V67.9527C116.262 67.9527 116.262 67.9527 116.262 68.2168C116.262 68.2168 116.262 68.2168 116.262 68.481C116.262 68.481 116.262 68.481 116.262 68.7451C116.262 68.7451 116.262 68.7451 116.262 69.0092V69.2734C116.262 69.2734 116.523 69.0092 116.523 69.2734V69.5375V69.8016C116.784 69.8016 116.784 69.8016 116.784 70.0658C116.784 70.0658 116.784 70.0658 116.784 70.3299C116.784 70.3299 116.784 70.594 117.046 70.594V70.8582H117.307C117.307 70.8582 117.307 71.1223 117.569 71.1223V71.3864C117.569 71.3864 117.83 71.3864 117.83 71.6505H118.091H118.353C118.353 71.6505 118.353 71.6505 118.353 71.9147C118.614 71.9147 118.614 72.1788 118.875 71.9147C118.875 71.9147 119.137 71.9147 119.137 72.1788H119.398C119.398 72.1788 119.66 72.1788 119.66 72.4429C119.66 72.4429 119.66 72.4429 119.921 72.4429C120.182 72.4429 120.182 72.4429 120.444 72.4429C120.444 72.4429 120.444 72.4429 120.705 72.4429H120.967C120.967 72.4429 120.967 72.4429 121.228 72.4429C121.489 72.4429 121.489 72.4429 121.489 72.4429H121.751H122.012H122.273C122.273 72.4429 122.273 72.4429 122.535 72.4429C122.535 72.4429 122.535 72.4429 122.796 72.4429C122.796 72.4429 122.796 72.4429 123.058 72.4429C123.319 72.4429 123.58 72.4429 123.842 72.7071C123.842 72.7071 123.842 72.9712 124.103 72.9712V73.2353C124.103 73.2353 124.103 73.4995 124.103 73.2353V73.4995V73.7636L123.842 74.0277C123.842 74.0277 123.842 74.0277 123.58 74.0277C123.58 74.0277 123.58 74.0277 123.319 74.0277C123.319 74.0277 123.319 74.0277 123.058 74.0277C122.796 74.0277 122.796 74.0277 122.535 74.0277H122.273H122.012H121.751H121.489C121.489 74.0277 121.489 74.0277 121.228 74.0277C121.228 74.0277 120.967 74.0277 120.967 74.2919C120.967 74.2919 120.967 74.2919 120.705 74.2919C120.444 74.2919 120.444 74.2919 120.444 74.556C120.444 74.556 120.444 74.556 120.182 74.556C120.182 74.556 121.751 72.9712 119.921 74.556C119.921 74.556 119.921 74.556 119.66 74.8201L119.398 75.0843C119.398 75.0843 119.137 75.3484 118.875 75.6125C118.875 75.8767 118.614 75.8767 118.614 76.1408C118.614 76.1408 118.875 76.1408 118.875 75.8767C119.137 75.8767 119.137 75.6125 119.398 75.6125C119.398 75.6125 119.398 75.6125 119.398 75.8767C119.137 76.1408 119.137 76.1408 119.137 76.1408C118.875 76.1408 119.137 76.4049 118.875 76.4049C118.875 76.4049 118.875 76.4049 119.137 76.4049C119.398 76.4049 119.398 76.1408 119.66 76.1408C119.66 76.1408 119.66 76.1408 119.921 76.1408C119.921 76.1408 119.921 76.1408 120.182 76.1408C120.182 76.1408 120.182 76.4049 119.921 76.4049C119.66 76.4049 119.66 76.669 119.398 76.669C119.398 76.669 119.398 76.669 119.66 76.669C119.66 76.669 119.66 76.669 120.182 76.4049C120.444 76.4049 120.444 76.4049 120.444 76.4049C120.444 76.4049 120.705 76.4049 120.967 76.4049C121.228 76.4049 121.228 76.4049 121.228 76.4049C121.489 76.4049 121.751 76.4049 121.751 76.4049C121.751 76.4049 121.751 76.4049 122.012 76.4049H122.273C122.273 76.4049 122.273 76.4049 122.796 76.4049C123.058 76.4049 123.319 76.4049 123.319 76.4049C123.319 76.4049 123.319 76.4049 123.58 76.4049H123.842H124.626C124.626 76.4049 124.887 76.4049 125.149 76.4049C125.41 76.4049 125.41 76.4049 125.41 76.4049H125.671C125.933 76.4049 125.933 76.4049 125.933 76.4049V76.1408V76.4049C125.933 76.4049 125.933 76.4049 126.194 76.4049C126.194 76.4049 126.194 76.4049 126.456 76.4049C126.456 76.4049 126.456 76.4049 126.717 76.1408H126.978C126.978 76.1408 126.978 76.1408 127.24 75.8767L127.501 75.6125C127.501 75.6125 127.501 75.6125 127.762 75.3484H128.024L128.285 75.0843H128.547C128.808 75.0843 128.808 74.8201 129.069 74.8201C129.069 74.8201 129.331 74.8201 129.331 74.556C129.331 74.556 129.331 74.556 129.592 74.556C129.592 74.556 129.854 74.556 129.854 74.2919L130.115 74.0277H130.376V73.7636C130.376 73.7636 130.376 73.7636 130.376 73.4995V73.2353C130.376 73.2353 130.376 73.2353 130.376 72.9712C130.376 72.7071 130.376 72.4429 130.376 72.1788C130.638 77.7256 130.376 77.4614 130.376 77.4614Z" fill="#584528"/>
</g>
<path opacity="0.3" d="M93.4701 14.3981L93.47 14.3983L93.4822 14.4018C94.6866 14.7549 95.5 15.8337 95.5 17.0456V65.0752C95.5 71.1781 92.974 77.4661 87.9212 83.7697C84.0613 88.5851 78.7083 93.4359 71.9996 98.1834C60.7254 106.162 49.6195 111.057 49.1631 111.257L49.1628 111.257C48.7937 111.419 48.3974 111.5 48.0004 111.5C47.6037 111.5 47.2072 111.419 46.8379 111.257L46.8377 111.257C46.3811 111.057 35.275 106.162 24.0008 98.1834C17.2921 93.4359 11.939 88.5851 8.07923 83.7697C3.02643 77.4659 0.5 71.1779 0.5 65.0752V17.0456C0.5 15.8338 1.31375 14.7549 2.51788 14.4018L2.51793 14.402L2.52995 14.3981L43.3528 1.29908L43.3655 1.29499L43.378 1.29022C46.1434 0.236576 49.8566 0.23658 52.622 1.2902L52.6345 1.29497L52.6472 1.29906L93.4701 14.3981Z" stroke="#011949"/>
</g>
<defs>
<filter id="filter0_b" x="-30" y="-30" width="156" height="172" filterUnits="userSpaceOnUse" color-interpolation-filters="sRGB">
<feFlood flood-opacity="0" result="BackgroundImageFix"/>
<feGaussianBlur in="BackgroundImage" stdDeviation="15"/>
<feComposite in2="SourceAlpha" operator="in" result="effect1_backgroundBlur"/>
<feBlend mode="normal" in="SourceGraphic" in2="effect1_backgroundBlur" result="shape"/>
</filter>
<linearGradient id="paint0_linear" x1="47.9998" y1="120.733" x2="47.9998" y2="41.6487" gradientUnits="userSpaceOnUse">
<stop stop-color="#216935"/>
<stop offset="1" stop-color="#216935" stop-opacity="0"/>
</linearGradient>
</defs>
</svg>
