<svg width="96" height="112" viewBox="0 0 96 112" fill="none" xmlns="http://www.w3.org/2000/svg">
<g filter="url(#filter0_b)">
<mask id="mask0" mask-type="alpha" maskUnits="userSpaceOnUse" x="5" y="6" width="86" height="100">
<g opacity="0.9">
<path d="M88.0198 19.0537L52.2103 7.56172C49.684 6.59904 46.3156 6.59903 43.7893 7.56174L7.97978 19.0537C6.74217 19.4167 5.89453 20.5306 5.89453 21.794V63.9312C5.89453 69.4118 8.16394 75.0222 12.6393 80.6065C16.0574 84.8714 20.7864 89.154 26.6945 93.3356C36.6198 100.36 46.3933 104.669 46.8045 104.849C47.1847 105.016 47.5925 105.099 48.0002 105.099C48.4079 105.099 48.8156 105.016 49.1959 104.849C49.6069 104.669 59.3802 100.36 69.3055 93.3356C75.2136 89.154 79.9424 84.8714 83.3606 80.6065C87.8361 75.0224 90.1051 69.412 90.1051 63.9312V21.794C90.1051 20.5306 89.2578 19.4167 88.0198 19.0537Z" fill="#24B04B"/>
<path d="M88.0198 19.0537L52.2103 7.56172C49.684 6.59904 46.3156 6.59903 43.7893 7.56174L7.97978 19.0537C6.74217 19.4167 5.89453 20.5306 5.89453 21.794V63.9312C5.89453 69.4118 8.16394 75.0222 12.6393 80.6065C16.0574 84.8714 20.7864 89.154 26.6945 93.3356C36.6198 100.36 46.3933 104.669 46.8045 104.849C47.1847 105.016 47.5925 105.099 48.0002 105.099C48.4079 105.099 48.8156 105.016 49.1959 104.849C49.6069 104.669 59.3802 100.36 69.3055 93.3356C75.2136 89.154 79.9424 84.8714 83.3606 80.6065C87.8361 75.0224 90.1051 69.412 90.1051 63.9312V21.794C90.1051 20.5306 89.2578 19.4167 88.0198 19.0537Z" fill="url(#paint0_linear)"/>
</g>
</mask>
<g mask="url(#mask0)">
<path fill-rule="evenodd" clip-rule="evenodd" d="M-13.4727 53.8635C-13.4727 19.3927 14.0495 -8.54858 47.9991 -8.54858C47.9994 -8.54858 47.9997 -8.54858 48 -8.54858C81.9514 -8.54858 109.474 19.3927 109.474 53.8635C109.474 88.3314 81.9517 116.274 48 116.274C47.9997 116.274 47.9994 116.274 47.9991 116.274C14.0495 116.274 -13.4727 88.3314 -13.4727 53.8635Z" fill="#3643A2"/>
<path fill-rule="evenodd" clip-rule="evenodd" d="M48.7836 28.3674L47.9726 25.8335L47.1614 28.3674H44.5365L46.6607 29.9334L45.8495 32.4673L47.9726 30.9004L50.0961 32.4673L49.2851 29.9334L51.4086 28.3674H48.7836ZM48.7833 76.2038L47.9723 73.6688L47.1611 76.2038H44.5361L46.6604 77.7698L45.8492 80.3036L47.9723 78.7378L50.0958 80.3036L49.2848 77.7698L51.4083 76.2038H48.7833ZM60.8946 30.0732L61.7052 32.6077H64.3301L62.2065 34.1746L63.0177 36.7086L60.8946 35.1416L58.7711 36.7086L59.5821 34.1746L57.459 32.6077H60.084L60.8946 30.0732ZM70.5299 41.4443L69.7193 38.9104L68.9076 41.4443H66.2832L68.4069 43.0109L67.5957 45.5448L69.7193 43.9788L71.8424 45.5448L71.0313 43.0109L73.1549 41.4443H70.5299ZM69.9313 61.238L70.7419 63.7729H73.3667L71.2432 65.3389L72.0548 67.8723L69.9313 66.3069L67.8076 67.8723L68.6188 65.3389L66.4951 63.7729H69.1201L69.9313 61.238ZM27.3438 41.4443L26.5332 38.9104L25.7226 41.4443H23.0977L25.2207 43.0109L24.4097 45.5448L26.5332 43.9788L28.6558 45.5448L27.8452 43.0109L29.9683 41.4443H27.3438ZM71.7661 49.5587L72.5767 52.0927H75.2017L73.0781 53.6586L73.8892 56.1931L71.7661 54.6277L69.6426 56.1931L70.4542 53.6586L68.3301 52.0927H70.9545L71.7661 49.5587ZM25.3384 52.0927L24.5278 49.5587L23.7166 52.0927H21.0918L23.2153 53.6586L22.4041 56.1931L24.5278 54.6277L26.6509 56.1931L25.8393 53.6586L27.9628 52.0927H25.3384ZM26.2475 61.238L27.0581 63.7729H29.6825L27.5596 65.3389L28.37 67.8723L26.2475 66.3069L24.124 67.8723L24.935 65.3389L22.8115 63.7729H25.4365L26.2475 61.238ZM62.0874 72.9861L61.2768 70.4521L60.4658 72.9861H57.8408L59.9645 74.5531L59.1527 77.087L61.2768 75.521L63.3999 77.087L62.5883 74.5531L64.7124 72.9861H62.0874ZM35.4571 30.0732L36.2675 32.6077H38.8925L36.769 34.1746L37.5806 36.7086L35.4571 35.1416L33.334 36.7086L34.145 34.1746L32.0215 32.6077H34.6459L35.4571 30.0732ZM35.311 72.8254L34.5 70.2904L33.6889 72.8254H31.0645L33.188 74.3909L32.3769 76.9248L34.5 75.3598L36.6235 76.9248L35.8125 74.3909L37.936 72.8254H35.311Z" fill="#F8D522"/>
<path d="M47.9726 25.8335L48.1155 25.7878L47.9726 25.3415L47.8297 25.7878L47.9726 25.8335ZM48.7836 28.3674L48.6408 28.4131L48.6741 28.5174H48.7836V28.3674ZM47.1614 28.3674V28.5174H47.2709L47.3043 28.4132L47.1614 28.3674ZM44.5365 28.3674V28.2174H44.0802L44.4474 28.4882L44.5365 28.3674ZM46.6607 29.9334L46.8035 29.9791L46.8364 29.8766L46.7497 29.8127L46.6607 29.9334ZM45.8495 32.4673L45.7066 32.4216L45.5651 32.8637L45.9386 32.588L45.8495 32.4673ZM47.9726 30.9004L48.0617 30.7797L47.9726 30.7139L47.8835 30.7797L47.9726 30.9004ZM50.0961 32.4673L50.0071 32.588L50.3804 32.8636L50.239 32.4216L50.0961 32.4673ZM49.2851 29.9334L49.1961 29.8127L49.1094 29.8766L49.1422 29.9791L49.2851 29.9334ZM51.4086 28.3674L51.4976 28.4881L51.8647 28.2174H51.4086V28.3674ZM47.9723 73.6688L48.1152 73.6231L47.9723 73.1765L47.8294 73.6231L47.9723 73.6688ZM48.7833 76.2038L48.6404 76.2495L48.6738 76.3538H48.7833V76.2038ZM47.1611 76.2038V76.3538H47.2706L47.304 76.2496L47.1611 76.2038ZM44.5361 76.2038V76.0538H44.0799L44.4471 76.3246L44.5361 76.2038ZM46.6604 77.7698L46.8032 77.8156L46.836 77.713L46.7494 77.6491L46.6604 77.7698ZM45.8492 80.3036L45.7063 80.2579L45.5649 80.6997L45.9382 80.4243L45.8492 80.3036ZM47.9723 78.7378L48.0613 78.617L47.9723 78.5514L47.8833 78.6171L47.9723 78.7378ZM50.0958 80.3036L50.0068 80.4243L50.38 80.6996L50.2387 80.2579L50.0958 80.3036ZM49.2848 77.7698L49.1957 77.6491L49.1091 77.713L49.1419 77.8156L49.2848 77.7698ZM51.4083 76.2038L51.4973 76.3246L51.8644 76.0538H51.4083V76.2038ZM61.7052 32.6077L61.5623 32.6534L61.5957 32.7577H61.7052V32.6077ZM60.8946 30.0732L61.0374 30.0275L60.8946 29.5808L60.7517 30.0275L60.8946 30.0732ZM64.3301 32.6077L64.4192 32.7284L64.7861 32.4577H64.3301V32.6077ZM62.2065 34.1746L62.1174 34.054L62.0308 34.1179L62.0636 34.2204L62.2065 34.1746ZM63.0177 36.7086L62.9286 36.8293L63.302 37.1049L63.1605 36.6628L63.0177 36.7086ZM60.8946 35.1416L60.9836 35.0209L60.8946 34.9552L60.8055 35.0209L60.8946 35.1416ZM58.7711 36.7086L58.6282 36.6628L58.4867 37.1048L58.8601 36.8293L58.7711 36.7086ZM59.5821 34.1746L59.7249 34.2204L59.7577 34.1179L59.6712 34.054L59.5821 34.1746ZM57.459 32.6077V32.4577H57.0032L57.3699 32.7283L57.459 32.6077ZM60.084 32.6077V32.7577H60.1935L60.2268 32.6534L60.084 32.6077ZM69.7193 38.9104L69.8622 38.8647L69.7194 38.4184L69.5765 38.8646L69.7193 38.9104ZM70.5299 41.4443L70.3871 41.49L70.4204 41.5943H70.5299V41.4443ZM68.9076 41.4443V41.5943H69.0171L69.0505 41.4901L68.9076 41.4443ZM66.2832 41.4443V41.2943H65.8272L66.1942 41.565L66.2832 41.4443ZM68.4069 43.0109L68.5497 43.0566L68.5825 42.9541L68.4959 42.8902L68.4069 43.0109ZM67.5957 45.5448L67.4528 45.4991L67.3114 45.9408L67.6847 45.6655L67.5957 45.5448ZM69.7193 43.9788L69.8084 43.8581L69.7194 43.7924L69.6303 43.8581L69.7193 43.9788ZM71.8424 45.5448L71.7534 45.6655L72.1267 45.9409L71.9853 45.4991L71.8424 45.5448ZM71.0313 43.0109L70.9422 42.8902L70.8556 42.9541L70.8884 43.0566L71.0313 43.0109ZM73.1549 41.4443L73.244 41.565L73.6109 41.2943H73.1549V41.4443ZM70.7419 63.7729L70.599 63.8186L70.6323 63.9229H70.7419V63.7729ZM69.9313 61.238L70.0741 61.1923L69.9313 60.7457L69.7884 61.1923L69.9313 61.238ZM73.3667 63.7729L73.4557 63.8937L73.8228 63.6229H73.3667V63.7729ZM71.2432 65.3389L71.1542 65.2182L71.0675 65.2821L71.1003 65.3847L71.2432 65.3389ZM72.0548 67.8723L71.9658 67.993L72.3391 68.2683L72.1976 67.8265L72.0548 67.8723ZM69.9313 66.3069L70.0203 66.1861L69.9313 66.1205L69.8423 66.1861L69.9313 66.3069ZM67.8076 67.8723L67.6647 67.8265L67.5233 68.2682L67.8966 67.993L67.8076 67.8723ZM68.6188 65.3389L68.7616 65.3847L68.7945 65.2821L68.7078 65.2182L68.6188 65.3389ZM66.4951 63.7729V63.6229H66.039L66.4061 63.8937L66.4951 63.7729ZM69.1201 63.7729V63.9229H69.2296L69.263 63.8187L69.1201 63.7729ZM26.5332 38.9104L26.6761 38.8647L26.5332 38.4181L26.3904 38.8647L26.5332 38.9104ZM27.3438 41.4443L27.201 41.49L27.2343 41.5943H27.3438V41.4443ZM25.7226 41.4443V41.5943H25.8321L25.8655 41.49L25.7226 41.4443ZM23.0977 41.4443V41.2943H22.6417L23.0086 41.565L23.0977 41.4443ZM25.2207 43.0109L25.3636 43.0566L25.3964 42.9541L25.3098 42.8902L25.2207 43.0109ZM24.4097 45.5448L24.2669 45.4991L24.1255 45.9408L24.4988 45.6655L24.4097 45.5448ZM26.5332 43.9788L26.6223 43.8581L26.5333 43.7924L26.4442 43.8581L26.5332 43.9788ZM28.6558 45.5448L28.5667 45.6655L28.94 45.9409L28.7986 45.4991L28.6558 45.5448ZM27.8452 43.0109L27.7561 42.8902L27.6695 42.9541L27.7023 43.0566L27.8452 43.0109ZM29.9683 41.4443L30.0573 41.565L30.4242 41.2943H29.9683V41.4443ZM72.5767 52.0927L72.4338 52.1384L72.4672 52.2427H72.5767V52.0927ZM71.7661 49.5587L71.9089 49.513L71.7662 49.0667L71.6232 49.513L71.7661 49.5587ZM75.2017 52.0927L75.2907 52.2134L75.6578 51.9427H75.2017V52.0927ZM73.0781 53.6586L72.9891 53.5379L72.9025 53.6018L72.9353 53.7044L73.0781 53.6586ZM73.8892 56.1931L73.8001 56.3139L74.1733 56.589L74.032 56.1474L73.8892 56.1931ZM71.7661 54.6277L71.8551 54.507L71.7661 54.4414L71.6771 54.507L71.7661 54.6277ZM69.6426 56.1931L69.4997 56.1474L69.3583 56.5891L69.7316 56.3139L69.6426 56.1931ZM70.4542 53.6586L70.597 53.7044L70.6298 53.6018L70.5432 53.5379L70.4542 53.6586ZM68.3301 52.0927V51.9427H67.8738L68.2411 52.2134L68.3301 52.0927ZM70.9545 52.0927V52.2427H71.064L71.0973 52.1384L70.9545 52.0927ZM24.5278 49.5587L24.6707 49.513L24.5278 49.0666L24.3849 49.513L24.5278 49.5587ZM25.3384 52.0927L25.1955 52.1384L25.2289 52.2427H25.3384V52.0927ZM23.7166 52.0927V52.2427H23.8261L23.8595 52.1384L23.7166 52.0927ZM21.0918 52.0927V51.9427H20.6357L21.0028 52.2134L21.0918 52.0927ZM23.2153 53.6586L23.3582 53.7044L23.391 53.6018L23.3043 53.5379L23.2153 53.6586ZM22.4041 56.1931L22.2613 56.1474L22.12 56.589L22.4931 56.3139L22.4041 56.1931ZM24.5278 54.6277L24.6168 54.507L24.5278 54.4414L24.4388 54.507L24.5278 54.6277ZM26.6509 56.1931L26.5619 56.3139L26.9352 56.5891L26.7937 56.1474L26.6509 56.1931ZM25.8393 53.6586L25.7503 53.5379L25.6636 53.6018L25.6964 53.7044L25.8393 53.6586ZM27.9628 52.0927L28.0518 52.2134L28.419 51.9427H27.9628V52.0927ZM27.0581 63.7729L26.9153 63.8186L26.9486 63.9229H27.0581V63.7729ZM26.2475 61.238L26.3904 61.1923L26.2476 60.7457L26.1047 61.1923L26.2475 61.238ZM29.6825 63.7729L29.7716 63.8937L30.1386 63.6229H29.6825V63.7729ZM27.5596 65.3389L27.4705 65.2182L27.3839 65.2821L27.4167 65.3846L27.5596 65.3389ZM28.37 67.8723L28.281 67.993L28.6542 68.2683L28.5129 67.8266L28.37 67.8723ZM26.2475 66.3069L26.3366 66.1861L26.2475 66.1205L26.1585 66.1861L26.2475 66.3069ZM24.124 67.8723L23.9812 67.8266L23.8398 68.2682L24.213 67.993L24.124 67.8723ZM24.935 65.3389L25.0779 65.3847L25.1107 65.2821L25.0241 65.2182L24.935 65.3389ZM22.8115 63.7729V63.6229H22.3554L22.7225 63.8937L22.8115 63.7729ZM25.4365 63.7729V63.9229H25.546L25.5794 63.8186L25.4365 63.7729ZM61.2768 70.4521L61.4197 70.4064L61.2769 69.9599L61.134 70.4064L61.2768 70.4521ZM62.0874 72.9861L61.9445 73.0318L61.9779 73.1361H62.0874V72.9861ZM60.4658 72.9861V73.1361H60.5753L60.6087 73.0318L60.4658 72.9861ZM57.8408 72.9861V72.8361H57.3849L57.7518 73.1068L57.8408 72.9861ZM59.9645 74.5531L60.1073 74.5988L60.1402 74.4963L60.0535 74.4324L59.9645 74.5531ZM59.1527 77.087L59.0099 77.0412L58.8684 77.483L59.2418 77.2077L59.1527 77.087ZM61.2768 75.521L61.3659 75.4003L61.2768 75.3346L61.1878 75.4003L61.2768 75.521ZM63.3999 77.087L63.3109 77.2077L63.6843 77.4831L63.5428 77.0412L63.3999 77.087ZM62.5883 74.5531L62.4993 74.4323L62.4126 74.4963L62.4455 74.5988L62.5883 74.5531ZM64.7124 72.9861L64.8014 73.1068L65.1684 72.8361H64.7124V72.9861ZM36.2675 32.6077L36.1247 32.6533L36.158 32.7577H36.2675V32.6077ZM35.4571 30.0732L35.5999 30.0275L35.4571 29.5809L35.3142 30.0274L35.4571 30.0732ZM38.8925 32.6077L38.9816 32.7284L39.3484 32.4577H38.8925V32.6077ZM36.769 34.1746L36.6799 34.054L36.5933 34.1179L36.6261 34.2204L36.769 34.1746ZM37.5806 36.7086L37.4915 36.8293L37.865 37.1049L37.7234 36.6628L37.5806 36.7086ZM35.4571 35.1416L35.5461 35.0209L35.4571 34.9552L35.368 35.0209L35.4571 35.1416ZM33.334 36.7086L33.1911 36.6628L33.0496 37.1049L33.423 36.8293L33.334 36.7086ZM34.145 34.1746L34.2879 34.2204L34.3207 34.1179L34.2341 34.054L34.145 34.1746ZM32.0215 32.6077V32.4577H31.5656L31.9324 32.7284L32.0215 32.6077ZM34.6459 32.6077V32.7577H34.7554L34.7888 32.6534L34.6459 32.6077ZM34.5 70.2904L34.6429 70.2447L34.5 69.7981L34.3572 70.2447L34.5 70.2904ZM35.311 72.8254L35.1682 72.8712L35.2015 72.9754H35.311V72.8254ZM33.6889 72.8254V72.9754H33.7984L33.8317 72.8712L33.6889 72.8254ZM31.0645 72.8254V72.6754H30.6082L30.9754 72.9462L31.0645 72.8254ZM33.188 74.3909L33.3308 74.4366L33.3637 74.334L33.277 74.2701L33.188 74.3909ZM32.3769 76.9248L32.2341 76.8791L32.0928 77.3206L32.4659 77.0455L32.3769 76.9248ZM34.5 75.3598L34.589 75.239L34.5 75.1735L34.411 75.2391L34.5 75.3598ZM36.6235 76.9248L36.5345 77.0455L36.9077 77.3205L36.7664 76.8791L36.6235 76.9248ZM35.8125 74.3909L35.7235 74.2701L35.6368 74.334L35.6697 74.4366L35.8125 74.3909ZM37.936 72.8254L38.025 72.9462L38.3923 72.6754H37.936V72.8254ZM47.8297 25.8792L48.6408 28.4131L48.9265 28.3217L48.1155 25.7878L47.8297 25.8792ZM47.3043 28.4132L48.1155 25.8792L47.8297 25.7878L47.0186 28.3217L47.3043 28.4132ZM44.5365 28.5174H47.1614V28.2174H44.5365V28.5174ZM46.7497 29.8127L44.6255 28.2467L44.4474 28.4882L46.5717 30.0542L46.7497 29.8127ZM45.9924 32.5131L46.8035 29.9791L46.5178 29.8877L45.7066 32.4216L45.9924 32.5131ZM47.8835 30.7797L45.7604 32.3467L45.9386 32.588L48.0617 31.021L47.8835 30.7797ZM50.1852 32.3466L48.0617 30.7797L47.8835 31.021L50.0071 32.588L50.1852 32.3466ZM49.1422 29.9791L49.9533 32.5131L50.239 32.4216L49.428 29.8877L49.1422 29.9791ZM51.3196 28.2467L49.1961 29.8127L49.3741 30.0541L51.4976 28.4881L51.3196 28.2467ZM48.7836 28.5174H51.4086V28.2174H48.7836V28.5174ZM47.8294 73.7145L48.6404 76.2495L48.9262 76.1581L48.1152 73.6231L47.8294 73.7145ZM47.304 76.2496L48.1151 73.7145L47.8294 73.6231L47.0183 76.1581L47.304 76.2496ZM44.5361 76.3538H47.1611V76.0538H44.5361V76.3538ZM46.7494 77.6491L44.6251 76.0831L44.4471 76.3246L46.5713 77.8906L46.7494 77.6491ZM45.992 80.3494L46.8032 77.8156L46.5175 77.7241L45.7063 80.2579L45.992 80.3494ZM47.8833 78.6171L45.7602 80.1829L45.9382 80.4243L48.0613 78.8585L47.8833 78.6171ZM50.1848 80.1829L48.0613 78.617L47.8833 78.8585L50.0068 80.4243L50.1848 80.1829ZM49.1419 77.8156L49.9529 80.3493L50.2387 80.2579L49.4276 77.7241L49.1419 77.8156ZM51.3193 76.0831L49.1957 77.6491L49.3738 77.8906L51.4973 76.3246L51.3193 76.0831ZM48.7833 76.3538H51.4083V76.0538H48.7833V76.3538ZM61.848 32.562L61.0374 30.0275L60.7517 30.1189L61.5623 32.6534L61.848 32.562ZM64.3301 32.4577H61.7052V32.7577H64.3301V32.4577ZM62.2956 34.2953L64.4192 32.7284L64.2411 32.487L62.1174 34.054L62.2956 34.2953ZM63.1605 36.6628L62.3494 34.1289L62.0636 34.2204L62.8748 36.7543L63.1605 36.6628ZM60.8055 35.2623L62.9286 36.8293L63.1067 36.5879L60.9836 35.0209L60.8055 35.2623ZM58.8601 36.8293L60.9836 35.2623L60.8055 35.0209L58.682 36.5879L58.8601 36.8293ZM59.4392 34.1289L58.6282 36.6628L58.9139 36.7543L59.7249 34.2204L59.4392 34.1289ZM57.3699 32.7283L59.493 34.2953L59.6712 34.054L57.5481 32.487L57.3699 32.7283ZM60.084 32.4577H57.459V32.7577H60.084V32.4577ZM60.7517 30.0275L59.9411 32.562L60.2268 32.6534L61.0374 30.1189L60.7517 30.0275ZM69.5765 38.9561L70.3871 41.49L70.6728 41.3986L69.8622 38.8647L69.5765 38.9561ZM69.0505 41.4901L69.8622 38.9562L69.5765 38.8646L68.7648 41.3986L69.0505 41.4901ZM66.2832 41.5943H68.9076V41.2943H66.2832V41.5943ZM68.4959 42.8902L66.3722 41.3236L66.1942 41.565L68.3178 43.1316L68.4959 42.8902ZM67.7386 45.5905L68.5497 43.0566L68.264 42.9652L67.4528 45.4991L67.7386 45.5905ZM69.6303 43.8581L67.5067 45.4241L67.6847 45.6655L69.8084 44.0995L69.6303 43.8581ZM71.9315 45.4241L69.8084 43.8581L69.6303 44.0995L71.7534 45.6655L71.9315 45.4241ZM70.8884 43.0566L71.6996 45.5905L71.9853 45.4991L71.1741 42.9652L70.8884 43.0566ZM73.0659 41.3236L70.9422 42.8902L71.1203 43.1316L73.244 41.565L73.0659 41.3236ZM70.5299 41.5943H73.1549V41.2943H70.5299V41.5943ZM70.8847 63.7273L70.0741 61.1923L69.7884 61.2837L70.599 63.8186L70.8847 63.7273ZM73.3667 63.6229H70.7419V63.9229H73.3667V63.6229ZM71.3322 65.4597L73.4557 63.8937L73.2777 63.6522L71.1542 65.2182L71.3322 65.4597ZM72.1976 67.8265L71.386 65.2932L71.1003 65.3847L71.9119 67.9181L72.1976 67.8265ZM69.8423 66.4276L71.9658 67.993L72.1438 67.7516L70.0203 66.1861L69.8423 66.4276ZM67.8966 67.993L70.0203 66.4276L69.8423 66.1861L67.7186 67.7515L67.8966 67.993ZM68.4759 65.2932L67.6647 67.8265L67.9505 67.918L68.7616 65.3847L68.4759 65.2932ZM66.4061 63.8937L68.5297 65.4597L68.7078 65.2182L66.5841 63.6522L66.4061 63.8937ZM69.1201 63.6229H66.4951V63.9229H69.1201V63.6229ZM69.7884 61.1923L68.9772 63.7272L69.263 63.8187L70.0741 61.2837L69.7884 61.1923ZM26.3904 38.9561L27.201 41.49L27.4867 41.3986L26.6761 38.8647L26.3904 38.9561ZM25.8655 41.49L26.6761 38.9561L26.3904 38.8647L25.5798 41.3986L25.8655 41.49ZM23.0977 41.5943H25.7226V41.2943H23.0977V41.5943ZM25.3098 42.8902L23.1867 41.3236L23.0086 41.565L25.1317 43.1316L25.3098 42.8902ZM24.5526 45.5905L25.3636 43.0566L25.0779 42.9652L24.2669 45.4991L24.5526 45.5905ZM26.4442 43.8581L24.3207 45.4241L24.4988 45.6655L26.6223 44.0995L26.4442 43.8581ZM28.7448 45.4241L26.6223 43.8581L26.4442 44.0995L28.5667 45.6655L28.7448 45.4241ZM27.7023 43.0566L28.5129 45.5905L28.7986 45.4991L27.988 42.9652L27.7023 43.0566ZM29.8792 41.3236L27.7561 42.8902L27.9342 43.1316L30.0573 41.565L29.8792 41.3236ZM27.3438 41.5943H29.9683V41.2943H27.3438V41.5943ZM72.7195 52.047L71.9089 49.513L71.6232 49.6044L72.4338 52.1384L72.7195 52.047ZM75.2017 51.9427H72.5767V52.2427H75.2017V51.9427ZM73.1672 53.7794L75.2907 52.2134L75.1126 51.9719L72.9891 53.5379L73.1672 53.7794ZM74.032 56.1474L73.221 53.6129L72.9353 53.7044L73.7463 56.2389L74.032 56.1474ZM71.6771 54.7484L73.8001 56.3139L73.9782 56.0724L71.8551 54.507L71.6771 54.7484ZM69.7316 56.3139L71.8551 54.7485L71.6771 54.507L69.5536 56.0724L69.7316 56.3139ZM70.3113 53.6129L69.4997 56.1474L69.7854 56.2389L70.597 53.7044L70.3113 53.6129ZM68.2411 52.2134L70.3651 53.7794L70.5432 53.5379L68.4191 51.9719L68.2411 52.2134ZM70.9545 51.9427H68.3301V52.2427H70.9545V51.9427ZM71.6232 49.513L70.8116 52.0469L71.0973 52.1384L71.9089 49.6045L71.6232 49.513ZM24.3849 49.6044L25.1955 52.1384L25.4813 52.047L24.6707 49.513L24.3849 49.6044ZM23.8595 52.1384L24.6707 49.6045L24.3849 49.513L23.5738 52.0469L23.8595 52.1384ZM21.0918 52.2427H23.7166V51.9427H21.0918V52.2427ZM23.3043 53.5379L21.1808 51.9719L21.0028 52.2134L23.1263 53.7794L23.3043 53.5379ZM22.547 56.2389L23.3582 53.7044L23.0724 53.6129L22.2613 56.1474L22.547 56.2389ZM24.4388 54.507L22.3151 56.0724L22.4931 56.3139L24.6168 54.7485L24.4388 54.507ZM26.7399 56.0724L24.6168 54.507L24.4388 54.7484L26.5619 56.3139L26.7399 56.0724ZM25.6964 53.7044L26.508 56.2389L26.7937 56.1474L25.9822 53.6129L25.6964 53.7044ZM27.8738 51.9719L25.7503 53.5379L25.9283 53.7794L28.0518 52.2134L27.8738 51.9719ZM25.3384 52.2427H27.9628V51.9427H25.3384V52.2427ZM27.201 63.7273L26.3904 61.1923L26.1046 61.2837L26.9153 63.8186L27.201 63.7273ZM29.6825 63.6229H27.0581V63.9229H29.6825V63.6229ZM27.6486 65.4596L29.7716 63.8937L29.5935 63.6522L27.4705 65.2182L27.6486 65.4596ZM28.5129 67.8266L27.7025 65.2932L27.4167 65.3846L28.2272 67.918L28.5129 67.8266ZM26.1585 66.4276L28.281 67.993L28.4591 67.7516L26.3366 66.1861L26.1585 66.4276ZM24.213 67.993L26.3365 66.4276L26.1585 66.1861L24.035 67.7516L24.213 67.993ZM24.7922 65.2932L23.9812 67.8266L24.2669 67.918L25.0779 65.3847L24.7922 65.2932ZM22.7225 63.8937L24.846 65.4597L25.0241 65.2182L22.9006 63.6522L22.7225 63.8937ZM25.4365 63.6229H22.8115V63.9229H25.4365V63.6229ZM26.1047 61.1923L25.2936 63.7272L25.5794 63.8186L26.3904 61.2837L26.1047 61.1923ZM61.1339 70.4978L61.9445 73.0318L62.2303 72.9404L61.4197 70.4064L61.1339 70.4978ZM60.6087 73.0318L61.4197 70.4979L61.134 70.4064L60.3229 72.9403L60.6087 73.0318ZM57.8408 73.1361H60.4658V72.8361H57.8408V73.1361ZM60.0535 74.4324L57.9299 72.8654L57.7518 73.1068L59.8754 74.6738L60.0535 74.4324ZM59.2956 77.1327L60.1073 74.5988L59.8216 74.5073L59.0099 77.0412L59.2956 77.1327ZM61.1878 75.4003L59.0637 76.9662L59.2418 77.2077L61.3658 75.6417L61.1878 75.4003ZM63.4889 76.9663L61.3659 75.4003L61.1878 75.6417L63.3109 77.2077L63.4889 76.9663ZM62.4455 74.5988L63.2571 77.1327L63.5428 77.0412L62.7312 74.5073L62.4455 74.5988ZM64.6233 72.8654L62.4993 74.4323L62.6774 74.6738L64.8014 73.1068L64.6233 72.8654ZM62.0874 73.1361H64.7124V72.8361H62.0874V73.1361ZM36.4104 32.562L35.5999 30.0275L35.3142 30.1189L36.1247 32.6533L36.4104 32.562ZM38.8925 32.4577H36.2675V32.7577H38.8925V32.4577ZM36.8581 34.2953L38.9816 32.7284L38.8034 32.487L36.6799 34.054L36.8581 34.2953ZM37.7234 36.6628L36.9118 34.1289L36.6261 34.2204L37.4377 36.7543L37.7234 36.6628ZM35.368 35.2623L37.4915 36.8293L37.6696 36.5879L35.5461 35.0209L35.368 35.2623ZM33.423 36.8293L35.5461 35.2623L35.368 35.0209L33.2449 36.5879L33.423 36.8293ZM34.0021 34.1289L33.1911 36.6628L33.4768 36.7543L34.2879 34.2204L34.0021 34.1289ZM31.9324 32.7284L34.0559 34.2953L34.2341 34.054L32.1105 32.487L31.9324 32.7284ZM34.6459 32.4577H32.0215V32.7577H34.6459V32.4577ZM35.3142 30.0274L34.503 32.5619L34.7888 32.6534L35.5999 30.1189L35.3142 30.0274ZM34.3572 70.3361L35.1682 72.8712L35.4539 72.7797L34.6429 70.2447L34.3572 70.3361ZM33.8317 72.8712L34.6429 70.3361L34.3572 70.2447L33.546 72.7797L33.8317 72.8712ZM31.0645 72.9754H33.6889V72.6754H31.0645V72.9754ZM33.277 74.2701L31.1535 72.7047L30.9754 72.9462L33.099 74.5116L33.277 74.2701ZM32.5198 76.9705L33.3308 74.4366L33.0451 74.3451L32.2341 76.8791L32.5198 76.9705ZM34.411 75.2391L32.2879 76.804L32.4659 77.0455L34.589 75.4805L34.411 75.2391ZM36.7125 76.804L34.589 75.239L34.411 75.4805L36.5345 77.0455L36.7125 76.804ZM35.6697 74.4366L36.4807 76.9705L36.7664 76.8791L35.9554 74.3451L35.6697 74.4366ZM37.847 72.7047L35.7235 74.2701L35.9015 74.5116L38.025 72.9462L37.847 72.7047ZM35.311 72.9754H37.936V72.6754H35.311V72.9754Z" fill="#F8D522"/>
</g>
<path opacity="0.3" d="M93.4701 14.3981L93.47 14.3983L93.4822 14.4018C94.6866 14.7549 95.5 15.8337 95.5 17.0456V65.0752C95.5 71.1781 92.974 77.4661 87.9212 83.7697C84.0613 88.5851 78.7083 93.4359 71.9996 98.1834C60.7254 106.162 49.6195 111.057 49.1631 111.257L49.1628 111.257C48.7937 111.419 48.3974 111.5 48.0004 111.5C47.6037 111.5 47.2072 111.419 46.8379 111.257L46.8377 111.257C46.3811 111.057 35.275 106.162 24.0008 98.1834C17.2921 93.4359 11.939 88.5851 8.07923 83.7697C3.02643 77.4659 0.5 71.1779 0.5 65.0752V17.0456C0.5 15.8338 1.31375 14.7549 2.51788 14.4018L2.51793 14.402L2.52995 14.3981L43.3528 1.29908L43.3655 1.29499L43.378 1.29022C46.1434 0.236576 49.8566 0.23658 52.622 1.2902L52.6345 1.29497L52.6472 1.29906L93.4701 14.3981Z" stroke="#011949"/>
</g>
<defs>
<filter id="filter0_b" x="-30" y="-30" width="156" height="172" filterUnits="userSpaceOnUse" color-interpolation-filters="sRGB">
<feFlood flood-opacity="0" result="BackgroundImageFix"/>
<feGaussianBlur in="BackgroundImage" stdDeviation="15"/>
<feComposite in2="SourceAlpha" operator="in" result="effect1_backgroundBlur"/>
<feBlend mode="normal" in="SourceGraphic" in2="effect1_backgroundBlur" result="shape"/>
</filter>
<linearGradient id="paint0_linear" x1="47.9998" y1="120.733" x2="47.9998" y2="41.6487" gradientUnits="userSpaceOnUse">
<stop stop-color="#216935"/>
<stop offset="1" stop-color="#216935" stop-opacity="0"/>
</linearGradient>
</defs>
</svg>
