<svg fill="none" height="112" viewBox="0 0 96 112" width="96" xmlns="http://www.w3.org/2000/svg" xmlns:xlink="http://www.w3.org/1999/xlink"><filter id="a" color-interpolation-filters="sRGB" filterUnits="userSpaceOnUse" height="172" width="156" x="-30" y="-30"><feFlood flood-opacity="0" result="BackgroundImageFix"/><feGaussianBlur in="BackgroundImage" stdDeviation="15"/><feComposite in2="SourceAlpha" operator="in" result="effect1_backgroundBlur"/><feBlend in="SourceGraphic" in2="effect1_backgroundBlur" mode="normal" result="shape"/></filter><linearGradient id="b" gradientUnits="userSpaceOnUse" x1="47.9998" x2="47.9998" y1="120.733" y2="41.6487"><stop offset="0" stop-color="#216935"/><stop offset="1" stop-color="#216935" stop-opacity="0"/></linearGradient><mask id="c" height="100" maskUnits="userSpaceOnUse" width="86" x="5" y="6"><g fill="none" opacity=".9"><path d="m88.0198 19.0537-35.8095-11.49198c-2.5263-.96268-5.8947-.96269-8.421.00002l-35.80952 11.49196c-1.23761.363-2.08525 1.4769-2.08525 2.7403v42.1372c0 5.4806 2.26941 11.091 6.74477 16.6753 3.4181 4.2649 8.1471 8.5475 14.0552 12.7291 9.9253 7.0244 19.6988 11.3334 20.11 11.5134.3802.167.788.25 1.1957.25s.8154-.083 1.1957-.25c.411-.18 10.1843-4.489 20.1096-11.5134 5.9081-4.1816 10.6369-8.4642 14.0551-12.7291 4.4755-5.5841 6.7445-11.1945 6.7445-16.6753v-42.1372c0-1.2634-.8473-2.3773-2.0853-2.7403z" fill="#24b04b"/><path d="m88.0198 19.0537-35.8095-11.49198c-2.5263-.96268-5.8947-.96269-8.421.00002l-35.80952 11.49196c-1.23761.363-2.08525 1.4769-2.08525 2.7403v42.1372c0 5.4806 2.26941 11.091 6.74477 16.6753 3.4181 4.2649 8.1471 8.5475 14.0552 12.7291 9.9253 7.0244 19.6988 11.3334 20.11 11.5134.3802.167.788.25 1.1957.25s.8154-.083 1.1957-.25c.411-.18 10.1843-4.489 20.1096-11.5134 5.9081-4.1816 10.6369-8.4642 14.0551-12.7291 4.4755-5.5841 6.7445-11.1945 6.7445-16.6753v-42.1372c0-1.2634-.8473-2.3773-2.0853-2.7403z" fill="url(#b)"/></g></mask><g filter="url(#a)"><g mask="url(#c)"><path clip-rule="evenodd" d="m-13.4727 53.8635c0-34.4708 27.5222-62.41208 61.4718-62.41208h.0009c33.9514 0 61.474 27.94128 61.474 62.41208 0 34.4679-27.5223 62.4105-61.474 62.4105-.0003 0-.0006 0-.0009 0-33.9496 0-61.4718-27.9426-61.4718-62.4105z" fill="#3643a2" fill-rule="evenodd"/><g fill="#f8d522"><path clip-rule="evenodd" d="m48.7836 28.3674-.811-2.5339-.8112 2.5339h-2.6249l2.1242 1.566-.8112 2.5339 2.1231-1.5669 2.1235 1.5669-.811-2.5339 2.1235-1.566zm-.0003 47.8364-.811-2.535-.8112 2.535h-2.625l2.1243 1.566-.8112 2.5338 2.1231-1.5658 2.1235 1.5658-.811-2.5338 2.1235-1.566zm12.1113-46.1306.8106 2.5345h2.6249l-2.1236 1.5669.8112 2.534-2.1231-1.567-2.1235 1.567.811-2.534-2.1231-1.5669h2.625zm9.6353 11.3711-.8106-2.5339-.8117 2.5339h-2.6244l2.1237 1.5666-.8112 2.5339 2.1236-1.566 2.1231 1.566-.8111-2.5339 2.1236-1.5666zm-.5986 19.7937.8106 2.5349h2.6248l-2.1235 1.566.8116 2.5334-2.1235-1.5654-2.1237 1.5654.8112-2.5334-2.1237-1.566h2.625zm-42.5875-19.7937-.8106-2.5339-.8106 2.5339h-2.6249l2.123 1.5666-.811 2.5339 2.1235-1.566 2.1226 1.566-.8106-2.5339 2.1231-1.5666zm44.4223 8.1144.8106 2.534h2.625l-2.1236 1.5659.8111 2.5345-2.1231-1.5654-2.1235 1.5654.8116-2.5345-2.1241-1.5659h2.6244zm-46.4277 2.534-.8106-2.534-.8112 2.534h-2.6248l2.1235 1.5659-.8112 2.5345 2.1237-1.5654 2.1231 1.5654-.8116-2.5345 2.1235-1.5659zm.9091 9.1453.8106 2.5349h2.6244l-2.1229 1.566.8104 2.5334-2.1225-1.5654-2.1235 1.5654.811-2.5334-2.1235-1.566h2.625zm35.8399 11.7481-.8106-2.534-.811 2.534h-2.625l2.1237 1.567-.8118 2.5339 2.1241-1.566 2.1231 1.566-.8116-2.5339 2.1241-1.567zm-26.6303-42.9129.8104 2.5345h2.625l-2.1235 1.5669.8116 2.534-2.1235-1.567-2.1231 1.567.811-2.534-2.1235-1.5669h2.6244zm-.1461 42.7522-.811-2.535-.8111 2.535h-2.6244l2.1235 1.5655-.8111 2.5339 2.1231-1.565 2.1235 1.565-.811-2.5339 2.1235-1.5655z" fill-rule="evenodd"/><path d="m47.9726 25.8335.1429-.0457-.1429-.4463-.1429.4463zm.811 2.5339-.1428.0457.0333.1043h.1095zm-1.6222 0v.15h.1095l.0334-.1042zm-2.6249 0v-.15h-.4563l.3672.2708zm2.1242 1.566.1428.0457.0329-.1025-.0867-.0639zm-.8112 2.5339-.1429-.0457-.1415.4421.3735-.2757zm2.1231-1.5669.0891-.1207-.0891-.0658-.0891.0658zm2.1235 1.5669-.089.1207.3733.2756-.1414-.442zm-.811-2.5339-.089-.1207-.0867.0639.0328.1025zm2.1235-1.566.089.1207.3671-.2707h-.4561zm-3.4363 45.3014.1429-.0457-.1429-.4466-.1429.4466zm.811 2.535-.1429.0457.0334.1043h.1095zm-1.6222 0v.15h.1095l.0334-.1042zm-2.625 0v-.15h-.4562l.3672.2708zm2.1243 1.566.1428.0458.0328-.1026-.0866-.0639zm-.8112 2.5338-.1429-.0457-.1414.4418.3733-.2754zm2.1231-1.5658.089-.1208-.089-.0656-.089.0657zm2.1235 1.5658-.089.1207.3732.2753-.1413-.4417zm-.811-2.5338-.0891-.1207-.0866.0639.0328.1026zm2.1235-1.566.089.1208.3671-.2708h-.4561zm10.2969-43.5961-.1429.0457.0334.1043h.1095zm-.8106-2.5345.1428-.0457-.1428-.4467-.1429.4467zm3.4355 2.5345.0891.1207.3669-.2707h-.456zm-2.1236 1.5669-.0891-.1206-.0866.0639.0328.1025zm.8112 2.534-.0891.1207.3734.2756-.1415-.4421zm-2.1231-1.567.089-.1207-.089-.0657-.0891.0657zm-2.1235 1.567-.1429-.0458-.1415.442.3734-.2755zm.811-2.534.1428.0458.0328-.1025-.0865-.0639zm-2.1231-1.5669v-.15h-.4558l.3667.2706zm2.625 0v.15h.1095l.0333-.1043zm9.6353 6.3027.1429-.0457-.1428-.4463-.1429.4462zm.8106 2.5339-.1428.0457.0333.1043h.1095zm-1.6223 0v.15h.1095l.0334-.1042zm-2.6244 0v-.15h-.456l.367.2707zm2.1237 1.5666.1428.0457.0328-.1025-.0866-.0639zm-.8112 2.5339-.1429-.0457-.1414.4417.3733-.2753zm2.1236-1.566.0891-.1207-.089-.0657-.0891.0657zm2.1231 1.566-.089.1207.3733.2754-.1414-.4418zm-.8111-2.5339-.0891-.1207-.0866.0639.0328.1025zm2.1236-1.5666.0891.1207.3669-.2707h-.456zm-2.413 22.3286-.1429.0457.0333.1043h.1096zm-.8106-2.5349.1428-.0457-.1428-.4466-.1429.4466zm3.4354 2.5349.089.1208.3671-.2708h-.4561zm-2.1235 1.566-.089-.1207-.0867.0639.0328.1026zm.8116 2.5334-.089.1207.3733.2753-.1415-.4418zm-2.1235-1.5654.089-.1208-.089-.0656-.089.0656zm-2.1237 1.5654-.1429-.0458-.1414.4417.3733-.2752zm.8112-2.5334.1428.0458.0329-.1026-.0867-.0639zm-2.1237-1.566v-.15h-.4561l.3671.2708zm2.625 0v.15h.1095l.0334-.1042zm-42.5869-24.8625.1429-.0457-.1429-.4466-.1428.4466zm.8106 2.5339-.1428.0457.0333.1043h.1095zm-1.6212 0v.15h.1095l.0334-.1043zm-2.6249 0v-.15h-.456l.3669.2707zm2.123 1.5666.1429.0457.0328-.1025-.0866-.0639zm-.811 2.5339-.1428-.0457-.1414.4417.3733-.2753zm2.1235-1.566.0891-.1207-.089-.0657-.0891.0657zm2.1226 1.566-.0891.1207.3733.2754-.1414-.4418zm-.8106-2.5339-.0891-.1207-.0866.0639.0328.1025zm2.1231-1.5666.089.1207.3669-.2707h-.4559zm42.6084 10.6484-.1429.0457.0334.1043h.1095zm-.8106-2.534.1428-.0457-.1427-.4463-.143.4463zm3.4356 2.534.089.1207.3671-.2707h-.4561zm-2.1236 1.5659-.089-.1207-.0866.0639.0328.1026zm.8111 2.5345-.0891.1208.3732.2751-.1413-.4416zm-2.1231-1.5654.089-.1207-.089-.0656-.089.0656zm-2.1235 1.5654-.1429-.0457-.1414.4417.3733-.2752zm.8116-2.5345.1428.0458.0328-.1026-.0866-.0639zm-2.1241-1.5659v-.15h-.4563l.3673.2707zm2.6244 0v.15h.1095l.0333-.1043zm-46.4267-2.534.1429-.0457-.1429-.4464-.1429.4464zm.8106 2.534-.1429.0457.0334.1043h.1095zm-1.6218 0v.15h.1095l.0334-.1043zm-2.6248 0v-.15h-.4561l.3671.2707zm2.1235 1.5659.1429.0458.0328-.1026-.0867-.0639zm-.8112 2.5345-.1428-.0457-.1413.4416.3731-.2751zm2.1237-1.5654.089-.1207-.089-.0656-.089.0656zm2.1231 1.5654-.089.1208.3733.2752-.1415-.4417zm-.8116-2.5345-.089-.1207-.0867.0639.0328.1026zm2.1235-1.5659.089.1207.3672-.2707h-.4562zm-.9047 11.6802-.1428.0457.0333.1043h.1095zm-.8106-2.5349.1429-.0457-.1428-.4466-.1429.4466zm3.435 2.5349.0891.1208.367-.2708h-.4561zm-2.1229 1.566-.0891-.1207-.0866.0639.0328.1025zm.8104 2.5334-.089.1207.3732.2753-.1413-.4417zm-2.1225-1.5654.0891-.1208-.0891-.0656-.089.0656zm-2.1235 1.5654-.1428-.0457-.1414.4416.3732-.2752zm.811-2.5334.1429.0458.0328-.1026-.0866-.0639zm-2.1235-1.566v-.15h-.4561l.3671.2708zm2.625 0v.15h.1095l.0334-.1043zm35.8403 6.6792.1429-.0457-.1428-.4465-.1429.4465zm.8106 2.534-.1429.0457.0334.1043h.1095zm-1.6216 0v.15h.1095l.0334-.1043zm-2.625 0v-.15h-.4559l.3669.2707zm2.1237 1.567.1428.0457.0329-.1025-.0867-.0639zm-.8118 2.5339-.1428-.0458-.1415.4418.3734-.2753zm2.1241-1.566.0891-.1207-.0891-.0657-.089.0657zm2.1231 1.566-.089.1207.3734.2754-.1415-.4419zm-.8116-2.5339-.089-.1208-.0867.064.0329.1025zm2.1241-1.567.089.1207.367-.2707h-.456zm-28.4449-40.3784-.1428.0456.0333.1044h.1095zm-.8104-2.5345.1428-.0457-.1428-.4466-.1429.4465zm3.4354 2.5345.0891.1207.3668-.2707h-.4559zm-2.1235 1.5669-.0891-.1206-.0866.0639.0328.1025zm.8116 2.534-.0891.1207.3735.2756-.1416-.4421zm-2.1235-1.567.089-.1207-.089-.0657-.0891.0657zm-2.1231 1.567-.1429-.0458-.1415.4421.3734-.2756zm.811-2.534.1429.0458.0328-.1025-.0866-.0639zm-2.1235-1.5669v-.15h-.4559l.3668.2707zm2.6244 0v.15h.1095l.0334-.1043zm-.1459 37.6827.1429-.0457-.1429-.4466-.1428.4466zm.811 2.535-.1428.0458.0333.1042h.1095zm-1.6221 0v.15h.1095l.0333-.1042zm-2.6244 0v-.15h-.4563l.3672.2708zm2.1235 1.5655.1428.0457.0329-.1026-.0867-.0639zm-.8111 2.5339-.1428-.0457-.1413.4415.3731-.2751zm2.1231-1.565.089-.1208-.089-.0655-.089.0656zm2.1235 1.565-.089.1207.3732.275-.1413-.4414zm-.811-2.5339-.089-.1208-.0867.0639.0329.1026zm2.1235-1.5655.089.1208.3673-.2708h-.4563zm9.8937-46.9462.8111 2.5339.2857-.0914-.811-2.5339zm-.5254 2.534.8112-2.534-.2858-.0914-.8111 2.5339zm-2.7678.1042h2.6249v-.3h-2.6249zm2.2132 1.2953-2.1242-1.566-.1781.2415 2.1243 1.566zm-.7573 2.7004.8111-2.534-.2857-.0914-.8112 2.5339zm1.8911-1.7334-2.1231 1.567.1782.2413 2.1231-1.567zm2.3017 1.5669-2.1235-1.5669-.1782.2413 2.1236 1.567zm-1.043-2.3675.8111 2.534.2857-.0915-.811-2.5339zm2.1774-1.7324-2.1235 1.566.178.2414 2.1235-1.566zm-2.536.2707h2.625v-.3h-2.625zm-.9542 45.1971.811 2.535.2858-.0914-.811-2.535zm-.5254 2.5351.8111-2.5351-.2857-.0914-.8111 2.535zm-2.7679.1042h2.625v-.3h-2.625zm2.2133 1.2953-2.1243-1.566-.178.2415 2.1242 1.566zm-.7574 2.7003.8112-2.5338-.2857-.0915-.8112 2.5338zm1.8913-1.7323-2.1231 1.5658.178.2414 2.1231-1.5658zm2.3015 1.5658-2.1235-1.5659-.178.2415 2.1235 1.5658zm-1.0429-2.3673.811 2.5337.2858-.0914-.8111-2.5338zm2.1774-1.7325-2.1236 1.566.1781.2415 2.1235-1.566zm-2.536.2707h2.625v-.3h-2.625zm13.0647-43.7918-.8106-2.5345-.2857.0914.8106 2.5345zm2.4821-.1043h-2.6249v.3h2.6249zm-2.0345 1.8376 2.1236-1.5669-.1781-.2414-2.1237 1.567zm.8649 2.3675-.8111-2.5339-.2858.0915.8112 2.5339zm-2.355-1.4005 2.1231 1.567.1781-.2414-2.1231-1.567zm-1.9454 1.567 2.1235-1.567-.1781-.2414-2.1235 1.567zm.5791-2.7004-.811 2.5339.2857.0915.811-2.5339zm-2.0693-1.4006 2.1231 1.567.1782-.2413-2.1231-1.567zm2.7141-.2706h-2.625v.3h2.625zm.6677-2.4302-.8106 2.5345.2857.0914.8106-2.5345zm8.8248 8.9286.8106 2.5339.2857-.0914-.8106-2.5339zm-.526 2.534.8117-2.5339-.2857-.0916-.8117 2.534zm-2.7673.1042h2.6244v-.3h-2.6244zm2.2127 1.2959-2.1237-1.5666-.178.2414 2.1236 1.5666zm-.7573 2.7003.8111-2.5339-.2857-.0914-.8112 2.5339zm1.8917-1.7324-2.1236 1.566.178.2414 2.1237-1.566zm2.3012 1.566-2.1231-1.566-.1781.2414 2.1231 1.566zm-1.0431-2.3675.8112 2.5339.2857-.0914-.8112-2.5339zm2.1775-1.733-2.1237 1.5666.1781.2414 2.1237-1.5666zm-2.536.2707h2.625v-.3h-2.625zm.3548 22.133-.8106-2.535-.2857.0914.8106 2.5349zm2.482-.1044h-2.6248v.3h2.6248zm-2.0345 1.8368 2.1235-1.566-.178-.2415-2.1235 1.566zm.8654 2.3668-.8116-2.5333-.2857.0915.8116 2.5334zm-2.3553-1.3989 2.1235 1.5654.178-.2414-2.1235-1.5655zm-1.9457 1.5654 2.1237-1.5654-.178-.2415-2.1237 1.5654zm.5793-2.6998-.8112 2.5333.2858.0915.8111-2.5333zm-2.0698-1.3995 2.1236 1.566.1781-.2415-2.1237-1.566zm2.714-.2708h-2.625v.3h2.625zm.6683-2.4306-.8112 2.5349.2858.0915.8111-2.535zm-43.398-22.2362.8106 2.5339.2857-.0914-.8106-2.5339zm-.5249 2.5339.8106-2.5339-.2857-.0914-.8106 2.5339zm-2.7678.1043h2.6249v-.3h-2.6249zm2.2121 1.2959-2.1231-1.5666-.1781.2414 2.1231 1.5666zm-.7572 2.7003.811-2.5339-.2857-.0914-.811 2.5339zm1.8916-1.7324-2.1235 1.566.1781.2414 2.1235-1.566zm2.3006 1.566-2.1225-1.566-.1781.2414 2.1225 1.566zm-1.0425-2.3675.8106 2.5339.2857-.0914-.8106-2.5339zm2.1769-1.733-2.1231 1.5666.1781.2414 2.1231-1.5666zm-2.5354.2707h2.6245v-.3h-2.6245zm45.3757 10.4527-.8106-2.534-.2857.0914.8106 2.534zm2.4822-.1043h-2.625v.3h2.625zm-2.0345 1.8367 2.1235-1.566-.1781-.2415-2.1235 1.566zm.8648 2.368-.811-2.5345-.2857.0915.811 2.5345zm-2.3549-1.399 2.123 1.5655.1781-.2415-2.1231-1.5654zm-1.9455 1.5655 2.1235-1.5654-.178-.2415-2.1235 1.5654zm.5797-2.701-.8116 2.5345.2857.0915.8116-2.5345zm-2.0702-1.3995 2.124 1.566.1781-.2415-2.1241-1.566zm2.7134-.2707h-2.6244v.3h2.6244zm.6687-2.4297-.8116 2.5339.2857.0915.8116-2.5339zm-47.2383.0914.8106 2.534.2858-.0914-.8106-2.534zm-.5254 2.534.8112-2.5339-.2858-.0915-.8111 2.5339zm-2.7677.1043h2.6248v-.3h-2.6248zm2.2125 1.2952-2.1235-1.566-.178.2415 2.1235 1.566zm-.7573 2.701.8112-2.5345-.2858-.0915-.8111 2.5345zm1.8918-1.7319-2.1237 1.5654.178.2415 2.1237-1.5654zm2.3011 1.5654-2.1231-1.5654-.178.2414 2.1231 1.5655zm-1.0435-2.368.8116 2.5345.2857-.0915-.8115-2.5345zm2.1774-1.7325-2.1235 1.566.178.2415 2.1235-1.566zm-2.5354.2708h2.6244v-.3h-2.6244zm1.8626 11.4846-.8106-2.535-.2858.0914.8107 2.5349zm2.4815-.1044h-2.6244v.3h2.6244zm-2.0339 1.8367 2.123-1.5659-.1781-.2415-2.123 1.566zm.8643 2.367-.8104-2.5334-.2858.0914.8105 2.5334zm-2.3544-1.399 2.1225 1.5654.1781-.2414-2.1225-1.5655zm-1.9455 1.5654 2.1235-1.5654-.178-.2415-2.1235 1.5655zm.5792-2.6998-.811 2.5334.2857.0914.811-2.5333zm-2.0697-1.3995 2.1235 1.566.1781-.2415-2.1235-1.566zm2.714-.2708h-2.625v.3h2.625zm.6682-2.4306-.8111 2.5349.2858.0914.811-2.5349zm35.0292 9.3055.8106 2.534.2858-.0914-.8106-2.534zm-.5252 2.534.811-2.5339-.2857-.0915-.8111 2.5339zm-2.7679.1043h2.625v-.3h-2.625zm2.2127 1.2963-2.1236-1.567-.1781.2414 2.1236 1.567zm-.7579 2.7003.8117-2.5339-.2857-.0915-.8117 2.5339zm1.8922-1.7324-2.1241 1.5659.1781.2415 2.124-1.566zm2.3011 1.566-2.123-1.566-.1781.2414 2.1231 1.566zm-1.0434-2.3675.8116 2.5339.2857-.0915-.8116-2.5339zm2.1778-1.7334-2.124 1.5669.1781.2415 2.124-1.567zm-2.5359.2707h2.625v-.3h-2.625zm-25.677-40.5741-.8105-2.5345-.2857.0914.8105 2.5344zm2.4821-.1043h-2.625v.3h2.625zm-2.0344 1.8376 2.1235-1.5669-.1782-.2414-2.1235 1.567zm.8653 2.3675-.8116-2.5339-.2857.0915.8116 2.5339zm-2.3554-1.4005 2.1235 1.567.1781-.2414-2.1235-1.567zm-1.945 1.567 2.1231-1.567-.1781-.2414-2.1231 1.567zm.5791-2.7004-.811 2.5339.2857.0915.8111-2.5339zm-2.0697-1.4005 2.1235 1.5669.1782-.2413-2.1236-1.567zm2.7135-.2707h-2.6244v.3h2.6244zm.6683-2.4303-.8112 2.5345.2858.0915.8111-2.5345zm-.957 40.3087.811 2.5351.2857-.0915-.811-2.535zm-.5255 2.5351.8112-2.5351-.2857-.0914-.8112 2.535zm-2.7672.1042h2.6244v-.3h-2.6244zm2.2125 1.2947-2.1235-1.5654-.1781.2415 2.1236 1.5654zm-.7572 2.7004.811-2.5339-.2857-.0915-.811 2.534zm1.8912-1.7314-2.1231 1.5649.178.2415 2.1231-1.565zm2.3015 1.5649-2.1235-1.565-.178.2415 2.1235 1.565zm-1.0428-2.3674.811 2.5339.2857-.0914-.811-2.534zm2.1773-1.7319-2.1235 1.5654.178.2415 2.1235-1.5654zm-2.536.2707h2.625v-.3h-2.625z"/></g></g><path d="m93.4701 14.3981-.0001.0002.0122.0035c1.2044.3531 2.0178 1.4319 2.0178 2.6438v48.0296c0 6.1029-2.526 12.3909-7.5788 18.6945-3.8599 4.8154-9.2129 9.6662-15.9216 14.4137-11.2742 7.9786-22.3801 12.8736-22.8365 13.0736h-.0003c-.3691.162-.7654.243-1.1624.243-.3967 0-.7932-.081-1.1625-.243h-.0002c-.4566-.2-11.5627-5.095-22.8369-13.0736-6.7087-4.7475-12.0618-9.5983-15.92157-14.4137-5.0528-6.3038-7.57923-12.5918-7.57923-18.6945v-48.0296c0-1.2118.81375-2.2907 2.01788-2.6438l.00005.0002.01202-.0039 40.82285-13.09902.0127-.00409.0125-.00477c2.7654-1.053644 6.4786-1.05364 9.244-.00002l.0125.00477.0127.00409z" opacity=".3" stroke="#011949"/></g></svg>