<svg width="96" height="112" viewBox="0 0 96 112" fill="none" xmlns="http://www.w3.org/2000/svg">
<g filter="url(#filter0_b)">
<mask id="mask0" mask-type="alpha" maskUnits="userSpaceOnUse" x="5" y="6" width="86" height="100">
<g opacity="0.9">
<path d="M88.0198 19.0537L52.2103 7.56172C49.684 6.59904 46.3156 6.59903 43.7893 7.56174L7.97978 19.0537C6.74217 19.4167 5.89453 20.5306 5.89453 21.794V63.9312C5.89453 69.4118 8.16394 75.0222 12.6393 80.6065C16.0574 84.8714 20.7864 89.154 26.6945 93.3356C36.6198 100.36 46.3933 104.669 46.8045 104.849C47.1847 105.016 47.5925 105.099 48.0002 105.099C48.4079 105.099 48.8156 105.016 49.1959 104.849C49.6069 104.669 59.3802 100.36 69.3055 93.3356C75.2136 89.154 79.9424 84.8714 83.3606 80.6065C87.8361 75.0224 90.1051 69.412 90.1051 63.9312V21.794C90.1051 20.5306 89.2578 19.4167 88.0198 19.0537Z" fill="#24B04B"/>
<path d="M88.0198 19.0537L52.2103 7.56172C49.684 6.59904 46.3156 6.59903 43.7893 7.56174L7.97978 19.0537C6.74217 19.4167 5.89453 20.5306 5.89453 21.794V63.9312C5.89453 69.4118 8.16394 75.0222 12.6393 80.6065C16.0574 84.8714 20.7864 89.154 26.6945 93.3356C36.6198 100.36 46.3933 104.669 46.8045 104.849C47.1847 105.016 47.5925 105.099 48.0002 105.099C48.4079 105.099 48.8156 105.016 49.1959 104.849C49.6069 104.669 59.3802 100.36 69.3055 93.3356C75.2136 89.154 79.9424 84.8714 83.3606 80.6065C87.8361 75.0224 90.1051 69.412 90.1051 63.9312V21.794C90.1051 20.5306 89.2578 19.4167 88.0198 19.0537Z" fill="url(#paint0_linear)"/>
</g>
</mask>
<g mask="url(#mask0)">
<path fill-rule="evenodd" clip-rule="evenodd" d="M-13.4727 53.8635C-13.4727 19.3927 14.0495 -8.54858 47.9991 -8.54858C47.9994 -8.54858 47.9997 -8.54858 48 -8.54858C81.9514 -8.54858 109.474 19.3927 109.474 53.8635C109.474 88.3314 81.9517 116.274 48 116.274C47.9997 116.274 47.9994 116.274 47.9991 116.274C14.0495 116.274 -13.4727 88.3314 -13.4727 53.8635Z" fill="white"/>
<path d="M104.356 44.5298C104.356 21.9514 91.3531 2.44249 72.502 -6.76917V95.8286C91.3531 86.6171 104.356 67.1082 104.356 44.5298Z" fill="#D80027"/>
<path d="M-8.35742 44.5298C-8.35742 67.1082 4.6454 86.6171 23.4966 95.8287V-6.76917C4.6454 2.44248 -8.35742 21.9514 -8.35742 44.5298Z" fill="#D80027"/>
<path d="M57.7991 51.9579L67.6001 47.0057L62.6997 44.5297V39.5775L52.8985 44.5297L57.7991 34.6253H52.8985L47.9978 27.1971L43.0972 34.6253H38.1966L43.0972 44.5297L33.2959 39.5775V44.5297L28.3955 47.0057L38.1966 51.9579L35.7464 56.9101H45.5476V64.3383H50.448V56.9101H60.2493L57.7991 51.9579Z" fill="#D80027"/>
<g clip-path="url(#clip0)">
<path d="M47.8358 111.72C78.0291 111.72 102.506 86.8701 102.506 56.2159C102.506 25.5616 78.0291 0.711426 47.8358 0.711426C17.6425 0.711426 -6.83398 25.5616 -6.83398 56.2159C-6.83398 86.8701 17.6425 111.72 47.8358 111.72Z" fill="#F0F0F0"/>
<path d="M102.506 56.2159C102.506 32.351 87.6699 12.0062 66.8516 4.16382V108.268C87.6699 100.426 102.506 80.0809 102.506 56.2159Z" fill="#D80027"/>
<path d="M-6.83398 56.2159C-6.83398 80.0809 8.00224 100.426 28.8203 108.268V4.16382C8.00224 12.0062 -6.83398 32.351 -6.83398 56.2159Z" fill="#0052B4"/>
</g>
</g>
<path opacity="0.3" d="M93.4701 14.3981L93.47 14.3983L93.4822 14.4018C94.6866 14.7549 95.5 15.8337 95.5 17.0456V65.0752C95.5 71.1781 92.974 77.4661 87.9212 83.7697C84.0613 88.5851 78.7083 93.4359 71.9996 98.1834C60.7254 106.162 49.6195 111.057 49.1631 111.257L49.1628 111.257C48.7937 111.419 48.3974 111.5 48.0004 111.5C47.6037 111.5 47.2072 111.419 46.8379 111.257L46.8377 111.257C46.3811 111.057 35.275 106.162 24.0008 98.1834C17.2921 93.4359 11.939 88.5851 8.07923 83.7697C3.02643 77.4659 0.5 71.1779 0.5 65.0752V17.0456C0.5 15.8338 1.31375 14.7549 2.51788 14.4018L2.51793 14.402L2.52995 14.3981L43.3528 1.29908L43.3655 1.29499L43.378 1.29022C46.1434 0.236576 49.8566 0.23658 52.622 1.2902L52.6345 1.29497L52.6472 1.29906L93.4701 14.3981Z" stroke="#011949"/>
</g>
<defs>
<filter id="filter0_b" x="-30" y="-30" width="156" height="172" filterUnits="userSpaceOnUse" color-interpolation-filters="sRGB">
<feFlood flood-opacity="0" result="BackgroundImageFix"/>
<feGaussianBlur in="BackgroundImage" stdDeviation="15"/>
<feComposite in2="SourceAlpha" operator="in" result="effect1_backgroundBlur"/>
<feBlend mode="normal" in="SourceGraphic" in2="effect1_backgroundBlur" result="shape"/>
</filter>
<linearGradient id="paint0_linear" x1="47.9998" y1="120.733" x2="47.9998" y2="41.6487" gradientUnits="userSpaceOnUse">
<stop stop-color="#216935"/>
<stop offset="1" stop-color="#216935" stop-opacity="0"/>
</linearGradient>
<clipPath id="clip0">
<rect x="-6.83398" y="0.711426" width="109.34" height="111.009" fill="white"/>
</clipPath>
</defs>
</svg>
