<svg fill="none" height="112" viewBox="0 0 96 112" width="96" xmlns="http://www.w3.org/2000/svg" xmlns:xlink="http://www.w3.org/1999/xlink"><filter id="a" color-interpolation-filters="sRGB" filterUnits="userSpaceOnUse" height="172" width="156" x="-30" y="-30"><feFlood flood-opacity="0" result="BackgroundImageFix"/><feGaussianBlur in="BackgroundImage" stdDeviation="15"/><feComposite in2="SourceAlpha" operator="in" result="effect1_backgroundBlur"/><feBlend in="SourceGraphic" in2="effect1_backgroundBlur" mode="normal" result="shape"/></filter><linearGradient id="b" gradientUnits="userSpaceOnUse" x1="47.9998" x2="47.9998" y1="120.733" y2="41.6487"><stop offset="0" stop-color="#216935"/><stop offset="1" stop-color="#216935" stop-opacity="0"/></linearGradient><clipPath id="c"><path d="m-6.83398.711426h109.34v111.009h-109.34z"/></clipPath><mask id="d" height="100" maskUnits="userSpaceOnUse" width="86" x="5" y="6"><g fill="none" opacity=".9"><path d="m88.0198 19.0537-35.8095-11.49198c-2.5263-.96268-5.8947-.96269-8.421.00002l-35.80952 11.49196c-1.23761.363-2.08525 1.4769-2.08525 2.7403v42.1372c0 5.4806 2.26941 11.091 6.74477 16.6753 3.4181 4.2649 8.1471 8.5475 14.0552 12.7291 9.9253 7.0244 19.6988 11.3334 20.11 11.5134.3802.167.788.25 1.1957.25s.8154-.083 1.1957-.25c.411-.18 10.1843-4.489 20.1096-11.5134 5.9081-4.1816 10.6369-8.4642 14.0551-12.7291 4.4755-5.5841 6.7445-11.1945 6.7445-16.6753v-42.1372c0-1.2634-.8473-2.3773-2.0853-2.7403z" fill="#24b04b"/><path d="m88.0198 19.0537-35.8095-11.49198c-2.5263-.96268-5.8947-.96269-8.421.00002l-35.80952 11.49196c-1.23761.363-2.08525 1.4769-2.08525 2.7403v42.1372c0 5.4806 2.26941 11.091 6.74477 16.6753 3.4181 4.2649 8.1471 8.5475 14.0552 12.7291 9.9253 7.0244 19.6988 11.3334 20.11 11.5134.3802.167.788.25 1.1957.25s.8154-.083 1.1957-.25c.411-.18 10.1843-4.489 20.1096-11.5134 5.9081-4.1816 10.6369-8.4642 14.0551-12.7291 4.4755-5.5841 6.7445-11.1945 6.7445-16.6753v-42.1372c0-1.2634-.8473-2.3773-2.0853-2.7403z" fill="url(#b)"/></g></mask><g filter="url(#a)"><g mask="url(#d)"><path clip-rule="evenodd" d="m-13.4727 53.8635c0-34.4708 27.5222-62.41208 61.4718-62.41208h.0009c33.9514 0 61.474 27.94128 61.474 62.41208 0 34.4679-27.5223 62.4105-61.474 62.4105-.0003 0-.0006 0-.0009 0-33.9496 0-61.4718-27.9426-61.4718-62.4105z" fill="#fff" fill-rule="evenodd"/><g fill="#d80027"><path d="m104.356 44.5298c0-22.5784-13.0029-42.08731-31.854-51.29897v102.59777c18.8511-9.2115 31.854-28.7204 31.854-51.2988z"/><path d="m-8.35742 44.5298c0 22.5784 13.00282 42.0873 31.85402 51.2989v-102.59787c-18.8512 9.21165-31.85402 28.72057-31.85402 51.29897z"/><path d="m57.7991 51.9579 9.801-4.9522-4.9004-2.476v-4.9522l-9.8012 4.9522 4.9006-9.9044h-4.9006l-4.9007-7.4282-4.9006 7.4282h-4.9006l4.9006 9.9044-9.8013-4.9522v4.9522l-4.9004 2.476 9.8011 4.9522-2.4502 4.9522h9.8012v7.4282h4.9004v-7.4282h9.8013z"/></g><g clip-path="url(#c)"><path d="m47.8358 111.72c30.1933 0 54.6702-24.8499 54.6702-55.5041 0-30.6543-24.4769-55.504474-54.6702-55.504474s-54.66978 24.850174-54.66978 55.504474c0 30.6542 24.47648 55.5041 54.66978 55.5041z" fill="#f0f0f0"/><path d="m102.506 56.2159c0-23.8649-14.8361-44.2097-35.6544-52.05208v104.10418c20.8183-7.842 35.6544-28.1871 35.6544-52.0521z" fill="#d80027"/><path d="m-6.83398 56.2159c0 23.865 14.83622 44.2101 35.65428 52.0521v-104.10418c-20.81806 7.84238-35.65428 28.18718-35.65428 52.05208z" fill="#0052b4"/></g></g><path d="m93.4701 14.3981-.0001.0002.0122.0035c1.2044.3531 2.0178 1.4319 2.0178 2.6438v48.0296c0 6.1029-2.526 12.3909-7.5788 18.6945-3.8599 4.8154-9.2129 9.6662-15.9216 14.4137-11.2742 7.9786-22.3801 12.8736-22.8365 13.0736h-.0003c-.3691.162-.7654.243-1.1624.243-.3967 0-.7932-.081-1.1625-.243h-.0002c-.4566-.2-11.5627-5.095-22.8369-13.0736-6.7087-4.7475-12.0618-9.5983-15.92157-14.4137-5.0528-6.3038-7.57923-12.5918-7.57923-18.6945v-48.0296c0-1.2118.81375-2.2907 2.01788-2.6438l.00005.0002.01202-.0039 40.82285-13.09902.0127-.00409.0125-.00477c2.7654-1.053644 6.4786-1.05364 9.244-.00002l.0125.00477.0127.00409z" opacity=".3" stroke="#011949"/></g></svg>