<svg width="96" height="112" viewBox="0 0 96 112" fill="none" xmlns="http://www.w3.org/2000/svg">
<g filter="url(#filter0_b)">
<mask id="mask0" mask-type="alpha" maskUnits="userSpaceOnUse" x="5" y="6" width="86" height="100">
<g opacity="0.9">
<path d="M88.0198 19.0537L52.2103 7.56172C49.684 6.59904 46.3156 6.59903 43.7893 7.56174L7.97978 19.0537C6.74217 19.4167 5.89453 20.5306 5.89453 21.794V63.9312C5.89453 69.4118 8.16394 75.0222 12.6393 80.6065C16.0574 84.8714 20.7864 89.154 26.6945 93.3356C36.6198 100.36 46.3933 104.669 46.8045 104.849C47.1847 105.016 47.5925 105.099 48.0002 105.099C48.4079 105.099 48.8156 105.016 49.1959 104.849C49.6069 104.669 59.3802 100.36 69.3055 93.3356C75.2136 89.154 79.9424 84.8714 83.3606 80.6065C87.8361 75.0224 90.1051 69.412 90.1051 63.9312V21.794C90.1051 20.5306 89.2578 19.4167 88.0198 19.0537Z" fill="#24B04B"/>
<path d="M88.0198 19.0537L52.2103 7.56172C49.684 6.59904 46.3156 6.59903 43.7893 7.56174L7.97978 19.0537C6.74217 19.4167 5.89453 20.5306 5.89453 21.794V63.9312C5.89453 69.4118 8.16394 75.0222 12.6393 80.6065C16.0574 84.8714 20.7864 89.154 26.6945 93.3356C36.6198 100.36 46.3933 104.669 46.8045 104.849C47.1847 105.016 47.5925 105.099 48.0002 105.099C48.4079 105.099 48.8156 105.016 49.1959 104.849C49.6069 104.669 59.3802 100.36 69.3055 93.3356C75.2136 89.154 79.9424 84.8714 83.3606 80.6065C87.8361 75.0224 90.1051 69.412 90.1051 63.9312V21.794C90.1051 20.5306 89.2578 19.4167 88.0198 19.0537Z" fill="url(#paint0_linear)"/>
</g>
</mask>
<g mask="url(#mask0)">
<path fill-rule="evenodd" clip-rule="evenodd" d="M-13.4736 66.1335C-13.4736 31.6628 14.0486 3.72144 47.9981 3.72144C47.9985 3.72144 47.9988 3.72144 47.9991 3.72144C81.9505 3.72144 109.473 31.6628 109.473 66.1335C109.473 100.601 81.9508 128.544 47.9991 128.544C47.9988 128.544 47.9985 128.544 47.9981 128.544C14.0486 128.544 -13.4736 100.601 -13.4736 66.1335Z" fill="white"/>
<path d="M47.9989 113.436C79.8097 113.436 105.597 87.3765 105.597 55.231C105.597 23.0856 79.8097 -2.97351 47.9989 -2.97351C16.1881 -2.97351 -9.59961 23.0856 -9.59961 55.231C-9.59961 87.3765 16.1881 113.436 47.9989 113.436Z" fill="#F0F0F0"/>
<path d="M102.015 34.986H-6.01703C-8.33244 41.2914 -9.59961 48.1113 -9.59961 55.2309C-9.59961 62.3504 -8.33244 69.1704 -6.01703 75.4758H102.015C104.33 69.1704 105.597 62.3504 105.597 55.2309C105.597 48.1113 104.33 41.2914 102.015 34.986Z" fill="#0052B4"/>
<path d="M47.9956 -2.97351C30.5381 -2.97351 14.8958 4.87576 4.33301 17.271H91.658C81.0954 4.87576 65.4531 -2.97351 47.9956 -2.97351Z" fill="#D80027"/>
<path d="M91.6582 93.1902H4.33301C14.8958 105.586 30.5381 113.435 47.9956 113.435C65.4531 113.435 81.0954 105.586 91.6582 93.1902Z" fill="#D80027"/>
</g>
<path opacity="0.3" d="M93.4701 14.3981L93.47 14.3983L93.4822 14.4018C94.6866 14.7549 95.5 15.8337 95.5 17.0456V65.0752C95.5 71.1781 92.974 77.4661 87.9212 83.7697C84.0613 88.5851 78.7083 93.4359 71.9996 98.1834C60.7254 106.162 49.6195 111.057 49.1631 111.257L49.1628 111.257C48.7937 111.419 48.3974 111.5 48.0004 111.5C47.6037 111.5 47.2072 111.419 46.8379 111.257L46.8377 111.257C46.3811 111.057 35.275 106.162 24.0008 98.1834C17.2921 93.4359 11.939 88.5851 8.07923 83.7697C3.02643 77.4659 0.5 71.1779 0.5 65.0752V17.0456C0.5 15.8338 1.31375 14.7549 2.51788 14.4018L2.51793 14.402L2.52995 14.3981L43.3528 1.29908L43.3655 1.29499L43.378 1.29022C46.1434 0.236576 49.8566 0.23658 52.622 1.2902L52.6345 1.29497L52.6472 1.29906L93.4701 14.3981Z" stroke="#011949"/>
</g>
<defs>
<filter id="filter0_b" x="-30" y="-30" width="156" height="172" filterUnits="userSpaceOnUse" color-interpolation-filters="sRGB">
<feFlood flood-opacity="0" result="BackgroundImageFix"/>
<feGaussianBlur in="BackgroundImage" stdDeviation="15"/>
<feComposite in2="SourceAlpha" operator="in" result="effect1_backgroundBlur"/>
<feBlend mode="normal" in="SourceGraphic" in2="effect1_backgroundBlur" result="shape"/>
</filter>
<linearGradient id="paint0_linear" x1="47.9998" y1="120.733" x2="47.9998" y2="41.6487" gradientUnits="userSpaceOnUse">
<stop stop-color="#216935"/>
<stop offset="1" stop-color="#216935" stop-opacity="0"/>
</linearGradient>
</defs>
</svg>
