<svg width="96" height="112" viewBox="0 0 96 112" fill="none" xmlns="http://www.w3.org/2000/svg">
<g filter="url(#filter0_b)">
<mask id="mask0" mask-type="alpha" maskUnits="userSpaceOnUse" x="5" y="6" width="86" height="100">
<g opacity="0.9">
<path d="M88.0198 19.0537L52.2103 7.56172C49.684 6.59904 46.3156 6.59903 43.7893 7.56174L7.97978 19.0537C6.74217 19.4167 5.89453 20.5306 5.89453 21.794V63.9312C5.89453 69.4118 8.16394 75.0222 12.6393 80.6065C16.0574 84.8714 20.7864 89.154 26.6945 93.3356C36.6198 100.36 46.3933 104.669 46.8045 104.849C47.1847 105.016 47.5925 105.099 48.0002 105.099C48.4079 105.099 48.8156 105.016 49.1959 104.849C49.6069 104.669 59.3802 100.36 69.3055 93.3356C75.2136 89.154 79.9424 84.8714 83.3606 80.6065C87.8361 75.0224 90.1051 69.412 90.1051 63.9312V21.794C90.1051 20.5306 89.2578 19.4167 88.0198 19.0537Z" fill="#24B04B"/>
<path d="M88.0198 19.0537L52.2103 7.56172C49.684 6.59904 46.3156 6.59903 43.7893 7.56174L7.97978 19.0537C6.74217 19.4167 5.89453 20.5306 5.89453 21.794V63.9312C5.89453 69.4118 8.16394 75.0222 12.6393 80.6065C16.0574 84.8714 20.7864 89.154 26.6945 93.3356C36.6198 100.36 46.3933 104.669 46.8045 104.849C47.1847 105.016 47.5925 105.099 48.0002 105.099C48.4079 105.099 48.8156 105.016 49.1959 104.849C49.6069 104.669 59.3802 100.36 69.3055 93.3356C75.2136 89.154 79.9424 84.8714 83.3606 80.6065C87.8361 75.0224 90.1051 69.412 90.1051 63.9312V21.794C90.1051 20.5306 89.2578 19.4167 88.0198 19.0537Z" fill="url(#paint0_linear)"/>
</g>
</mask>
<g mask="url(#mask0)">
<path fill-rule="evenodd" clip-rule="evenodd" d="M-13.4727 53.8635C-13.4727 19.3927 14.0495 -8.54858 47.9991 -8.54858C47.9994 -8.54858 47.9997 -8.54858 48 -8.54858C81.9514 -8.54858 109.474 19.3927 109.474 53.8635C109.474 88.3314 81.9517 116.274 48 116.274C47.9997 116.274 47.9994 116.274 47.9991 116.274C14.0495 116.274 -13.4727 88.3314 -13.4727 53.8635Z" fill="white"/>
<g clip-path="url(#clip0)">
<path d="M47.9999 109.027C78.1931 109.027 102.67 84.1764 102.67 53.5221C102.67 22.8679 78.1931 -1.9823 47.9999 -1.9823C17.8066 -1.9823 -6.66992 22.8679 -6.66992 53.5221C-6.66992 84.1764 17.8066 109.027 47.9999 109.027Z" fill="#F0F0F0"/>
<path d="M45.625 53.5221H102.672C102.672 48.5124 102.014 43.6592 100.788 39.0426H45.625V53.5221Z" fill="#D80027"/>
<path d="M45.625 24.5632H94.6476C91.301 19.0189 87.022 14.1182 82.0329 10.0837H45.625V24.5632Z" fill="#D80027"/>
<path d="M48.0057 109.026C60.8721 109.026 72.6981 104.511 82.0368 96.9602H13.9746C23.3133 104.511 35.1393 109.026 48.0057 109.026Z" fill="#D80027"/>
<path d="M1.35558 82.4807H94.647C97.3337 78.0297 99.4173 73.1644 100.788 68.0012H-4.78516C-3.41478 73.1644 -1.33114 78.0297 1.35558 82.4807Z" fill="#D80027"/>
<path d="M18.6541 6.6855H23.6361L19.002 10.1036L20.7722 15.6343L16.1383 12.2162L11.5044 15.6343L13.0334 10.8564C8.95325 14.3069 5.37708 18.3497 2.43003 22.8542H4.02635L1.07653 25.0299C0.616961 25.8083 0.176186 26.599 -0.246223 27.4014L1.16238 31.803L-1.46562 29.8644C-2.11888 31.2696 -2.7164 32.7064 -3.25349 34.1732L-1.70159 39.0229H4.02635L-0.60777 42.441L1.16238 47.9717L-3.47153 44.5536L-6.2473 46.6012C-6.52513 48.8686 -6.66992 51.1781 -6.66992 53.5221H47.9999C47.9999 22.8681 47.9999 19.2542 47.9999 -1.9823C37.2 -1.9823 27.1324 1.19836 18.6541 6.6855ZM20.7722 47.9717L16.1383 44.5536L11.5044 47.9717L13.2745 42.441L8.64039 39.0229H14.3683L16.1383 33.4922L17.9082 39.0229H23.6361L19.002 42.441L20.7722 47.9717ZM19.002 26.2723L20.7722 31.803L16.1383 28.3849L11.5044 31.803L13.2745 26.2723L8.64039 22.8542H14.3683L16.1383 17.3235L17.9082 22.8542H23.6361L19.002 26.2723ZM40.382 47.9717L35.7481 44.5536L31.1142 47.9717L32.8843 42.441L28.2502 39.0229H33.9781L35.7481 33.4922L37.518 39.0229H43.2459L38.6118 42.441L40.382 47.9717ZM38.6118 26.2723L40.382 31.803L35.7481 28.3849L31.1142 31.803L32.8843 26.2723L28.2502 22.8542H33.9781L35.7481 17.3235L37.518 22.8542H43.2459L38.6118 26.2723ZM38.6118 10.1036L40.382 15.6343L35.7481 12.2162L31.1142 15.6343L32.8843 10.1036L28.2502 6.6855H33.9781L35.7481 1.15478L37.518 6.6855H43.2459L38.6118 10.1036Z" fill="#0052B4"/>
<g clip-path="url(#clip1)">
<path d="M47.8358 109.738C78.0291 109.738 102.506 84.8878 102.506 54.2336C102.506 23.5793 78.0291 -1.27087 47.8358 -1.27087C17.6425 -1.27087 -6.83398 23.5793 -6.83398 54.2336C-6.83398 84.8878 17.6425 109.738 47.8358 109.738Z" fill="#F0F0F0"/>
<path d="M4.46774 20.4414C0.173387 26.1139 -3.06473 32.6519 -4.9502 39.7546H23.4905L4.46774 20.4414Z" fill="#0052B4"/>
<path d="M100.623 39.7546C98.7374 32.6522 95.4991 26.1142 91.2049 20.4417L72.1826 39.7546H100.623Z" fill="#0052B4"/>
<path d="M-4.9502 68.7134C-3.06452 75.8158 0.173601 82.3538 4.46774 88.0261L23.4898 68.7134H-4.9502Z" fill="#0052B4"/>
<path d="M81.1202 10.2032C75.533 5.84326 69.0935 2.5557 62.0977 0.641235V29.5159L81.1202 10.2032Z" fill="#0052B4"/>
<path d="M14.5527 98.264C20.1399 102.624 26.5797 105.912 33.5753 107.826V78.9515L14.5527 98.264Z" fill="#0052B4"/>
<path d="M33.575 0.641235C26.5794 2.5557 20.1397 5.84326 14.5527 10.203L33.575 29.5157V0.641235Z" fill="#0052B4"/>
<path d="M62.0977 107.826C69.0933 105.912 75.533 102.624 81.12 98.2643L62.0977 78.9515V107.826Z" fill="#0052B4"/>
<path d="M72.1826 68.7134L91.2049 88.0263C95.4991 82.354 98.7374 75.8158 100.623 68.7134H72.1826Z" fill="#0052B4"/>
<path d="M102.043 46.9939H54.967H54.9668V-0.801038C52.6324 -1.10956 50.2526 -1.27087 47.8358 -1.27087C45.4186 -1.27087 43.0392 -1.10956 40.705 -0.801038V46.9935V46.9937H-6.37121C-6.6751 49.3637 -6.83398 51.7799 -6.83398 54.2336C-6.83398 56.6877 -6.6751 59.1034 -6.37121 61.4732H40.7046H40.7048V109.268C43.0392 109.577 45.4186 109.738 47.8358 109.738C50.2526 109.738 52.6324 109.577 54.9666 109.268V61.4736V61.4734H102.043C102.347 59.1034 102.506 56.6877 102.506 54.2336C102.506 51.7799 102.347 49.3637 102.043 46.9939Z" fill="#D80027"/>
<path d="M62.0977 68.7134L86.4932 93.4813C87.6152 92.3426 88.6855 91.1521 89.7067 89.918L68.8208 68.7131H62.0977V68.7134Z" fill="#D80027"/>
<path d="M33.5735 68.7133H33.573L9.17773 93.481C10.2993 94.6202 11.4719 95.7068 12.6875 96.7436L33.5735 75.5384V68.7133Z" fill="#D80027"/>
<path d="M33.5739 39.7545V39.754L9.1784 14.9858C8.05639 16.1245 6.98606 17.3151 5.96484 18.5492L26.851 39.7543H33.5739V39.7545Z" fill="#D80027"/>
<path d="M62.0977 39.7546L86.4934 14.9862C85.3718 13.847 84.1992 12.7603 82.9837 11.7238L62.0977 32.9288V39.7546Z" fill="#D80027"/>
</g>
</g>
</g>
<path opacity="0.3" d="M93.4701 14.3981L93.47 14.3983L93.4822 14.4018C94.6866 14.7549 95.5 15.8337 95.5 17.0456V65.0752C95.5 71.1781 92.974 77.4661 87.9212 83.7697C84.0613 88.5851 78.7083 93.4359 71.9996 98.1834C60.7254 106.162 49.6195 111.057 49.1631 111.257L49.1628 111.257C48.7937 111.419 48.3974 111.5 48.0004 111.5C47.6037 111.5 47.2072 111.419 46.8379 111.257L46.8377 111.257C46.3811 111.057 35.275 106.162 24.0008 98.1834C17.2921 93.4359 11.939 88.5851 8.07923 83.7697C3.02643 77.4659 0.5 71.1779 0.5 65.0752V17.0456C0.5 15.8338 1.31375 14.7549 2.51788 14.4018L2.51793 14.402L2.52995 14.3981L43.3528 1.29908L43.3655 1.29499L43.378 1.29022C46.1434 0.236576 49.8566 0.23658 52.622 1.2902L52.6345 1.29497L52.6472 1.29906L93.4701 14.3981Z" stroke="#011949"/>
</g>
<defs>
<filter id="filter0_b" x="-30" y="-30" width="156" height="172" filterUnits="userSpaceOnUse" color-interpolation-filters="sRGB">
<feFlood flood-opacity="0" result="BackgroundImageFix"/>
<feGaussianBlur in="BackgroundImage" stdDeviation="15"/>
<feComposite in2="SourceAlpha" operator="in" result="effect1_backgroundBlur"/>
<feBlend mode="normal" in="SourceGraphic" in2="effect1_backgroundBlur" result="shape"/>
</filter>
<linearGradient id="paint0_linear" x1="47.9998" y1="120.733" x2="47.9998" y2="41.6487" gradientUnits="userSpaceOnUse">
<stop stop-color="#216935"/>
<stop offset="1" stop-color="#216935" stop-opacity="0"/>
</linearGradient>
<clipPath id="clip0">
<rect x="-6.66992" y="-1.9823" width="109.34" height="111.009" fill="white"/>
</clipPath>
<clipPath id="clip1">
<rect x="-6.83398" y="-1.27087" width="109.34" height="111.009" fill="white"/>
</clipPath>
</defs>
</svg>
