<svg width="73" height="245" viewBox="0 0 73 245" fill="none" xmlns="http://www.w3.org/2000/svg">
<path opacity="0.65" d="M0 20C0 8.9543 8.95431 0 20 0H65C69.4183 0 73 3.58172 73 8V46.4382C73 57.4839 64.0457 66.4382 53 66.4382H8C3.58172 66.4382 0 62.8565 0 58.4382V20Z" fill="url(#paint0_linear)"/>
<path opacity="0.65" d="M9 230C9 238.284 15.7157 245 24 245H50.6415C52.8506 245 54.6415 243.209 54.6415 241V219C54.6415 210.716 47.9258 204 39.6415 204H13C10.7909 204 9 205.791 9 208V230Z" fill="url(#paint1_linear)"/>
<defs>
<linearGradient id="paint0_linear" x1="-33.2492" y1="146.251" x2="138.372" y2="144.668" gradientUnits="userSpaceOnUse">
<stop stop-color="#24B04B"/>
<stop offset="1" stop-color="#0263BC"/>
</linearGradient>
<linearGradient id="paint1_linear" x1="37.0675" y1="238.425" x2="2.5771" y2="238.026" gradientUnits="userSpaceOnUse">
<stop stop-color="#FB5F47"/>
<stop offset="1" stop-color="#F9BE5A"/>
</linearGradient>
</defs>
</svg>


