<svg width="400" height="464" viewBox="0 0 400 464" fill="none" xmlns="http://www.w3.org/2000/svg">
<path opacity="0.3" d="M389.943 58.1534L389.955 58.1569C395.63 59.811 399.5 64.8813 399.5 70.6173V269.597C399.5 295.334 388.784 321.72 367.575 348.028C351.375 368.121 328.951 388.314 300.914 408.042C253.81 441.185 207.422 461.517 205.482 462.362L205.482 462.362C203.74 463.121 201.871 463.5 200.002 463.5C198.133 463.5 196.264 463.12 194.522 462.362L194.522 462.362C192.581 461.517 146.192 441.185 99.0877 408.042C71.0507 388.314 48.6259 368.121 32.4271 348.028C11.2183 321.719 0.5 295.333 0.5 269.597V70.6173C0.5 64.8814 4.37174 59.811 10.0449 58.1569L10.0449 58.157L10.0569 58.1532L180.152 3.88585L180.165 3.8818L180.177 3.87708C192.063 -0.625767 207.937 -0.625748 219.823 3.87701L219.835 3.88174L219.848 3.88579L389.943 58.1534Z" stroke="#011949"/>
</svg>
