<svg width="18" height="20" viewBox="0 0 18 20" fill="none" xmlns="http://www.w3.org/2000/svg">
<path opacity="0.5" d="M15.3 1.81818H14.4V0.909091C14.4 0.667985 14.3052 0.436754 14.1364 0.266267C13.9676 0.0957789 13.7387 0 13.5 0C13.2613 0 13.0324 0.0957789 12.8636 0.266267C12.6948 0.436754 12.6 0.667985 12.6 0.909091V1.81818H5.4V0.909091C5.4 0.667985 5.30518 0.436754 5.1364 0.266267C4.96761 0.0957789 4.73869 0 4.5 0C4.2613 0 4.03239 0.0957789 3.8636 0.266267C3.69482 0.436754 3.6 0.667985 3.6 0.909091V1.81818H2.7C1.98392 1.81818 1.29716 2.10552 0.790812 2.61698C0.284464 3.12844 0 3.82214 0 4.54545V17.2727C0 17.996 0.284464 18.6897 0.790812 19.2012C1.29716 19.7127 1.98392 20 2.7 20H15.3C16.0161 20 16.7028 19.7127 17.2092 19.2012C17.7155 18.6897 18 17.996 18 17.2727V4.54545C18 3.82214 17.7155 3.12844 17.2092 2.61698C16.7028 2.10552 16.0161 1.81818 15.3 1.81818ZM16.2 17.2727C16.2 17.5138 16.1052 17.7451 15.9364 17.9156C15.7676 18.086 15.5387 18.1818 15.3 18.1818H2.7C2.46131 18.1818 2.23239 18.086 2.0636 17.9156C1.89482 17.7451 1.8 17.5138 1.8 17.2727V9.09091H16.2V17.2727ZM16.2 7.27273H1.8V4.54545C1.8 4.30435 1.89482 4.07312 2.0636 3.90263C2.23239 3.73214 2.46131 3.63636 2.7 3.63636H3.6V4.54545C3.6 4.78656 3.69482 5.01779 3.8636 5.18828C4.03239 5.35877 4.2613 5.45455 4.5 5.45455C4.73869 5.45455 4.96761 5.35877 5.1364 5.18828C5.30518 5.01779 5.4 4.78656 5.4 4.54545V3.63636H12.6V4.54545C12.6 4.78656 12.6948 5.01779 12.8636 5.18828C13.0324 5.35877 13.2613 5.45455 13.5 5.45455C13.7387 5.45455 13.9676 5.35877 14.1364 5.18828C14.3052 5.01779 14.4 4.78656 14.4 4.54545V3.63636H15.3C15.5387 3.63636 15.7676 3.73214 15.9364 3.90263C16.1052 4.07312 16.2 4.30435 16.2 4.54545V7.27273Z" fill="#011949"/>
</svg>
