<svg width="20" height="20" viewBox="0 0 20 20" fill="none" xmlns="http://www.w3.org/2000/svg">
<path fill-rule="evenodd" clip-rule="evenodd" d="M8.2368 2.19669C9.9195 1.81652 11.68 1.99045 13.2558 2.69255C13.7602 2.91732 14.3514 2.69058 14.5762 2.1861C14.801 1.68163 14.5742 1.09046 14.0697 0.865682C12.1 -0.011939 9.89941 -0.229355 7.79605 0.245858C5.69269 0.72107 3.7993 1.86345 2.39825 3.50263C0.997195 5.14181 0.16356 7.18996 0.0216765 9.34163C-0.120207 11.4933 0.437261 13.6332 1.61094 15.4421C2.78461 17.2511 4.51161 18.6322 6.53436 19.3795C8.55711 20.1267 10.7672 20.2002 12.8351 19.5888C14.903 18.9774 16.7178 17.7139 18.009 15.9869C19.3001 14.2598 19.9984 12.1616 19.9996 10.0053V10.0047V9.17675C19.9996 8.62447 19.5519 8.17675 18.9996 8.17675C18.4474 8.17675 17.9996 8.62447 17.9996 9.17675V10.0041C17.9987 11.7292 17.4401 13.4077 16.4071 14.7893C15.3742 16.171 13.9224 17.1817 12.2681 17.6708C10.6138 18.16 8.84565 18.1012 7.22745 17.5034C5.60925 16.9056 4.22766 15.8007 3.28873 14.3535C2.3498 12.9064 1.90384 11.1945 2.01734 9.47322C2.13085 7.75192 2.79774 6.11343 3.91857 4.8021C5.0394 3.49076 6.55411 2.57686 8.2368 2.19669ZM19.708 3.51181C20.0983 3.1211 20.098 2.48794 19.7073 2.0976C19.3166 1.70727 18.6834 1.70757 18.2931 2.09829L10.0004 10.3991L8.00788 8.40663C7.61735 8.01611 6.98418 8.01612 6.59366 8.40665C6.20315 8.79718 6.20315 9.43034 6.59368 9.82086L9.29363 12.5207C9.48123 12.7083 9.73568 12.8137 10.001 12.8136C10.2663 12.8135 10.5207 12.7081 10.7082 12.5204L19.708 3.51181Z" fill="url(#paint0_linear)"/>
<defs>
<linearGradient id="paint0_linear" x1="-9.10962" y1="44.0242" x2="37.9118" y2="43.6294" gradientUnits="userSpaceOnUse">
<stop stop-color="#24B04B"/>
<stop offset="1" stop-color="#0263BC"/>
</linearGradient>
</defs>
</svg>
