<svg width="17" height="17" viewBox="0 0 17 17" fill="none" xmlns="http://www.w3.org/2000/svg">
<path d="M7.59337 1.03782C7.47035 1.15973 7.37271 1.30477 7.30608 1.46458C7.23945 1.62439 7.20514 1.7958 7.20514 1.96893C7.20514 2.14205 7.23945 2.31346 7.30608 2.47327C7.37271 2.63307 7.47035 2.77812 7.59337 2.90003L11.9245 7.2146L1.96286 7.2146C1.61477 7.2146 1.28094 7.35277 1.0348 7.59871C0.788668 7.84465 0.65039 8.17821 0.65039 8.52602C0.65039 8.87383 0.788668 9.2074 1.0348 9.45333C1.28094 9.69927 1.61477 9.83744 1.96286 9.83744L11.9245 9.83744L7.59337 14.152C7.34623 14.399 7.20738 14.7339 7.20738 15.0831C7.20738 15.4323 7.34623 15.7673 7.59337 16.0142C7.84051 16.2612 8.17571 16.3999 8.52522 16.3999C8.87474 16.3999 9.20994 16.2612 9.45708 16.0142L16.0194 9.45713C16.1389 9.33241 16.2326 9.18534 16.2951 9.02436C16.3645 8.86738 16.4004 8.69765 16.4004 8.52602C16.4004 8.35439 16.3645 8.18466 16.2951 8.02768C16.2326 7.8667 16.1389 7.71963 16.0194 7.59491L9.45708 1.03782C9.33507 0.914901 9.18991 0.817337 9.02997 0.750758C8.87003 0.684179 8.69849 0.649902 8.52522 0.649902C8.35196 0.649902 8.18041 0.684179 8.02048 0.750758C7.86054 0.817337 7.71538 0.914901 7.59337 1.03782Z" fill="url(#paint0_linear)"/>
<defs>
<linearGradient id="paint0_linear" x1="35.3209" y1="23.5735" x2="35.01" y2="-13.4548" gradientUnits="userSpaceOnUse">
<stop stop-color="#24B04B"/>
<stop offset="1" stop-color="#0263BC"/>
</linearGradient>
</defs>
</svg>
