<svg width="23" height="22" viewBox="0 0 23 22" fill="none" xmlns="http://www.w3.org/2000/svg">
<rect opacity="0.15" x="0.709961" width="21.7948" height="21.9969" rx="1.39281" fill="white"/>
<path d="M15.2638 8.15871C15.2131 8.10765 15.1529 8.06712 15.0865 8.03946C15.0201 8.0118 14.9489 7.99756 14.8769 7.99756C14.805 7.99756 14.7338 8.0118 14.6674 8.03946C14.601 8.06712 14.5407 8.10765 14.49 8.15871L10.4305 12.223L8.72498 10.5123C8.67238 10.4615 8.6103 10.4216 8.54226 10.3948C8.47423 10.3679 8.40158 10.3548 8.32846 10.3561C8.25535 10.3573 8.1832 10.373 8.11613 10.4021C8.04907 10.4313 7.9884 10.4733 7.93759 10.5259C7.88679 10.5785 7.84684 10.6406 7.82003 10.7086C7.79322 10.7766 7.78007 10.8493 7.78133 10.9224C7.7826 10.9955 7.79825 11.0676 7.8274 11.1347C7.85655 11.2017 7.89862 11.2624 7.95122 11.3132L10.0436 13.4053C10.0943 13.4563 10.1546 13.4968 10.221 13.5245C10.2874 13.5522 10.3586 13.5664 10.4305 13.5664C10.5025 13.5664 10.5737 13.5522 10.6401 13.5245C10.7065 13.4968 10.7667 13.4563 10.8174 13.4053L15.2638 8.95959C15.3191 8.90857 15.3633 8.84665 15.3934 8.77773C15.4236 8.70881 15.4392 8.63439 15.4392 8.55915C15.4392 8.48391 15.4236 8.40949 15.3934 8.34057C15.3633 8.27165 15.3191 8.20973 15.2638 8.15871Z" fill="white" stroke="white" stroke-width="0.348201"/>
</svg>
