<svg width="38" height="42" viewBox="0 0 38 42" fill="none" xmlns="http://www.w3.org/2000/svg">
<path d="M0.273569 2.77582C0.995273 0.695398 3.49275 -0.505574 5.58379 0.205553C7.7565 0.806985 9.11634 3.29782 8.46301 5.44633C13.0477 8.89416 17.6268 12.3514 22.1944 15.822C23.2503 15.247 24.4222 14.9501 25.5997 14.742C25.632 14.377 25.6491 14.012 25.6187 13.6489C25.6282 12.3609 25.5028 11.0578 25.6927 9.78117C24.445 9.08518 23.4555 7.89366 23.3263 6.43548C23.3263 6.29552 23.3263 6.01561 23.3263 5.87565C23.4631 4.87516 23.8961 3.88034 24.6938 3.22595C26.0156 2.04578 28.1864 1.98148 29.5843 3.06897C30.8339 3.97112 31.3999 5.68463 30.9802 7.15606C30.7219 8.30029 29.8539 9.19298 28.8227 9.70552C28.8208 11.3812 28.8227 13.0569 28.8208 14.7345C31.5689 15.1392 34.1557 16.6012 35.8403 18.8102C37.637 21.1138 38.4061 24.2118 37.7908 27.0714C37.2362 29.984 35.3085 32.5807 32.7275 34.0389C29.1056 36.1609 24.2987 35.8243 20.8573 33.4961C19.4766 34.9203 18.0047 36.265 16.6676 37.725C16.9088 38.7293 16.8101 39.8528 16.1226 40.6698C15.266 41.8859 13.5529 42.3171 12.1893 41.7592C10.4534 41.0915 9.54557 38.8258 10.4876 37.1879C11.215 35.6976 13.0724 35.03 14.626 35.5519C15.9858 34.2091 17.3324 32.855 18.6903 31.5121C16.9639 29.3863 16.265 26.5664 16.5575 23.8713C16.7018 21.4126 17.999 19.1677 19.7159 17.4504C15.304 14.3052 10.8883 11.1618 6.51061 7.96742C6.02441 8.23599 5.50212 8.43268 4.96275 8.57075C3.57062 8.73718 2.11391 8.26057 1.15861 7.22793C0.0399646 6.07424 -0.298097 4.26805 0.273569 2.77582ZM26.0365 19.5043C23.2655 20.1076 21.2315 22.954 21.5126 25.7569C21.8525 28.6204 24.6368 30.9958 27.5445 30.7821C29.0905 30.7254 30.4845 29.8402 31.4702 28.6998C32.4787 27.5991 33.075 26.0841 32.8984 24.5862C32.7066 23.0864 32.002 21.6207 30.8055 20.6656C29.514 19.5497 27.6926 19.1696 26.0365 19.5043Z" fill="#ff7a59"/>
</svg>
