<svg width="15" height="15" viewBox="0 0 15 15" fill="none" xmlns="http://www.w3.org/2000/svg">
<path d="M6.61237 0.369445C6.49521 0.485553 6.40222 0.623689 6.33876 0.775888C6.2753 0.928086 6.24263 1.09133 6.24263 1.25621C6.24263 1.42109 6.2753 1.58434 6.33876 1.73654C6.40222 1.88874 6.49521 2.02687 6.61237 2.14298L10.7373 6.25209L1.24998 6.2521C0.918461 6.2521 0.600525 6.38368 0.366109 6.61791C0.131693 6.85214 -3.42268e-07 7.16982 -3.27789e-07 7.50107C-3.1331e-07 7.83231 0.131693 8.14999 0.366109 8.38422C0.600525 8.61845 0.918461 8.75004 1.24998 8.75004L10.7373 8.75004L6.61237 12.8591C6.377 13.0943 6.24476 13.4133 6.24476 13.7459C6.24476 14.0785 6.377 14.3975 6.61237 14.6327C6.84775 14.8679 7.16698 15 7.49986 15C7.83273 15 8.15196 14.8679 8.38734 14.6327L14.6372 8.38783C14.751 8.26905 14.8402 8.12899 14.8997 7.97567C14.9658 7.82617 15 7.66452 15 7.50107C15 7.33761 14.9658 7.17596 14.8997 7.02646C14.8402 6.87314 14.751 6.73308 14.6372 6.6143L8.38734 0.369444C8.27114 0.252381 8.13289 0.159463 7.98057 0.0960537C7.82824 0.0326449 7.66487 6.18632e-07 7.49985 6.25845e-07C7.33484 6.33058e-07 7.17146 0.0326449 7.01914 0.0960538C6.86682 0.159463 6.72857 0.252381 6.61237 0.369445Z" fill="#011949"/>
</svg>


