<svg width="7" height="10" viewBox="0 0 7 10" fill="none" xmlns="http://www.w3.org/2000/svg">
<path d="M1.19816 5.34227L4.78846 9.08918C4.85541 9.15905 4.93489 9.21448 5.02237 9.25229C5.10985 9.29011 5.2036 9.30957 5.29828 9.30957C5.4895 9.30957 5.67289 9.23029 5.80811 9.08918C5.87506 9.01931 5.92817 8.93636 5.9644 8.84507C6.00063 8.75378 6.01928 8.65593 6.01928 8.55712C6.01928 8.35756 5.94332 8.16617 5.80811 8.02506L2.72045 4.81021L5.80811 1.59536C5.87541 1.52569 5.92883 1.44281 5.96528 1.35149C6.00174 1.26017 6.02051 1.16222 6.02051 1.0633C6.02051 0.96437 6.00174 0.866422 5.96528 0.775103C5.92883 0.683784 5.87541 0.600902 5.80811 0.531237C5.74135 0.460999 5.66194 0.405248 5.57443 0.367202C5.48693 0.329157 5.39308 0.30957 5.29828 0.30957C5.20349 0.30957 5.10964 0.329157 5.02214 0.367202C4.93463 0.405248 4.85522 0.460998 4.78846 0.531237L1.19816 4.27815C1.13086 4.34781 1.07744 4.43069 1.04098 4.52201C1.00453 4.61333 0.985761 4.71128 0.985761 4.81021C0.985761 4.90914 1.00453 5.00708 1.04098 5.0984C1.07744 5.18972 1.13086 5.27261 1.19816 5.34227Z" fill="white"/>
</svg>
