<svg width="543" height="559" viewBox="0 0 543 559" fill="none" xmlns="http://www.w3.org/2000/svg">
<g filter="url(#filter0_b)">
<path d="M172.176 426.403C172.176 442 159.532 454.645 143.934 454.645H88.6532C86.0536 454.645 83.9462 452.537 83.9462 449.938V400.953C83.9462 385.355 96.5905 372.711 112.188 372.711H167.469C170.068 372.711 172.176 374.818 172.176 377.418V426.403Z" fill="url(#paint0_linear)"/>
<g filter="url(#filter1_b)">
<path opacity="0.9" d="M464.285 189.711C464.285 205.309 451.641 217.953 436.043 217.953H394.708C392.109 217.953 390.001 215.846 390.001 213.246V171.911C390.001 156.313 402.645 143.669 418.243 143.669H459.578C462.178 143.669 464.285 145.777 464.285 148.376V189.711Z" fill="url(#paint1_linear)"/>
</g>
<g filter="url(#filter2_b)">
<g filter="url(#filter3_b)">
<path d="M433.833 81.7589L272.02 25.57C264.37 23.4558 252.98 23.4558 244.839 25.57L83.0223 81.7589C77.598 83.5337 73.8828 88.98 73.8828 95.1576V301.183C73.8828 327.98 83.8295 355.411 103.445 382.715C118.426 403.568 139.153 424.507 165.048 444.953C208.55 479.298 251.386 500.368 253.189 501.247C254.855 502.061 256.642 502.469 258.429 502.469C260.216 502.469 262.003 502.062 263.67 501.247C265.471 500.368 308.307 479.298 351.809 444.953C377.704 424.507 398.43 403.568 413.412 382.715C433.027 355.412 442.972 327.981 442.972 301.183V95.1576C442.972 88.98 439.259 83.5337 433.833 81.7589Z" fill="#D6E6ED"/>
</g>
<g opacity="0.5" filter="url(#filter4_b)">
<path d="M446.254 68.8078L446.262 68.8104C451.858 70.6421 455.724 76.2821 455.724 82.7216V303.508C455.724 332.105 445.121 361.408 424.161 390.607C408.152 412.91 385.993 435.319 358.293 457.209C311.753 493.985 265.922 516.546 264.006 517.483L264.005 517.483C262.285 518.325 260.443 518.744 258.601 518.744C256.76 518.744 254.917 518.324 253.197 517.483L253.196 517.483C251.279 516.546 205.448 493.985 158.908 457.209C131.207 435.319 109.048 412.91 93.039 390.607C72.0791 361.407 61.4746 332.104 61.4746 303.508V82.7216C61.4746 76.2822 65.3426 70.6421 70.9362 68.8104L70.9362 68.8105L70.9443 68.8077L244.186 8.59931C252.821 6.35922 264.912 6.36141 273.013 8.59812L446.254 68.8078Z" stroke="white" stroke-width="0.941393"/>
</g>
</g>
<g filter="url(#filter5_dd)">
<path fill-rule="evenodd" clip-rule="evenodd" d="M179.925 302.808C178.694 301.21 177.771 299.612 176.848 298.014C176.511 297.577 176.221 297.14 175.926 296.696C175.142 295.518 174.328 294.294 172.54 292.901C171.925 291.943 171.309 290.984 171.002 290.025C170.386 289.067 170.079 288.428 169.771 287.469V287.149V286.83L169.155 285.552H167.925H145.154H143L143.308 287.788C143.615 291.304 144.539 293.86 145.462 296.417C146.05 298.046 146.889 299.676 147.898 301.637C148.471 302.752 149.1 303.974 149.77 305.364L150.077 306.003C151 307.921 152.231 309.838 153.462 311.755C154.078 312.714 154.77 313.673 155.462 314.631C156.155 315.59 156.847 316.549 157.462 317.507C158.693 319.744 160.232 321.662 161.77 323.579C162.242 324.167 162.714 324.785 163.194 325.415C164.281 326.838 165.414 328.321 166.694 329.651C168.232 331.568 170.079 333.805 171.925 335.722C172.848 336.681 173.848 337.64 174.848 338.599C175.848 339.557 176.848 340.516 177.771 341.474C179.618 343.392 181.772 345.309 183.926 347.227L190.387 352.979C191.588 353.869 192.789 354.859 194.043 355.893C195.038 356.714 196.068 357.563 197.157 358.411C198.388 359.37 199.542 360.249 200.696 361.127C201.85 362.006 203.004 362.885 204.234 363.844C205.465 364.802 206.696 365.681 207.927 366.56C209.158 367.439 210.389 368.317 211.619 369.276C212.541 369.874 213.462 370.517 214.4 371.171C215.967 372.264 217.579 373.389 219.312 374.389C222.082 376.306 224.543 377.904 227.313 379.502L235.621 384.295C237.006 385.094 238.467 385.893 239.929 386.692C241.391 387.491 242.852 388.29 244.237 389.089C246.062 390.142 247.886 391.056 249.799 392.014C250.789 392.51 251.803 393.018 252.853 393.563L256.545 395.48L257.776 396.119L258.699 396.439L259.622 396.119L260.853 395.48L264.546 393.563C267.315 392.284 270.392 390.687 273.162 389.089C276.239 387.491 279.008 385.893 281.777 384.295C284.855 382.698 287.624 381.1 290.086 379.502C292.118 378.33 294.15 376.985 296.06 375.721C296.753 375.263 297.431 374.815 298.086 374.389C299.819 373.389 301.431 372.264 302.999 371.171C303.936 370.517 304.858 369.874 305.779 369.276C308.241 367.359 310.702 365.441 313.164 363.844C314.074 363.134 314.985 362.469 315.88 361.815C317.405 360.701 318.884 359.619 320.241 358.411C320.744 358.02 321.234 357.642 321.713 357.271C323.582 355.828 325.297 354.505 327.011 352.979L333.473 347.227C335.627 345.309 337.781 343.392 339.627 341.474C341.781 339.557 343.627 337.64 345.473 335.723L345.474 335.722C346.358 334.65 347.243 333.652 348.094 332.692C349.019 331.648 349.903 330.649 350.705 329.651C351.985 328.321 353.117 326.838 354.204 325.415C354.684 324.785 355.156 324.167 355.628 323.579C356.293 322.612 356.958 321.705 357.598 320.832C358.439 319.685 359.237 318.596 359.936 317.507C361.475 315.59 362.705 313.673 363.936 311.755C365.167 309.838 366.398 307.921 367.321 306.003L367.629 305.364C367.886 304.878 368.135 304.41 368.375 303.959C371.289 298.476 372.93 295.388 373.783 290.664C374.706 285.871 374.706 279.799 374.706 267.656V242.411V240.494H372.86H351.012H349.166H326.088C329.165 225.474 330.703 209.177 330.396 191.281C281.777 174.984 237.467 174.984 188.849 191.281C188.541 209.177 190.08 225.474 193.157 240.494H170.079V185.849V185.529L170.386 185.21C172.527 183.209 174.818 181.362 177.05 179.562C178.025 178.776 178.989 177.998 179.925 177.221C183.002 174.664 186.387 172.427 189.772 170.191C192.284 168.531 194.965 167.047 197.564 165.608C198.467 165.108 199.361 164.614 200.234 164.119C203.619 162.202 207.312 160.604 211.004 159.006C214.697 157.408 218.697 156.13 222.697 154.852C226.697 153.573 230.698 152.615 234.698 151.656C238.698 150.697 243.006 150.058 247.006 149.739C251.006 149.419 255.314 149.1 259.315 149.1C263.315 149.1 267.623 149.419 271.623 149.739C273.007 149.96 274.428 150.143 275.861 150.327C278.568 150.676 281.316 151.029 283.931 151.656C287.932 152.615 291.932 153.573 295.932 154.852C299.932 156.13 303.625 157.408 307.625 159.006C311.318 160.604 314.703 162.202 318.395 164.119C319.268 164.614 320.162 165.108 321.066 165.608C323.665 167.047 326.346 168.531 328.857 170.191C332.242 172.427 335.319 174.664 338.704 177.221C342.089 179.777 345.166 182.334 348.243 185.21L348.551 185.529V185.849V219.722V221.64H350.397H372.244H374.091V220.361V180.416V176.901V175.623V174.664L373.475 174.025L372.552 173.067L370.09 170.51C366.398 166.675 362.398 163.16 358.398 159.645L358.397 159.645C354.397 156.13 350.089 152.934 345.781 150.058C341.473 146.863 337.165 144.306 332.55 141.75C327.934 139.193 323.318 136.956 318.703 135.039C314.087 132.802 309.164 131.204 304.24 129.606C299.317 128.009 294.394 126.73 289.47 125.772C284.547 124.813 279.624 123.854 274.392 123.215C269.469 122.896 264.238 122.576 259.315 122.576C254.391 122.576 249.16 122.896 244.237 123.535C239.313 123.854 234.082 124.813 229.159 125.772C224.236 126.73 219.005 128.009 214.081 129.606C209.158 131.204 204.234 133.122 199.619 135.039C195.003 136.956 190.387 139.193 185.772 141.75C181.464 144.306 176.848 147.182 172.54 150.058C168.232 152.934 163.924 156.13 159.924 159.645L159.924 159.645C155.924 163.16 151.924 166.675 148.231 170.51L145.769 172.747L144.846 173.706L144.231 174.025V174.984V176.262V179.777V265.739V267.656H146.077H155.001H156.847H167.925H169.771H199.926C211.312 297.375 231.005 322.62 258.699 347.227C286.701 322.62 306.087 297.375 317.472 267.656H348.243V268.295V270.213V272.13V272.45V273.408V278.521C348.089 279.32 348.012 280.119 347.935 280.918C347.858 281.717 347.781 282.516 347.628 283.315C347.474 283.634 347.397 284.034 347.32 284.433C347.243 284.833 347.166 285.232 347.012 285.552C346.858 286.031 346.704 286.43 346.551 286.83C346.397 287.229 346.243 287.629 346.089 288.108C345.996 288.302 345.874 288.524 345.742 288.768C345.437 289.328 345.073 289.996 344.858 290.664C344.55 291.144 344.32 291.623 344.089 292.103C343.858 292.582 343.627 293.061 343.32 293.541C342.704 294.819 341.781 296.416 340.858 298.014L340.858 298.014C339.935 299.612 339.012 301.21 337.781 302.808L334.088 307.601C332.857 309.199 331.627 310.797 330.088 312.395C328.55 314.312 327.011 315.91 325.473 317.507L325.472 317.507C324.97 318.029 324.469 318.584 323.956 319.151C322.897 320.322 321.793 321.544 320.549 322.62C319.01 324.218 317.164 326.136 315.318 327.733C313.779 329.331 311.933 331.249 309.779 332.846C308.856 333.645 307.856 334.444 306.856 335.243C305.856 336.042 304.856 336.841 303.933 337.64C302.856 338.439 301.856 339.238 300.856 340.036C299.856 340.835 298.855 341.634 297.778 342.433C296.626 343.43 295.354 344.303 294.037 345.207C293.243 345.751 292.434 346.306 291.624 346.907C290.547 347.706 289.47 348.425 288.393 349.144C287.316 349.863 286.239 350.582 285.162 351.381C284.085 352.02 283.008 352.739 281.931 353.458C280.854 354.177 279.777 354.896 278.7 355.535L272.238 359.37C271.008 360.222 269.503 361.074 267.999 361.926C267.247 362.352 266.495 362.778 265.777 363.205C264.7 363.844 263.546 364.483 262.392 365.122C261.238 365.761 260.084 366.4 259.007 367.039L258.699 367.359L258.391 367.039C256.238 365.761 254.084 364.483 251.622 363.205L245.16 359.37C242.698 358.092 240.544 356.813 238.698 355.535C237.374 354.553 236.049 353.691 234.797 352.876C234.012 352.365 233.255 351.873 232.544 351.381C231.467 350.582 230.39 349.863 229.313 349.144C228.236 348.425 227.159 347.706 226.082 346.907C224.236 345.629 222.082 344.031 219.928 342.433C218.851 341.634 217.851 340.835 216.85 340.036C215.85 339.238 214.85 338.439 213.773 337.64C211.619 336.042 209.773 334.444 207.927 332.846C206.081 330.929 204.234 329.331 202.388 327.733C201.465 326.935 200.619 326.056 199.773 325.177C198.926 324.298 198.08 323.419 197.157 322.62L192.234 317.507C190.695 315.59 189.157 313.992 187.618 312.395C187.003 311.596 186.31 310.797 185.618 309.998C184.926 309.199 184.233 308.4 183.618 307.601C182.592 306.536 181.84 305.471 181.088 304.406C180.712 303.873 180.336 303.34 179.925 302.808ZM213.466 208.857C242.083 200.868 276.854 201.188 305.163 208.857C303.933 248.802 286.701 286.51 259.315 314.631C231.928 286.83 214.697 248.802 213.466 208.857ZM271.625 235.701C271.625 228.671 266.087 222.919 259.317 222.919C252.547 222.919 247.009 228.99 247.009 235.701C247.009 240.175 249.163 244.329 252.547 246.566L247.009 268.935H259.317H271.625L266.087 246.566C269.472 244.329 271.625 240.175 271.625 235.701Z" fill="url(#paint2_linear)"/>
</g>
<g filter="url(#filter6_bd)">
<path opacity="0.75" d="M66.1992 61.7699C66.1992 77.3674 78.8435 90.0117 94.441 90.0117H137.682C140.281 90.0117 142.389 87.9043 142.389 85.3048V47.501C142.389 31.9035 129.744 19.2592 114.147 19.2592H70.9062C68.3066 19.2592 66.1992 21.3665 66.1992 23.9661V61.7699Z" fill="url(#paint3_linear)"/>
<path opacity="0.75" d="M477 109.871C477 125.469 464.356 138.113 448.758 138.113H405.518C402.918 138.113 400.811 136.006 400.811 133.406V95.6025C400.811 80.005 413.455 67.3607 429.052 67.3607H472.293C474.893 67.3607 477 69.4681 477 72.0677V109.871Z" fill="url(#paint4_linear)"/>
<path opacity="0.75" d="M367.219 427.135C367.219 437.533 375.648 445.963 386.047 445.963H418.968C421.567 445.963 423.675 443.856 423.675 441.256V412.173C423.675 401.775 415.245 393.345 404.847 393.345H371.926C369.326 393.345 367.219 395.452 367.219 398.052V427.135Z" fill="white"/>
</g>
</g>
<defs>
<filter id="filter0_b" x="46.883" y="-7.67168" width="444.24" height="541.007" filterUnits="userSpaceOnUse" color-interpolation-filters="sRGB">
<feFlood flood-opacity="0" result="BackgroundImageFix"/>
<feGaussianBlur in="BackgroundImage" stdDeviation="7.06045"/>
<feComposite in2="SourceAlpha" operator="in" result="effect1_backgroundBlur"/>
<feBlend mode="normal" in="SourceGraphic" in2="effect1_backgroundBlur" result="shape"/>
</filter>
<filter id="filter1_b" x="361.758" y="115.428" width="130.768" height="130.768" filterUnits="userSpaceOnUse" color-interpolation-filters="sRGB">
<feFlood flood-opacity="0" result="BackgroundImageFix"/>
<feGaussianBlur in="BackgroundImage" stdDeviation="14.1209"/>
<feComposite in2="SourceAlpha" operator="in" result="effect1_backgroundBlur"/>
<feBlend mode="normal" in="SourceGraphic" in2="effect1_backgroundBlur" result="shape"/>
</filter>
<filter id="filter2_b" x="13.9342" y="-40.6204" width="489.33" height="606.905" filterUnits="userSpaceOnUse" color-interpolation-filters="sRGB">
<feFlood flood-opacity="0" result="BackgroundImageFix"/>
<feGaussianBlur in="BackgroundImage" stdDeviation="23.5348"/>
<feComposite in2="SourceAlpha" operator="in" result="effect1_backgroundBlur"/>
<feBlend mode="normal" in="SourceGraphic" in2="effect1_backgroundBlur" result="shape"/>
</filter>
<filter id="filter3_b" x="55.0549" y="5.15651" width="406.745" height="516.14" filterUnits="userSpaceOnUse" color-interpolation-filters="sRGB">
<feFlood flood-opacity="0" result="BackgroundImageFix"/>
<feGaussianBlur in="BackgroundImage" stdDeviation="9.41393"/>
<feComposite in2="SourceAlpha" operator="in" result="effect1_backgroundBlur"/>
<feBlend mode="normal" in="SourceGraphic" in2="effect1_backgroundBlur" result="shape"/>
</filter>
<filter id="filter4_b" x="42.176" y="-12.3786" width="432.846" height="550.421" filterUnits="userSpaceOnUse" color-interpolation-filters="sRGB">
<feFlood flood-opacity="0" result="BackgroundImageFix"/>
<feGaussianBlur in="BackgroundImage" stdDeviation="9.41393"/>
<feComposite in2="SourceAlpha" operator="in" result="effect1_backgroundBlur"/>
<feBlend mode="normal" in="SourceGraphic" in2="effect1_backgroundBlur" result="shape"/>
</filter>
<filter id="filter5_dd" x="67.6885" y="47.2647" width="382.329" height="424.485" filterUnits="userSpaceOnUse" color-interpolation-filters="sRGB">
<feFlood flood-opacity="0" result="BackgroundImageFix"/>
<feColorMatrix in="SourceAlpha" type="matrix" values="0 0 0 0 0 0 0 0 0 0 0 0 0 0 0 0 0 0 127 0"/>
<feOffset dx="28.2418" dy="28.2418"/>
<feGaussianBlur stdDeviation="23.5348"/>
<feColorMatrix type="matrix" values="0 0 0 0 0.395677 0 0 0 0 0.407012 0 0 0 0 0.445833 0 0 0 0.5 0"/>
<feBlend mode="normal" in2="BackgroundImageFix" result="effect1_dropShadow"/>
<feColorMatrix in="SourceAlpha" type="matrix" values="0 0 0 0 0 0 0 0 0 0 0 0 0 0 0 0 0 0 127 0"/>
<feOffset dx="-28.2418" dy="-28.2418"/>
<feGaussianBlur stdDeviation="23.5348"/>
<feColorMatrix type="matrix" values="0 0 0 0 1 0 0 0 0 1 0 0 0 0 1 0 0 0 1 0"/>
<feBlend mode="normal" in2="effect1_dropShadow" result="effect2_dropShadow"/>
<feBlend mode="normal" in="SourceGraphic" in2="effect2_dropShadow" result="shape"/>
</filter>
<filter id="filter6_bd" x="0.301697" y="0.4319" width="542.598" height="558.499" filterUnits="userSpaceOnUse" color-interpolation-filters="sRGB">
<feFlood flood-opacity="0" result="BackgroundImageFix"/>
<feGaussianBlur in="BackgroundImage" stdDeviation="9.41393"/>
<feComposite in2="SourceAlpha" operator="in" result="effect1_backgroundBlur"/>
<feColorMatrix in="SourceAlpha" type="matrix" values="0 0 0 0 0 0 0 0 0 0 0 0 0 0 0 0 0 0 127 0"/>
<feOffset dy="47.0697"/>
<feGaussianBlur stdDeviation="32.9488"/>
<feColorMatrix type="matrix" values="0 0 0 0 0.172448 0 0 0 0 0.231802 0 0 0 0 0.320833 0 0 0 0.15 0"/>
<feBlend mode="normal" in2="effect1_backgroundBlur" result="effect2_dropShadow"/>
<feBlend mode="normal" in="SourceGraphic" in2="effect2_dropShadow" result="shape"/>
</filter>
<linearGradient id="paint0_linear" x1="128.061" y1="454.645" x2="128.061" y2="372.711" gradientUnits="userSpaceOnUse">
<stop stop-color="#FEA496"/>
<stop offset="1" stop-color="#FCD798"/>
</linearGradient>
<linearGradient id="paint1_linear" x1="427.143" y1="217.953" x2="427.143" y2="143.669" gradientUnits="userSpaceOnUse">
<stop stop-color="#FEA496"/>
<stop offset="1" stop-color="#FCD798"/>
</linearGradient>
<linearGradient id="paint2_linear" x1="37.4651" y1="725.431" x2="582.219" y2="721.562" gradientUnits="userSpaceOnUse">
<stop stop-color="#24B04B"/>
<stop offset="1" stop-color="#0263BC"/>
</linearGradient>
<linearGradient id="paint3_linear" x1="104.294" y1="90.0117" x2="104.294" y2="19.2592" gradientUnits="userSpaceOnUse">
<stop stop-color="#A4DDBB"/>
<stop offset="1" stop-color="#F3EEB2"/>
</linearGradient>
<linearGradient id="paint4_linear" x1="438.905" y1="138.113" x2="438.905" y2="67.3607" gradientUnits="userSpaceOnUse">
<stop stop-color="#FEA496"/>
<stop offset="1" stop-color="#FCD798"/>
</linearGradient>
</defs>
</svg>
