<svg width="113" height="23" viewBox="0 0 113 23" fill="none" xmlns="http://www.w3.org/2000/svg">
<path d="M6.51382 7.95091C7.641 5.44568 10.2005 3.77198 12.8713 3.22706C17.3369 2.42383 22.0861 5.58014 23.0015 9.96075C23.1595 10.8312 23.1343 11.7229 23.1056 12.6004C21.3825 12.9755 19.6092 12.8411 17.8574 12.8552C14.3825 12.8411 10.9077 12.8764 7.43279 12.8481C6.93023 12.7774 6.11535 12.834 5.93228 12.2501C5.51946 11.5035 6.26253 10.6437 7.05946 10.7144C11.7261 10.6578 16.3928 10.7321 21.0631 10.6826C20.4743 8.50291 18.9954 6.47891 16.7625 5.73583C14.5441 4.74152 11.8948 5.34306 10.0533 6.81506C9.18818 7.51568 8.70715 8.55598 7.89946 9.30614C7.06305 9.5786 6.19792 8.77537 6.51382 7.95091Z" fill="#030D21"/>
<path d="M6.48503 14.9677C6.72195 14.5218 7.1599 14.2246 7.49734 13.8601C8.44862 14.6811 9.03016 15.8098 9.90247 16.7015C12.0599 18.8777 15.8291 19.1077 18.3384 17.3915C19.5302 16.6732 20.1081 15.3746 21.0127 14.3838C21.605 13.5417 22.9081 14.7129 22.5276 15.5232C21.9281 17.2288 20.4886 18.538 18.9738 19.4792C15.1579 21.7721 9.69785 20.5195 7.23888 16.8608C6.89426 16.284 6.37375 15.6824 6.48503 14.9677Z" fill="#030D21"/>
<path d="M28.7553 6.2631C30.5035 6.00125 32.2768 6.13217 34.0394 6.09325C34.9692 6.06848 35.9169 6.10386 36.7963 6.44356C36.764 6.93894 36.7174 7.43079 36.6635 7.92263C34.6425 8.10309 32.6107 8.00048 30.5825 8.02171C30.5825 8.90986 30.5861 9.79448 30.5933 10.6826C32.0292 10.7039 33.4722 10.6012 34.901 10.7322C35.7912 10.8525 35.8128 12.4377 34.9117 12.5474C33.4758 12.6783 32.0256 12.5722 30.5825 12.5969C30.5825 13.6196 30.5825 14.6386 30.5861 15.6577C32.7543 15.7002 34.9369 15.5374 37.0979 15.7957C37.1086 16.3477 37.1051 16.8997 37.0943 17.4552C34.323 17.6463 31.5266 17.6428 28.7517 17.4588C28.4861 15.5374 28.5902 13.5983 28.5758 11.6663C28.583 9.86525 28.5004 8.05356 28.7553 6.2631Z" fill="#030D21"/>
<path d="M39.2549 7.03093C39.2226 5.98354 40.777 5.8137 41.2544 6.63108C43.3006 9.07616 45.2247 11.6239 47.2313 14.0972C47.2349 11.5531 47.2349 9.00893 47.2313 6.46831C47.856 6.15693 48.5308 6.15339 49.1878 6.3657C49.2667 9.82631 49.2775 13.294 49.1985 16.7546C49.2129 17.7525 47.6513 17.8126 47.1847 17.1262C45.1206 14.6634 43.2037 12.0839 41.1575 9.60693C41.0857 12.2502 41.2831 14.9005 41.0175 17.5331C40.418 17.434 39.4524 17.7843 39.298 16.9563C39.1616 13.6549 39.2513 10.3359 39.2549 7.03093Z" fill="#030D21"/>
<path d="M52.5553 6.31264C53.7651 5.93756 55.0574 6.14279 56.303 6.09325C57.7712 6.06141 59.4943 6.32325 60.381 7.61833C61.4974 9.09033 61.1887 11.3656 59.6989 12.4766C58.1302 13.6656 56.0482 13.202 54.2174 13.2905C54.1959 14.5289 54.3035 15.7816 54.142 17.0129C53.9266 17.7525 53.04 17.4199 52.4728 17.5437C52.0707 14.8969 52.3579 12.2077 52.2646 9.54325C52.3364 8.47464 52.0492 7.30695 52.5553 6.31264ZM54.2174 8.02525C54.2174 9.13987 54.2174 10.258 54.2318 11.3726C55.5923 11.3373 57.003 11.5319 58.3205 11.1143C59.2251 10.6473 58.981 9.53264 58.9989 8.70818C57.6025 7.69972 55.8256 8.07833 54.2174 8.02525Z" fill="#030D21"/>
<path d="M63.3131 6.32679C63.8839 6.01541 64.4942 6.23479 65.0542 6.44356C65.0829 7.85541 65.0649 9.26725 65.0793 10.6791C66.849 10.6437 68.6224 10.7605 70.3849 10.626C70.4567 10.5694 70.5967 10.4597 70.6649 10.4031C70.7834 9.08679 70.6003 7.75987 70.7798 6.45064C71.3003 5.89864 72.4634 6.06495 72.5639 6.88233C72.729 8.58787 72.589 10.304 72.6321 12.0166C72.5819 13.8425 72.8044 15.6966 72.4024 17.4942C71.9895 17.4836 71.1675 17.4623 70.7547 17.4517C70.6721 15.8382 70.7044 14.2211 70.7044 12.6076C68.827 12.5969 66.9495 12.6005 65.0721 12.6005C65.0685 14.2176 65.1116 15.8417 64.9896 17.4553C64.408 17.4729 63.8265 17.4836 63.2449 17.4836C63.0511 14.8439 63.1983 12.1936 63.1444 9.55033C63.1731 8.47818 63.0403 7.38125 63.3131 6.32679Z" fill="#030D21"/>
<path d="M87.4472 6.99909C89.4144 5.3997 92.5303 5.81724 94.1888 7.6537C94.6088 8.42509 94.038 9.1717 93.2267 9.26016C92.2252 8.40032 90.9329 7.5334 89.5401 8.03586C88.7826 8.12786 88.4308 8.8497 88.517 9.54324C90.0606 11.0223 92.5447 11.0896 93.9411 12.7668C95.1867 14.2282 94.4185 16.6945 92.6596 17.3668C90.3693 18.3151 87.5334 17.5826 86.0293 15.6294C86.259 15.2932 86.4888 14.9535 86.7221 14.6174C86.9806 14.6174 87.239 14.6174 87.4975 14.6174C88.2155 15.1128 88.937 15.6612 89.8021 15.87C90.6673 16.0434 91.5073 15.6931 92.3042 15.3994C92.4119 15.1163 92.6273 14.5537 92.7385 14.2706C91.3242 12.6465 88.9119 12.5757 87.3826 11.1108C86.1837 10.0634 86.3165 8.04647 87.4472 6.99909Z" fill="#030D21"/>
<path d="M97.3014 7.04864C97.2332 5.95172 98.5902 6.12511 99.3297 6.09326C101.293 6.18526 103.293 5.90218 105.228 6.29495C105.346 6.82572 105.342 7.37064 105.364 7.91203C103.321 8.11018 101.268 7.99695 99.222 8.02526C99.222 8.90988 99.222 9.79449 99.2291 10.6791C100.809 10.6826 102.392 10.6473 103.971 10.7357C104.108 11.3373 104.115 11.9494 103.982 12.5545C102.399 12.6288 100.809 12.5934 99.222 12.6005C99.222 13.6196 99.222 14.6386 99.222 15.6577C101.06 15.679 102.898 15.6153 104.736 15.6719C105.418 15.633 106.204 16.2026 105.831 16.9316C105.752 17.6428 104.951 17.5048 104.431 17.5685C102.087 17.5579 99.7317 17.664 97.3948 17.4588C97.1686 13.9946 97.3014 10.5163 97.3014 7.04864Z" fill="#030D21"/>
<path d="M75.1379 15.0986C76.4877 12.1476 77.6938 9.12926 79.1297 6.22064C79.4384 6.22772 80.0523 6.24187 80.361 6.24895C81.8579 9.69187 83.4338 13.11 84.7656 16.6202C84.6615 16.8289 84.4569 17.2465 84.3528 17.4553C84.0477 17.4588 83.4374 17.4623 83.1323 17.4659C82.723 16.6449 82.3533 15.8028 81.9871 14.9606C80.4364 14.9536 78.8892 14.9536 77.3384 14.9606C76.9507 15.8559 76.5523 16.7511 76.0892 17.6145C75.6046 17.5614 75.1164 17.5013 74.6318 17.434C74.6174 16.6273 74.7718 15.824 75.1379 15.0986ZM78.1677 13.0676C79.18 13.0817 80.1887 13.0817 81.2046 13.0782C80.702 11.9034 80.203 10.7286 79.661 9.5751C79.1584 10.7393 78.6595 11.9034 78.1677 13.0676Z" fill="#030D21"/>
</svg>
