<svg width="25" height="28" viewBox="0 0 25 28" fill="none" xmlns="http://www.w3.org/2000/svg">
<path d="M3.91248 17.937C4.0108 18.1003 4.10911 18.2637 4.2402 18.427C4.37128 18.5904 4.4696 18.7538 4.63345 18.9171C4.76454 19.0805 4.9284 19.2438 5.05948 19.4072C5.22334 19.5706 5.3872 19.7339 5.55105 19.93C5.71491 20.0933 5.87877 20.2567 6.0754 20.4527C6.27203 20.6161 6.43588 20.8121 6.63251 20.9755C6.82914 21.1388 7.02577 21.3022 7.2224 21.4982C7.41903 21.6616 7.61566 21.8249 7.84506 21.9883C8.07446 22.1517 8.27109 22.315 8.50049 22.4784C8.72989 22.6417 8.95929 22.8051 9.15592 22.9358C9.38532 23.0992 9.61472 23.2298 9.84412 23.3932C10.0407 23.5239 10.2701 23.6546 10.4995 23.8179C10.6962 23.9486 10.9256 24.0793 11.1878 24.21C11.4172 24.3407 11.6466 24.4714 11.876 24.6021C12.1381 24.7328 12.3675 24.8634 12.5969 24.9941L12.6297 25.0268L12.6625 24.9941C12.8919 24.8634 13.154 24.7328 13.3834 24.6021C13.6128 24.4714 13.875 24.3407 14.0716 24.21C14.301 24.0793 14.5304 23.9486 14.7598 23.8179C14.9892 23.6873 15.2186 23.5239 15.448 23.3932C15.6774 23.2298 15.9068 23.0992 16.1362 22.9358C16.3656 22.7724 16.595 22.6417 16.7917 22.4784C17.0211 22.315 17.2177 22.1517 17.4471 21.9883C17.6437 21.8249 17.8731 21.6616 18.0698 21.4982C18.2992 21.3349 18.4958 21.1388 18.6596 20.9755C18.8563 20.8121 19.0529 20.6161 19.2168 20.4527C19.4134 20.2894 19.5773 20.0933 19.7411 19.93C19.905 19.7666 20.0688 19.6032 20.2327 19.4072C20.3965 19.2438 20.5276 19.0805 20.6587 18.9171C20.7898 18.7538 20.9209 18.5904 21.052 18.427C21.1831 18.2637 21.2814 18.1003 21.3797 17.937C21.478 17.7736 21.5763 17.6102 21.6419 17.4796C21.7074 17.3815 21.7402 17.2835 21.8057 17.1855C21.8385 17.0875 21.904 16.9895 21.9368 16.9241C21.9696 16.8261 22.0023 16.7608 22.0351 16.6628C22.0679 16.5974 22.0679 16.4994 22.1007 16.434C22.1334 16.2707 22.1334 16.1073 22.1662 15.944C22.1662 15.7806 22.1662 15.6172 22.1662 15.4212V15.3232V15.2905C22.1662 15.1925 22.1662 15.1272 22.1662 15.0945C22.1662 15.0292 22.1662 14.9638 22.1662 14.8985V14.8331H18.889C17.6765 17.8716 15.6119 20.4527 12.6297 22.9685C9.68026 20.4527 7.58289 17.8716 6.37034 14.8331H3.15874H2.96211H1.78233H1.58571H0.635332H0.438703V14.6371V5.8483V5.48891V5.35822V5.2602L0.504246 5.22753L0.602561 5.12951L0.864732 4.90081C1.25799 4.50875 1.68402 4.14935 2.11005 3.78996C2.53608 3.43057 2.99488 3.10385 3.45368 2.8098C3.91248 2.51575 4.40405 2.2217 4.86285 1.96032C5.35443 1.69895 5.846 1.47024 6.33757 1.27421C6.82914 1.07818 7.35349 0.882146 7.87783 0.718786C8.40217 0.555425 8.95929 0.424737 9.48363 0.326721C10.008 0.228704 10.5651 0.130688 11.0894 0.0980162C11.6138 0.0326721 12.1709 0 12.6952 0C13.2196 0 13.7767 0.0326721 14.301 0.0653441C14.8582 0.130688 15.3825 0.228704 15.9068 0.326721C16.4312 0.424737 16.9555 0.555425 17.4799 0.718786C18.0042 0.882146 18.5286 1.04551 19.0201 1.27421C19.5117 1.47024 20.0033 1.69895 20.4949 1.96032C20.9864 2.2217 21.4452 2.48308 21.904 2.8098C22.3628 3.10385 22.8216 3.43057 23.2477 3.78996C23.6737 4.14935 24.0997 4.50875 24.493 4.90081L24.7551 5.16219L24.8535 5.2602L24.919 5.32555V5.42356V5.55425V5.91364V9.99765V10.1283H24.7224H22.3956H22.199V9.93231V6.46907V6.4364L22.1662 6.40373C21.8385 6.10968 21.5108 5.8483 21.1503 5.58692C20.7898 5.32555 20.4621 5.09684 20.1016 4.86814C19.7411 4.63943 19.3479 4.4434 18.9874 4.24737C18.5941 4.05134 18.2336 3.88798 17.8404 3.72462C17.4143 3.56126 17.0211 3.43057 16.595 3.29988C16.169 3.16919 15.743 3.07117 15.317 2.97316C14.8909 2.87514 14.4321 2.84247 14.0061 2.77713C13.5801 2.74445 13.1213 2.71178 12.6952 2.71178C12.2692 2.71178 11.8104 2.74445 11.3844 2.77713C10.9584 2.8098 10.4995 2.87514 10.0735 2.97316C9.64749 3.07117 9.22146 3.16919 8.79543 3.29988C8.3694 3.43057 7.94337 3.56126 7.55012 3.72462C7.15686 3.88798 6.7636 4.05134 6.40311 4.24737C6.04263 4.4434 5.64937 4.63943 5.28888 4.86814C4.9284 5.09684 4.56791 5.32555 4.2402 5.58692C3.91248 5.8483 3.55199 6.10968 3.22428 6.40373L3.19151 6.4364V6.46907V12.056H5.64937C5.32165 10.5204 5.1578 8.85413 5.19057 7.02449C10.3685 5.35822 15.0876 5.35822 20.2655 7.02449C20.2982 8.85413 20.1344 10.5204 19.8067 12.056H22.2645H22.4611H24.7879H24.9845V12.252V14.8331C24.9845 16.0747 24.9845 16.6954 24.8862 17.1855C24.7879 17.7083 24.5913 18.035 24.2308 18.6884L24.198 18.7538C24.0997 18.9498 23.9686 19.1458 23.8375 19.3419C23.7065 19.5379 23.5754 19.7339 23.4115 19.93C23.2804 20.126 23.1166 20.322 22.9527 20.5507C22.7889 20.7468 22.625 20.9755 22.4284 21.1715C22.2645 21.3675 22.0679 21.5636 21.8713 21.7923C21.6746 21.9883 21.478 22.1843 21.2486 22.3804C21.052 22.5764 20.8226 22.7724 20.5932 22.9685C20.3638 23.1645 20.1344 23.3605 19.905 23.5566C19.6756 23.7526 19.4462 23.916 19.184 24.112C18.9546 24.308 18.6924 24.4714 18.4303 24.6674C18.1681 24.8308 17.9059 25.0268 17.6437 25.2228C17.3816 25.3862 17.1194 25.5822 16.8244 25.7456C16.5623 25.909 16.2673 26.105 15.9724 26.2683C15.7102 26.4317 15.4153 26.5951 15.0876 26.7584C14.7926 26.9218 14.4977 27.0851 14.17 27.2485C13.875 27.4119 13.5473 27.5752 13.2524 27.7059L12.8591 27.9019L12.728 27.9673L12.6297 28L12.5314 27.9673L12.4003 27.9019L12.007 27.7059C11.6793 27.5426 11.3844 27.4119 11.0894 27.2485C10.7945 27.0851 10.4668 26.9218 10.1718 26.7584C9.87689 26.5951 9.58195 26.4317 9.287 26.2683C8.99206 26.105 8.72989 25.9416 8.43495 25.7456C8.14 25.5822 7.87783 25.3862 7.61566 25.2228C7.35349 25.0268 7.09131 24.8634 6.82914 24.6674C6.56697 24.4714 6.33757 24.308 6.0754 24.112C5.81323 23.916 5.58383 23.7199 5.35443 23.5566C5.12503 23.3605 4.89563 23.1645 4.66622 22.9685C4.43682 22.7724 4.20742 22.5764 4.01079 22.3804C3.81417 22.1843 3.58477 21.9883 3.38814 21.7923C3.19151 21.5962 2.99488 21.3675 2.83102 21.1715C2.63439 20.9755 2.47054 20.7468 2.30668 20.5507C2.14282 20.3547 1.97896 20.1587 1.84788 19.93C1.71679 19.7339 1.55293 19.5379 1.42185 19.3419C1.29076 19.1458 1.15968 18.9498 1.06136 18.7538L1.02859 18.6884C0.831961 18.2964 0.668104 18.035 0.569789 17.7736C0.471475 17.5122 0.37316 17.2509 0.340389 16.8915L0.307617 16.6628H0.537018H2.96211H3.09319L3.15874 16.7934V16.8261V16.8588C3.19151 16.9568 3.22428 17.0221 3.28982 17.1202C3.32259 17.2182 3.38814 17.3162 3.45368 17.4142C3.71585 17.6102 3.78139 17.7736 3.91248 17.937ZM17.5782 8.82146C14.5632 8.03733 10.86 8.00466 7.81229 8.82146C7.94337 12.9055 9.77858 16.7934 12.6952 19.6359C15.6119 16.7608 17.4471 12.9055 17.5782 8.82146Z" fill="#011949"/>
</svg>
