<svg width="56" height="56" viewBox="0 0 56 56" fill="none" xmlns="http://www.w3.org/2000/svg">
<g filter="url(#filter0_b)">
<path opacity="0.3" d="M0 8C0 3.58172 3.58172 0 8 0H40C48.8366 0 56 7.16344 56 16V48C56 52.4183 52.4183 56 48 56H16C7.16344 56 0 48.8366 0 40V8Z" fill="#F1F7FA"/>
<path d="M38.5297 15.3917C38.664 15.5229 38.8238 15.6271 38.9998 15.6982C39.1759 15.7692 39.3647 15.8058 39.5554 15.8058C39.7461 15.8058 39.9349 15.7692 40.1109 15.6982C40.287 15.6271 40.4468 15.5229 40.581 15.3917C40.7086 15.2556 40.8113 15.0993 40.8844 14.9296C40.9584 14.7613 40.9977 14.5806 41 14.3976C41.0011 14.2133 40.9646 14.0307 40.8927 13.8601C40.8209 13.6895 40.7149 13.5343 40.581 13.4035L40.3644 13.2355C40.2838 13.1825 40.1964 13.1401 40.1043 13.1095C39.8413 13.0022 39.5513 12.973 39.2711 13.0253C38.9908 13.0776 38.7329 13.2092 38.5297 13.4035C38.3958 13.5343 38.2899 13.6895 38.218 13.8601C38.1461 14.0307 38.1097 14.2133 38.1108 14.3976C38.1131 14.5806 38.1523 14.7613 38.2264 14.9296C38.2995 15.0993 38.4021 15.2556 38.5297 15.3917ZM39.5554 17.1978C39.1723 17.1978 38.8048 17.3454 38.5339 17.6079C38.263 17.8705 38.1108 18.2266 38.1108 18.598V24.1985C38.1108 24.5698 38.263 24.9259 38.5339 25.1885C38.8048 25.4511 39.1723 25.5986 39.5554 25.5986C39.9385 25.5986 40.306 25.4511 40.5769 25.1885C40.8478 24.9259 41 24.5698 41 24.1985V18.598C41 18.2266 40.8478 17.8705 40.5769 17.6079C40.306 17.3454 39.9385 17.1978 39.5554 17.1978ZM39.6421 28.3989C39.263 28.3553 38.8815 28.459 38.581 28.6873C38.2806 28.9155 38.0855 29.2498 38.0386 29.617C37.7322 31.9879 36.5427 34.1686 34.6938 35.7492C32.8449 37.3297 30.464 38.2012 27.9987 38.1997H19.9234L20.848 37.3177C21.117 37.0553 21.268 36.7005 21.268 36.3306C21.268 35.9607 21.117 35.6058 20.848 35.3435C19.4286 33.9735 18.4611 32.2259 18.068 30.3222C17.6749 28.4186 17.874 26.4446 18.64 24.6508C19.406 22.8569 20.7044 21.324 22.3706 20.2464C24.0368 19.1688 25.9956 18.595 27.9987 18.598C29.7699 18.5954 31.51 19.0496 33.0403 19.9141C33.3662 20.0568 33.7351 20.0774 34.0757 19.9717C34.4163 19.866 34.7043 19.6416 34.8841 19.3419C35.0638 19.0423 35.1225 18.6887 35.0488 18.3495C34.975 18.0103 34.7741 17.7097 34.4849 17.5059C32.519 16.3853 30.2793 15.7955 27.9987 15.7977C25.5537 15.8055 23.1605 16.4814 21.0938 17.7477C19.0272 19.0141 17.3708 20.8196 16.3149 22.957C15.2591 25.0944 14.8464 27.4771 15.1244 29.8315C15.4024 32.1859 16.3598 34.4166 17.8866 36.2676L15.4163 38.6058C15.2159 38.8027 15.0801 39.0527 15.0261 39.3243C14.9721 39.5959 15.0023 39.8769 15.1129 40.1319C15.2213 40.3876 15.4054 40.6065 15.6419 40.761C15.8784 40.9154 16.1568 40.9986 16.442 41H27.9987C31.1666 41 34.2256 39.8789 36.6009 37.8474C38.9763 35.8158 40.5046 33.0136 40.8989 29.967C40.9231 29.784 40.9098 29.5981 40.8597 29.4201C40.8096 29.242 40.7237 29.0754 40.6069 28.9296C40.4901 28.7839 40.3447 28.662 40.1791 28.5709C40.0136 28.4798 39.831 28.4213 39.6421 28.3989Z" fill="#011949" stroke="#011949" stroke-width="0.5"/>
</g>
<defs>
<filter id="filter0_b" x="-30" y="-30" width="116" height="116" filterUnits="userSpaceOnUse" color-interpolation-filters="sRGB">
<feFlood flood-opacity="0" result="BackgroundImageFix"/>
<feGaussianBlur in="BackgroundImage" stdDeviation="15"/>
<feComposite in2="SourceAlpha" operator="in" result="effect1_backgroundBlur"/>
<feBlend mode="normal" in="SourceGraphic" in2="effect1_backgroundBlur" result="shape"/>
</filter>
</defs>
</svg>
