<svg width="89" height="16" viewBox="0 0 89 16" fill="none" xmlns="http://www.w3.org/2000/svg">
<g clip-path="url(#clip0)">
<path d="M66.4593 4.22745C66.4593 7.07858 63.0783 8.13249 60.5164 8.13249C60.2043 8.13249 59.5331 8.07228 59.0632 7.99913C58.8144 7.96031 58.5927 7.93161 58.6138 7.81063C58.6285 7.72905 58.859 7.7206 59.0843 7.73017C61.0086 7.81063 63.936 6.47876 63.936 3.86452C63.936 1.44948 61.8639 0.603761 58.8485 0.603761C54.9354 0.603761 48.7332 2.70483 48.7332 6.76404C48.7332 7.87872 49.4389 8.67604 50.5507 8.67604C51.416 8.67604 52.692 8.26247 53.4312 7.72679C53.5397 7.64802 53.7005 7.53548 53.7709 7.60019C53.836 7.65984 53.7321 7.80838 53.6477 7.88435C52.7735 8.66479 51.1279 9.64218 49.2242 9.64218C47.6736 9.64218 46.1025 8.80152 46.1025 7.18662C46.1025 2.25468 54.1223 0 59.1054 0C62.0476 0 66.4593 0.813643 66.4593 4.22745ZM29.2899 11.1727C29.3896 11.243 29.2277 11.4878 29.162 11.5756C28.1564 12.9041 25.9112 15.7017 23.8585 15.7017C22.7462 15.7017 22.0398 15.2595 22.0398 14.3333C22.0398 13.1252 23.8368 11.3342 25.7828 9.663C25.1198 9.68325 24.6282 9.60279 23.9864 9.4413C22.3349 11.6386 18.9387 15.7023 15.8382 15.7023C13.5953 15.7023 13.9808 13.4842 14.4055 12.0589C12.9084 13.81 10.4913 15.7023 8.48137 15.7023C6.97833 15.7023 5.78681 15.004 5.78681 13.5078C5.78681 8.93713 12.6514 5.0079 12.6514 1.91313C12.6514 1.03028 12.1011 0.846841 11.1976 0.846841C7.83604 0.846841 3.26297 4.46378 3.26297 7.69078C3.26297 8.85892 3.76809 9.60335 4.9954 9.60335C5.78681 9.60335 6.40692 9.20047 6.94137 8.65691C7.11679 8.47967 7.29689 8.32437 7.36964 8.37557C7.45471 8.43578 7.34793 8.63722 7.22004 8.8381C6.5618 9.87063 5.46591 10.8311 3.71236 10.8311C2.25743 10.8311 0.996094 9.65849 0.996094 8.13362C0.996094 3.74748 7.4242 0.201441 11.6893 0.201441C13.7197 0.201441 15.0039 0.844591 15.0039 2.89895C15.0039 6.52715 8.90847 11.0314 8.90847 13.6485C8.90847 14.232 9.31503 14.5747 9.72159 14.5747C12.8016 14.5747 19.2121 5.11481 21.2918 1.44948C22.9814 1.52994 23.8585 1.5502 25.4407 1.46973C22.0398 5.43554 18.426 10.709 18.426 10.709C17.4357 12.0139 17.1001 12.9238 17.1001 13.5078C17.1001 13.8904 17.3993 14.1718 17.7202 14.1718C19.4955 14.1718 22.9597 10.3877 24.2862 7.83089C25.6332 8.07285 26.8951 8.19326 28.7554 8.03233C27.0013 9.92464 24.735 13.2467 24.735 14.1318C24.735 14.3535 24.9702 14.4948 25.1415 14.4948C25.9658 14.4948 27.7933 12.6188 28.9267 11.3944C29.0347 11.2773 29.2048 11.1119 29.2904 11.1727H29.2899ZM88.9392 11.5148C89.0248 11.5756 88.8969 11.8299 88.8324 11.9177C87.8269 13.2664 85.6885 15.7023 83.6357 15.7023C82.6519 15.7023 81.8393 15.3399 81.8393 14.5949C81.8393 12.2198 85.6292 10.1261 85.6292 8.85779C85.6292 8.71712 85.5389 8.59614 85.3464 8.59614C83.1863 8.59614 79.5719 13.6491 78.246 15.5414H75.3162C75.6154 15.0985 75.9146 14.6551 76.3646 14.1121C75.1449 15.2398 73.9475 15.7023 72.4503 15.7023C71.5739 15.7023 70.654 15.3197 70.654 14.5949C70.654 12.3003 74.4438 10.1261 74.4438 8.85779C74.4438 8.71712 74.3541 8.59614 74.1616 8.59614C72.0015 8.59614 68.3871 13.6491 67.0612 15.5414H64.1308C64.5802 14.8166 65.0507 14.1521 65.628 13.3874C64.5802 14.5145 62.3773 15.7023 60.4952 15.7023C58.8273 15.7023 58.1216 14.9168 58.1216 13.6091C58.1216 10.2139 62.7099 7.83089 65.9066 7.83089C66.8899 7.83089 67.4026 8.13305 67.4026 8.55563C67.4026 10.6252 63.2725 11.5958 61.6287 11.7359C61.0514 12.5012 60.6448 13.2861 60.6448 14.0514C60.6448 14.6186 60.944 14.9168 61.5858 14.9168C64.024 14.9168 67.5523 11.3944 69.3064 8.01208H72.2145C72.0655 8.53537 71.8942 8.85779 71.6161 9.34001C72.4503 8.6361 74.1399 7.91079 75.2517 7.91079C76.4279 7.91079 77.0914 8.27373 77.0914 9.26011C77.0914 10.7163 73.3268 13.213 73.3268 14.434C73.3268 14.6957 73.5192 14.8166 73.7762 14.8166C75.8295 14.8166 78.9512 10.8908 80.4912 8.01208H83.3999C83.2497 8.53537 83.079 8.85779 82.8015 9.34001C83.6351 8.6361 85.3241 7.91079 86.437 7.91079C87.6133 7.91079 88.2762 8.27373 88.2762 9.26011C88.2762 10.7163 84.5122 13.213 84.5122 14.434C84.5122 14.6754 84.7469 14.8166 84.961 14.8166C85.7096 14.8166 87.442 12.9603 88.5755 11.7359C88.684 11.6195 88.8535 11.4546 88.9392 11.5148ZM65.6069 8.57532C65.6069 8.39414 65.5001 8.31367 65.3077 8.31367C64.3397 8.31367 62.5269 10.3872 61.8856 11.3533C63.276 11.1322 65.6069 9.46099 65.6069 8.57532Z" fill="#030D21"/>
<path d="M62.4204 2.13369C57.0102 4.63033 58.3572 15.7017 44.7559 15.7017C41.7621 15.7017 40.2855 15.4001 38.9174 14.5145C37.6126 15.2392 36.1372 15.7017 34.3197 15.7017C32.0528 15.7017 29.6357 14.7936 29.6357 12.7426C29.6357 9.91788 33.4948 8.34743 35.8808 7.52928C35.7523 4.65058 37.3064 1.65091 40.6287 1.65091C41.9117 1.65091 42.9812 2.31488 42.9812 3.24106C42.9812 4.79126 40.6287 6.14001 38.5754 6.92496C38.661 7.70991 38.8488 8.45884 39.1309 9.1999C39.9863 8.51567 40.9965 8.25346 42.0402 8.25346C42.9824 8.25346 43.8577 8.61639 44.5846 8.61639C45.031 8.61639 45.4828 8.47572 45.5256 8.27372C45.5808 8.01657 45.6541 7.85114 45.7397 7.85114C45.8465 7.85114 45.9105 8.03232 45.9105 8.57588C45.9105 9.66299 44.1141 10.1863 42.6175 10.1863C42.6175 11.2132 42.0191 12.2401 40.949 13.1854C41.8959 14.4475 43.4553 15.2392 45.0979 15.2392C53.032 15.2392 54.5081 1.61096 62.4204 2.13426V2.13369ZM40.8205 3.32152C40.8205 2.87419 40.6797 2.19446 40.0931 2.19446C38.8622 2.19446 38.4469 4.14023 38.4469 5.03265C38.4469 5.4209 38.4551 5.91606 38.5114 6.30094C39.9863 5.69718 40.8205 4.80532 40.8205 3.32152ZM40.6498 10.5689C40.4427 10.2077 40.072 10.0456 39.4301 10.0456C39.666 10.8103 40.0684 11.7337 40.4568 12.441C40.8851 11.7967 40.9484 11.0916 40.6498 10.5683V10.5689ZM38.2973 14.0519C36.7573 12.3808 36.0726 10.327 35.9448 8.21351C34.481 9.12112 32.9076 10.5245 32.9076 12.2997C32.9076 13.7976 34.193 14.7755 35.7306 14.7755C36.6006 14.7755 37.5933 14.5218 38.2973 14.0514V14.0519Z" fill="#030D21"/>
</g>
<defs>
<clipPath id="clip0">
<rect x="0.996094" width="88" height="15.7552" fill="white"/>
</clipPath>
</defs>
</svg>
