<svg width="103" height="16" viewBox="0 0 103 16" fill="none" xmlns="http://www.w3.org/2000/svg">
<g clip-path="url(#clip0)">
<path d="M94.9656 0C92.8349 0 90.7914 0.829542 89.2847 2.30613C87.7781 3.78273 86.9316 5.78541 86.9316 7.87363C86.9316 9.96185 87.7781 11.9645 89.2847 13.4411C90.7914 14.9177 92.8349 15.7473 94.9656 15.7473C97.0964 15.7473 99.1398 14.9177 100.647 13.4411C102.153 11.9645 103 9.96185 103 7.87363C103 5.78541 102.153 3.78273 100.647 2.30613C99.1398 0.829542 97.0964 0 94.9656 0ZM98.5711 7.08734C98.1942 7.08737 97.821 7.01464 97.4728 6.87332C97.1246 6.73199 96.8082 6.52484 96.5417 6.26368C96.2751 6.00251 96.0637 5.69246 95.9195 5.35122C95.7752 5.00998 95.7009 4.64423 95.7009 4.27487C95.7009 3.52884 96.0033 2.81337 96.5416 2.28585C97.0798 1.75833 97.8099 1.46197 98.5711 1.46197C98.948 1.46199 99.3212 1.53478 99.6694 1.67615C100.018 1.81753 100.334 2.02474 100.6 2.28594C100.867 2.54714 101.078 2.85722 101.222 3.19848C101.367 3.53975 101.441 3.9055 101.441 4.27487C101.441 5.02078 101.138 5.73614 100.6 6.26358C100.062 6.79102 99.3322 7.08734 98.5711 7.08734Z" fill="#030D21"/>
<path d="M102.77 2.99938C102.77 3.73304 102.472 4.43665 101.943 4.95542C101.414 5.47419 100.696 5.76564 99.9471 5.76564C99.5764 5.76567 99.2093 5.69414 98.8668 5.55514C98.5243 5.41613 98.2131 5.21238 97.951 4.95551C97.6888 4.69864 97.4809 4.39368 97.339 4.05805C97.1971 3.72242 97.1241 3.36268 97.124 2.99938C97.124 2.26561 97.4215 1.5619 97.9509 1.04304C98.4803 0.524188 99.1983 0.232697 99.9471 0.232697C100.318 0.232725 100.685 0.304309 101.027 0.443363C101.37 0.582417 101.681 0.786223 101.943 1.04313C102.205 1.30004 102.413 1.60503 102.555 1.94069C102.697 2.27634 102.77 2.63608 102.77 2.99938Z" fill="#030D21"/>
<path d="M7.36276 2.37279C7.30835 2.61137 7.26543 2.85266 7.23417 3.09574C7.19413 3.39738 7.17457 3.7016 7.17564 4.00613C7.17564 4.34575 7.18341 4.69802 7.19893 5.06295C7.21445 5.42788 7.22222 5.7092 7.22222 5.9069C7.22014 5.93612 7.2103 5.96415 7.19381 5.98782C7.17731 6.01149 7.15481 6.02985 7.12886 6.04084C7.06355 6.07765 6.99188 6.10045 6.91805 6.10792C6.8469 6.11767 6.77455 6.10824 6.70786 6.08053C6.68071 6.07136 6.656 6.05566 6.63571 6.03468C6.61542 6.0137 6.60011 5.98804 6.59101 5.95974C6.41928 5.01421 6.13868 4.28672 5.7492 3.77729C5.35972 3.26786 4.73628 3.01343 3.87888 3.014C3.36175 2.99306 2.85494 3.16934 2.45265 3.51007C2.2686 3.6716 2.12233 3.87508 2.02503 4.10492C1.92773 4.33476 1.88199 4.58486 1.8913 4.83606C1.88074 5.04088 1.91776 5.24532 1.99919 5.43189C2.08062 5.61846 2.20404 5.7816 2.35889 5.90734C2.74019 6.19688 3.15715 6.43114 3.59842 6.60377C3.81658 6.69291 4.0776 6.80442 4.38149 6.93828C4.68538 7.07215 4.93082 7.18365 5.1178 7.2728C5.5228 7.48762 5.9006 7.71049 6.2512 7.94141C6.59222 8.16485 6.89955 8.4402 7.16307 8.7584C7.4211 9.07271 7.62656 9.43038 7.77078 9.8163C7.92629 10.2526 8.00173 10.7157 7.99313 11.1813C8.01295 11.7729 7.8839 12.3595 7.61891 12.8824C7.38415 13.3206 7.05612 13.6963 6.66025 13.9804C6.2547 14.2646 5.80301 14.4688 5.32737 14.5832C4.84513 14.7058 4.35081 14.7686 3.85457 14.7705C3.39849 14.7645 2.94414 14.7105 2.4984 14.6093C2.0448 14.5183 1.60463 14.3653 1.18921 14.154C1.14009 14.1371 1.08771 14.1331 1.03675 14.1424C0.9858 14.1518 0.937858 14.1742 0.897208 14.2077C0.839585 14.2568 0.792203 14.3178 0.757998 14.3868C0.723792 14.4559 0.703488 14.5315 0.698345 14.6091C0.698345 14.6628 0.663109 14.698 0.593456 14.717C0.520497 14.7348 0.445818 14.7438 0.370897 14.7437C0.306629 14.7434 0.243049 14.7298 0.183781 14.7038C0.157925 14.697 0.134867 14.6816 0.118044 14.66C0.10122 14.6383 0.0915332 14.6116 0.0904292 14.5837C0.0944446 14.3864 0.110068 14.1895 0.137209 13.9942C0.167057 13.7634 0.182684 13.5309 0.183989 13.298C0.183989 13.0838 0.172653 12.847 0.148749 12.5886C0.124844 12.3303 0.102382 12.0753 0.0788892 11.8249C0.0553968 11.5745 0.0358191 11.353 0.0201575 11.1563C0.00449594 10.9596 -0.0029226 10.8175 -0.0029226 10.7278C-0.00383902 10.6944 0.00448991 10.6615 0.0210568 10.6331C0.0376237 10.6046 0.0617196 10.5817 0.0904292 10.5673C0.15566 10.5307 0.227177 10.5081 0.300832 10.5007C0.375745 10.4912 0.451737 10.5001 0.522772 10.5268C0.554784 10.5372 0.583565 10.5564 0.606163 10.5823C0.62876 10.6082 0.644359 10.64 0.651361 10.6743C0.745147 11.1439 0.886273 11.6017 1.07237 12.0402C1.2278 12.4083 1.44571 12.7438 1.71552 13.0306C1.97946 13.303 2.29919 13.509 2.65048 13.633C3.07707 13.7766 3.52361 13.8445 3.97161 13.834C4.2222 13.8447 4.47231 13.8029 4.7072 13.7109C4.9421 13.619 5.15703 13.4787 5.33932 13.2984C5.52099 13.0999 5.66148 12.8642 5.75198 12.6061C5.84248 12.3481 5.88103 12.0732 5.86522 11.7988C5.87719 11.5469 5.83631 11.2952 5.74546 11.0616C5.65461 10.8279 5.51599 10.6179 5.33932 10.4463C4.968 10.1018 4.55541 9.80944 4.11195 9.57647C3.89324 9.4692 3.67116 9.36201 3.44571 9.25489C3.22027 9.14777 2.99029 9.04058 2.75578 8.93331C2.41233 8.77227 2.07327 8.60692 1.7386 8.43725C1.41394 8.27511 1.11446 8.06273 0.850224 7.80725C0.583569 7.54362 0.372502 7.22457 0.230561 6.87056C0.0625165 6.42802 -0.0170877 5.95413 -0.00333452 5.47814C-0.0204348 4.90986 0.104363 4.34674 0.358737 3.84437C0.587513 3.4129 0.907528 3.0419 1.29431 2.75972C1.68115 2.48071 2.11271 2.27667 2.56846 2.15733C3.01906 2.03474 3.48256 1.97177 3.94812 1.9699C4.34029 1.96304 4.73098 2.02179 5.10543 2.14395C5.50325 2.29542 5.87748 2.50765 6.21596 2.77374C6.2552 2.79119 6.29773 2.79902 6.34031 2.79662C6.38288 2.79423 6.42437 2.78168 6.4616 2.75993C6.56271 2.71564 6.64452 2.56841 6.70703 2.31823C6.7144 2.28342 6.73188 2.25184 6.75709 2.22786C6.78229 2.20388 6.81397 2.18866 6.84778 2.18429C6.92436 2.16687 7.0031 2.16228 7.08106 2.1707C7.15457 2.17853 7.22594 2.20117 7.29125 2.23735C7.35307 2.2738 7.37718 2.31822 7.36193 2.37171" fill="#030D21"/>
<path d="M11.6969 7.67259C11.6157 7.67259 11.5711 7.70371 11.5631 7.76596C11.5541 7.84151 11.5501 7.91758 11.5511 7.99367C11.5342 8.78831 11.6281 9.58141 11.8299 10.3499C11.9798 10.9201 12.2448 11.4532 12.6085 11.916C12.9241 12.3053 13.3351 12.6052 13.801 12.7861C14.2789 12.9676 14.7861 13.0585 15.2969 13.0541C15.8356 13.055 16.3732 13.0056 16.9028 12.9066C17.4014 12.8185 17.8651 12.591 18.2409 12.25C18.2742 12.2173 18.3147 12.193 18.3592 12.1792C18.4036 12.1653 18.4507 12.1624 18.4965 12.1707C18.5832 12.187 18.661 12.2344 18.7155 12.3042C18.7712 12.3741 18.8087 12.4569 18.8246 12.545C18.8332 12.5865 18.8333 12.6292 18.8249 12.6707C18.8165 12.7122 18.7999 12.7515 18.776 12.7863C18.3469 13.4575 17.7403 13.9951 17.0242 14.3389C16.2591 14.6465 15.4393 14.7925 14.6157 14.7678C13.7517 14.7891 12.8931 14.6248 12.0973 14.2858C11.4145 13.9821 10.8138 13.5184 10.3456 12.9336C9.8722 12.3315 9.52466 11.6394 9.32376 10.8989C9.09863 10.0746 8.98814 9.22297 8.99546 8.36822C8.99096 7.52174 9.12663 6.68041 9.39688 5.87874C9.64167 5.13426 10.0256 4.44365 10.528 3.84402C11.0082 3.27807 11.5955 2.81386 12.2558 2.47843C12.943 2.1344 13.702 1.96002 14.4696 1.96975C15.1107 1.96154 15.7459 2.09399 16.3309 2.35788C16.8772 2.60686 17.363 2.97249 17.7546 3.42936C18.1587 3.91071 18.4683 4.46476 18.667 5.06214C18.8898 5.72164 19.0007 6.41415 18.9949 7.11065C18.9949 7.48585 18.8734 7.67331 18.6304 7.67302L11.6969 7.67259ZM16.1495 6.73502C16.3766 6.73502 16.5061 6.64639 16.5387 6.46763C16.5741 6.25533 16.5904 6.04028 16.5876 5.82504C16.5887 5.45752 16.5352 5.09189 16.4292 4.7402C16.3318 4.40904 16.1796 4.0968 15.9788 3.81664C15.791 3.5552 15.5507 3.33622 15.2735 3.17384C14.9842 3.01003 14.6566 2.92695 14.3247 2.93319C13.9324 2.92273 13.5437 3.01015 13.1933 3.18764C12.8826 3.35233 12.6092 3.57993 12.3902 3.8561C12.164 4.14725 11.9948 4.47895 11.8917 4.83357C11.776 5.21808 11.6946 5.61215 11.6483 6.01114C11.6183 6.18357 11.606 6.35865 11.6116 6.53362C11.6195 6.66752 11.6562 6.73394 11.7214 6.73394H16.1493" fill="#030D21"/>
<path d="M24.1613 11.3616C24.1613 11.8128 24.1692 12.1915 24.1852 12.4976C24.1907 12.7593 24.2484 13.0171 24.3549 13.2552C24.4566 13.4588 24.6231 13.621 24.8271 13.7153C25.1159 13.8432 25.4222 13.9252 25.7354 13.9587C25.7802 13.9656 25.823 13.9825 25.8607 14.0083C25.8984 14.034 25.93 14.068 25.9533 14.1077C26.0029 14.1934 26.028 14.2915 26.0259 14.391C26.0257 14.4819 26.0006 14.5709 25.9533 14.6479C25.9315 14.6867 25.8996 14.7186 25.8611 14.7401C25.8227 14.7616 25.7791 14.7719 25.7354 14.7697C25.3341 14.7636 24.9337 14.7319 24.5363 14.6749C24.0585 14.6121 23.5773 14.5806 23.0956 14.5806C22.5935 14.5799 22.0919 14.6114 21.5937 14.6749C21.152 14.7349 20.7072 14.7666 20.2616 14.7697C20.2215 14.7695 20.1823 14.758 20.1481 14.7366C20.114 14.7151 20.0863 14.6844 20.068 14.6479C20.0206 14.571 19.9953 14.4819 19.9952 14.391C19.9931 14.2915 20.0183 14.1933 20.068 14.1077C20.0913 14.068 20.123 14.034 20.1607 14.0083C20.1983 13.9825 20.2411 13.9656 20.286 13.9587C20.6072 13.9269 20.9217 13.8448 21.2184 13.7153C21.4193 13.6234 21.5852 13.4666 21.6904 13.2692C21.7949 13.0495 21.8527 12.8097 21.8601 12.5656C21.8763 12.2858 21.8845 11.9385 21.8846 11.5237V7.51939C21.8846 6.67157 21.8765 5.99511 21.8601 5.48999C21.8611 5.09582 21.8039 4.70374 21.6904 4.327C21.6555 4.20883 21.5979 4.09894 21.5209 4.00376C21.4439 3.90857 21.3492 3.83 21.2421 3.77263C20.9613 3.65657 20.6613 3.59672 20.3584 3.59634C20.3196 3.59692 20.2813 3.58717 20.2473 3.56807C20.2133 3.54896 20.1848 3.52116 20.1645 3.48739C20.1156 3.41427 20.0826 3.33126 20.0678 3.24398C20.0511 3.1566 20.0639 3.06599 20.1043 2.98706C20.1226 2.94803 20.1521 2.91555 20.1887 2.89382C20.2254 2.87209 20.2676 2.86214 20.3099 2.86525C20.5843 2.82951 20.9839 2.75738 21.5087 2.64886C22.0336 2.54034 22.6028 2.39616 23.2165 2.21631C23.2783 2.19142 23.3438 2.17757 23.4103 2.17535C23.507 2.16663 23.5714 2.16205 23.6041 2.16205C23.6845 2.16261 23.7637 2.18249 23.8352 2.22008C23.9067 2.25768 23.9685 2.31192 24.0157 2.37844C24.1287 2.52351 24.1811 2.70823 24.1615 2.89249L24.1126 4.21804C24.1126 4.30869 24.145 4.31777 24.2097 4.24528C24.2903 4.11948 24.4235 3.93004 24.6093 3.67697C24.8216 3.39659 25.0651 3.14246 25.3351 2.91973C25.6661 2.64727 26.0331 2.42396 26.4253 2.25641C26.8895 2.06031 27.3884 1.96388 27.8907 1.97312C28.8915 1.97312 29.6825 2.19416 30.2638 2.63623C30.8914 3.14322 31.3624 3.82414 31.6206 4.59743C31.7425 4.33037 31.8971 4.08018 32.0806 3.85283C32.3342 3.52779 32.6273 3.23695 32.9527 2.98728C33.3253 2.69747 33.7322 2.45654 34.1636 2.27014C34.6309 2.06876 35.1337 1.96752 35.6408 1.97269C36.2924 1.94597 36.9406 2.08055 37.5302 2.36493C37.9968 2.61039 38.3901 2.97961 38.6686 3.43378C38.9578 3.92712 39.1472 4.47461 39.2256 5.04392C39.3256 5.71082 39.3741 6.38472 39.3707 7.05938V11.3616C39.3707 11.8128 39.3788 12.1915 39.3949 12.4976C39.4012 12.7567 39.4503 13.0128 39.5402 13.2552C39.6162 13.4484 39.7531 13.6103 39.9292 13.7153C40.1707 13.8444 40.4336 13.9269 40.7045 13.9587C40.7493 13.9656 40.792 13.9826 40.8296 14.0084C40.8673 14.0341 40.8989 14.0681 40.9222 14.1077C40.9718 14.1934 40.997 14.2915 40.995 14.391C40.9948 14.4819 40.9695 14.5709 40.9222 14.6479C40.9004 14.6867 40.8685 14.7186 40.8301 14.7401C40.7917 14.7616 40.7482 14.7718 40.7045 14.7697C40.3718 14.7585 40.0401 14.7269 39.7112 14.6749C39.2456 14.6113 38.7764 14.5798 38.3066 14.5806C37.8085 14.5796 37.3109 14.6111 36.8168 14.6749C36.3954 14.7339 35.9708 14.7656 35.5454 14.7697C35.5053 14.7696 35.4659 14.7581 35.4317 14.7366C35.3976 14.7151 35.3698 14.6844 35.3516 14.6479C35.3043 14.5709 35.2792 14.4819 35.279 14.391C35.2769 14.2915 35.302 14.1934 35.3516 14.1077C35.3749 14.068 35.4066 14.0341 35.4442 14.0083C35.4819 13.9825 35.5247 13.9656 35.5695 13.9587C35.8753 13.9279 36.174 13.8457 36.4535 13.7153C36.6447 13.6177 36.8014 13.4618 36.9018 13.2692C37.0057 13.0493 37.0634 12.8096 37.0711 12.5656C37.0867 12.2858 37.0948 11.9385 37.0952 11.5237V8.03345C37.0952 7.54707 37.079 7.0421 37.0467 6.51853C37.0206 6.03144 36.9352 5.54956 36.7925 5.08402C36.6729 4.68284 36.461 4.31672 36.1745 4.01626C36.0183 3.87007 35.8348 3.75757 35.635 3.68549C35.4352 3.61341 35.2232 3.58324 35.0117 3.59678C34.5648 3.59557 34.1257 3.71697 33.7403 3.94827C33.3476 4.18072 32.999 4.48334 32.7112 4.8417C32.4242 5.19609 32.1916 5.59283 32.0211 6.01842C31.8585 6.4079 31.7721 6.82607 31.7666 7.2494V11.362C31.7666 11.885 31.7747 12.3043 31.7908 12.6198C31.7943 12.8749 31.8435 13.1272 31.9359 13.3642C32.012 13.5402 32.1505 13.6803 32.3236 13.7564C32.5725 13.8572 32.833 13.9254 33.0987 13.9595C33.1435 13.9665 33.1863 13.9835 33.2239 14.0092C33.2616 14.035 33.2933 14.0689 33.3166 14.1086C33.366 14.1943 33.3912 14.2924 33.3892 14.3919C33.3889 14.4827 33.3638 14.5717 33.3166 14.6488C33.2946 14.6875 33.2626 14.7194 33.2241 14.7408C33.1856 14.7622 33.142 14.7723 33.0982 14.7702C32.7657 14.7589 32.434 14.7273 32.1052 14.6754C31.6396 14.6118 31.1703 14.5802 30.7006 14.581C30.2025 14.58 29.7049 14.6115 29.2108 14.6754C28.8135 14.7323 28.4131 14.764 28.012 14.7702C27.9718 14.7699 27.9325 14.7585 27.8983 14.737C27.8642 14.7155 27.8364 14.6848 27.8182 14.6483C27.7708 14.5714 27.7456 14.4823 27.7454 14.3914C27.7433 14.2919 27.7685 14.1938 27.8182 14.1081C27.8415 14.0684 27.8731 14.0345 27.9108 14.0087C27.9485 13.983 27.9913 13.966 28.0361 13.9591C28.3211 13.9226 28.6014 13.8545 28.872 13.756C29.0579 13.6889 29.213 13.5542 29.3077 13.3777C29.407 13.1615 29.4606 12.9264 29.465 12.6876C29.481 12.3991 29.489 12.0112 29.4892 11.5239V8.03366C29.4892 7.54728 29.469 7.04231 29.4285 6.51874C29.3952 6.0306 29.302 5.54867 29.151 5.08424C29.0221 4.67896 28.7975 4.31227 28.497 4.01647C28.1624 3.72063 27.7278 3.57009 27.286 3.597C26.7931 3.58347 26.3051 3.69996 25.8692 3.93519C25.4854 4.1501 25.1542 4.45075 24.9003 4.81469C24.6478 5.1801 24.4594 5.58746 24.3433 6.01864C24.2245 6.44549 24.1636 6.88694 24.1621 7.33068V11.362" fill="#030D21"/>
<path d="M50.8679 11.6081C50.8425 12.0514 50.8968 12.4956 51.0284 12.92C51.0789 13.041 51.1671 13.1427 51.2802 13.2101C51.3933 13.2775 51.5251 13.3071 51.6564 13.2946C51.8073 13.2993 51.9577 13.2766 52.1003 13.2275C52.2737 13.1505 52.439 13.0566 52.5938 12.9472C52.6165 12.9298 52.6445 12.9203 52.6732 12.9203C52.702 12.9203 52.7299 12.9298 52.7527 12.9472C52.8123 12.9851 52.863 13.0353 52.9013 13.0944C52.9433 13.16 52.9728 13.2328 52.9881 13.309C52.9972 13.3438 52.9974 13.3804 52.9888 13.4153C52.9802 13.4503 52.9631 13.4826 52.9389 13.5093C52.2978 14.3488 51.542 14.7684 50.6715 14.768C50.2278 14.7792 49.7948 14.6318 49.4514 14.3524C49.1259 14.0908 48.868 13.7557 48.6994 13.375C48.6669 13.2862 48.6177 13.2775 48.5517 13.3489C48.114 13.7665 47.6104 14.1102 47.061 14.3665C46.3889 14.6548 45.6609 14.7918 44.9292 14.7677C43.993 14.7677 43.2704 14.4955 42.7611 13.9509C42.2519 13.4064 41.9972 12.6344 41.9969 11.6351C41.9772 11.0399 42.1202 10.4505 42.4109 9.92952C42.7015 9.40857 43.1288 8.97553 43.6474 8.67639C44.7478 7.99011 46.3495 7.64675 48.4524 7.64632C48.4846 7.64632 48.5098 7.60168 48.5263 7.51241C48.5481 7.30782 48.5563 7.10202 48.5506 6.89636V6.17356C48.5523 5.75221 48.5194 5.33142 48.4524 4.91535C48.3973 4.55633 48.2849 4.20833 48.1195 3.88443C47.9701 3.59759 47.7444 3.35686 47.4669 3.18837C47.1524 3.00999 46.7941 2.92189 46.4321 2.93392C45.9108 2.91015 45.3948 3.04562 44.9535 3.32206C44.7801 3.42695 44.6369 3.57439 44.5375 3.75019C44.4382 3.92599 44.3861 4.12423 44.3863 4.32582C44.3886 4.53004 44.4484 4.72954 44.5589 4.90177C44.6694 5.07401 44.7293 5.27351 44.7316 5.47772C44.7255 5.61496 44.6919 5.74962 44.6326 5.87375C44.5734 5.99789 44.4897 6.10899 44.3865 6.20052C44.2787 6.31275 44.1487 6.40159 44.0046 6.46145C43.8605 6.52131 43.7055 6.5509 43.5493 6.54833C43.1054 6.54833 42.7889 6.41895 42.5998 6.16019C42.4053 5.88159 42.3063 5.54826 42.3175 5.20948C42.3174 4.76259 42.4364 4.32365 42.6626 3.93726C42.8965 3.53092 43.2159 3.17944 43.599 2.90676C44.0195 2.6079 44.4851 2.37731 44.9785 2.22364C45.5117 2.0529 46.0688 1.96709 46.629 1.96941C47.9428 1.96941 48.9776 2.29968 49.7336 2.96023C50.4895 3.62078 50.8673 4.71849 50.867 6.25335L50.8679 11.6081ZM48.5517 8.95736C48.5582 8.83643 48.55 8.71517 48.5274 8.59617C48.5171 8.57308 48.4994 8.55399 48.4771 8.54183C48.4549 8.52968 48.4292 8.52514 48.404 8.5289C47.0567 8.65339 46.0586 8.96131 45.4098 9.45266C45.1054 9.66508 44.8576 9.94797 44.6881 10.2768C44.5185 10.6057 44.4322 10.9706 44.4367 11.3401C44.4198 11.8174 44.5485 12.2888 44.8059 12.6923C45.052 13.0583 45.4625 13.2412 46.0375 13.2411C46.4472 13.2346 46.8521 13.1529 47.2319 13.0002C47.6473 12.8418 48.0279 12.6054 48.3532 12.304C48.4711 12.1912 48.5415 12.0382 48.5502 11.8759V8.95736" fill="#030D21"/>
<path d="M61.3623 2.3728C61.3076 2.61131 61.2646 2.85261 61.2336 3.09575C61.1937 3.39741 61.1741 3.70161 61.1748 4.00614C61.1748 4.34576 61.1828 4.69803 61.1987 5.06296C61.2147 5.42789 61.2224 5.70921 61.2218 5.90691C61.2199 5.93623 61.21 5.96437 61.1934 5.98807C61.1768 6.01178 61.1542 6.03008 61.1281 6.04085C61.0629 6.07761 60.9915 6.10041 60.9179 6.10793C60.8467 6.11769 60.7744 6.10827 60.7077 6.08054C60.6805 6.07137 60.6558 6.05566 60.6355 6.03469C60.6152 6.01371 60.5999 5.98804 60.5908 5.95975C60.4188 5.01422 60.1382 4.28673 59.7491 3.7773C59.3599 3.26787 58.7364 3.01344 57.8786 3.01401C57.3614 2.99316 56.8545 3.16942 56.452 3.51008C56.2681 3.6717 56.1219 3.87519 56.0246 4.10502C55.9274 4.33484 55.8816 4.5849 55.8909 4.83607C55.8804 5.04092 55.9175 5.24538 55.999 5.43195C56.0805 5.61852 56.2039 5.78165 56.3588 5.90735C56.7401 6.19675 57.1569 6.43101 57.5979 6.60377C57.8161 6.69292 58.0771 6.80443 58.381 6.93829C58.6849 7.07215 58.9306 7.18366 59.1181 7.27281C59.5225 7.48762 59.9003 7.71049 60.2514 7.94141C60.5924 8.16493 60.8997 8.44027 61.1633 8.7584C61.4213 9.07266 61.6267 9.43034 61.7708 9.81631C61.9263 10.2526 62.0017 10.7157 61.9931 11.1813C62.013 11.7729 61.884 12.3595 61.6191 12.8824C61.3842 13.3204 61.0562 13.6961 60.6605 13.9804C60.2549 14.2644 59.8034 14.4687 59.3279 14.5832C58.8455 14.7058 58.3511 14.7686 57.8547 14.7705C57.3986 14.7645 56.9443 14.7105 56.4986 14.6093C56.045 14.5183 55.6048 14.3652 55.1894 14.154C55.1403 14.1371 55.0879 14.1331 55.037 14.1424C54.986 14.1518 54.9381 14.1742 54.8974 14.2077C54.8397 14.2568 54.7923 14.3177 54.7581 14.3868C54.724 14.4558 54.7038 14.5315 54.6988 14.6091C54.6988 14.6628 54.6633 14.698 54.5931 14.717C54.5204 14.7348 54.446 14.7438 54.3713 14.7437C54.3071 14.7435 54.2436 14.73 54.1844 14.7038C54.1585 14.6971 54.1353 14.6817 54.1184 14.6601C54.1015 14.6384 54.0918 14.6116 54.0907 14.5837C54.0945 14.3864 54.1102 14.1895 54.1374 13.9942C54.1672 13.7634 54.1829 13.5309 54.1844 13.298C54.1844 13.0838 54.1726 12.8473 54.149 12.5886C54.1254 12.33 54.102 12.0754 54.0789 11.8249C54.0556 11.575 54.0359 11.353 54.0206 11.1563C54.0054 10.9596 53.9973 10.8175 53.9973 10.7278C53.9964 10.6944 54.0047 10.6616 54.0213 10.6331C54.0379 10.6046 54.062 10.5817 54.0907 10.5673C54.1558 10.5308 54.2273 10.5081 54.3009 10.5007C54.3759 10.4912 54.452 10.5001 54.5232 10.5268C54.5551 10.5374 54.5838 10.5566 54.6064 10.5825C54.6291 10.6084 54.6448 10.64 54.652 10.6743C54.7457 11.1438 54.8866 11.6017 55.0724 12.0402C55.2279 12.4082 55.4458 12.7438 55.7155 13.0306C55.9795 13.303 56.2992 13.509 56.6504 13.633C57.077 13.7766 57.5235 13.8445 57.9715 13.834C58.2221 13.8449 58.4722 13.8031 58.7071 13.7111C58.942 13.6191 59.157 13.4788 59.3392 13.2984C59.521 13.1 59.6616 12.8643 59.7522 12.6062C59.8429 12.3482 59.8816 12.0733 59.8659 11.7988C59.8777 11.5468 59.8367 11.2951 59.7457 11.0615C59.6547 10.8278 59.516 10.6179 59.3392 10.4463C58.9681 10.1017 58.5555 9.80929 58.1121 9.57647C57.8934 9.46921 57.6711 9.36202 57.4454 9.2549C57.2197 9.14778 56.9898 9.04058 56.7555 8.93332C56.4129 8.77228 56.0739 8.60692 55.7386 8.43725C55.4139 8.27525 55.1144 8.06286 54.8502 7.80726C54.5833 7.54385 54.3722 7.22474 54.2306 6.87057C54.0627 6.42799 53.9831 5.95413 53.9967 5.47815C53.9794 4.90988 54.1041 4.34672 54.3586 3.84438C54.5872 3.41291 54.9072 3.0419 55.2939 2.75973C55.6809 2.48083 56.1126 2.2768 56.5684 2.15734C57.0189 2.03476 57.4822 1.97179 57.9476 1.96991C58.3397 1.96297 58.7303 2.02173 59.1047 2.14396C59.5027 2.29529 59.8772 2.50752 60.2158 2.77375C60.255 2.7912 60.2976 2.79903 60.3401 2.79664C60.3827 2.79424 60.4242 2.78169 60.4614 2.75994C60.5625 2.71565 60.6443 2.56842 60.7069 2.31824C60.7142 2.28352 60.7316 2.25202 60.7567 2.22804C60.7817 2.20407 60.8133 2.18879 60.847 2.1843C60.9236 2.16688 61.0024 2.16229 61.0805 2.17071C61.1541 2.17861 61.2257 2.20124 61.2913 2.23736C61.3531 2.27381 61.377 2.31823 61.3615 2.37172" fill="#030D21"/>
<path d="M67.2184 11.3186C67.2184 11.7756 67.2262 12.159 67.2418 12.469C67.2479 12.7341 67.3054 12.9952 67.411 13.2364C67.5069 13.4376 67.6627 13.6011 67.855 13.7022C68.124 13.8327 68.4118 13.916 68.7068 13.9488C68.7512 13.9557 68.7935 13.9729 68.8308 13.999C68.8681 14.0251 68.8994 14.0595 68.9224 14.0997C68.9721 14.1863 68.9973 14.2857 68.995 14.3866C68.995 14.4788 68.9698 14.569 68.9224 14.6468C68.9009 14.6861 68.8693 14.7185 68.8313 14.7402C68.7932 14.762 68.7501 14.7724 68.7068 14.7702C68.3295 14.7627 67.953 14.7306 67.5795 14.6742C67.1098 14.6103 66.6365 14.5784 66.1628 14.5786C65.6616 14.5781 65.1608 14.6101 64.6634 14.6742C64.1978 14.7364 63.7289 14.7685 63.2595 14.7702C63.2198 14.7699 63.1809 14.7583 63.1471 14.7366C63.1132 14.7148 63.0858 14.6837 63.0677 14.6468C63.0207 14.5689 62.9956 14.4787 62.9952 14.3866C62.9933 14.2858 63.0184 14.1864 63.0677 14.0997C63.0909 14.0595 63.1223 14.025 63.1597 13.9989C63.1971 13.9728 63.2396 13.9557 63.2841 13.9488C63.6174 13.9156 63.9444 13.8326 64.2551 13.7022C64.4655 13.6125 64.6423 13.454 64.7592 13.2505C64.8703 13.0303 64.9319 12.7866 64.9391 12.5379C64.9549 12.2545 64.963 11.9028 64.9634 11.4828V7.07142C64.9634 6.28577 64.9474 5.65548 64.9154 5.18056C64.9048 4.80931 64.8317 4.44291 64.6995 4.09808C64.602 3.86652 64.4208 3.68449 64.1954 3.59159C63.9007 3.48232 63.595 3.40864 63.2843 3.37201C63.2393 3.37335 63.195 3.36109 63.1566 3.33669C63.1182 3.31229 63.0874 3.2768 63.068 3.23452C63.0218 3.15125 62.9968 3.05704 62.9954 2.96086C62.997 2.86463 63.0219 2.77038 63.068 2.68699C63.0875 2.64479 63.1183 2.60939 63.1567 2.58507C63.1951 2.56075 63.2394 2.54855 63.2843 2.54994C63.4433 2.53206 63.6397 2.51375 63.8715 2.49521C64.1032 2.47667 64.3475 2.45438 64.6037 2.42657C64.86 2.39877 65.1195 2.36302 65.3834 2.31623C65.6473 2.26944 65.8826 2.22023 66.0907 2.1655C66.2342 2.1386 66.3749 2.09728 66.5108 2.04213C66.5899 2.00273 66.6754 1.97937 66.7629 1.97328C66.8362 1.96222 66.9111 1.97468 66.9775 2.009C67.0439 2.04333 67.0988 2.09791 67.1348 2.1655C67.1871 2.27642 67.2159 2.39772 67.2194 2.52125V11.3177" fill="#030D21"/>
<path d="M80.9932 8.02135C81.0091 9.00139 80.8712 9.97771 80.5846 10.9134C80.3459 11.6935 79.9494 12.4141 79.4206 13.0285C78.9219 13.5969 78.3019 14.0412 77.6085 14.3275C76.8601 14.6307 76.0605 14.781 75.2552 14.7699C74.5383 14.7768 73.8276 14.6356 73.1658 14.3547C72.5276 14.0798 71.9606 13.6581 71.5092 13.1225C71.0112 12.5165 70.636 11.8159 70.4051 11.0613C70.1155 10.1122 69.9777 9.12183 69.9969 8.12811C69.9871 7.27559 70.1253 6.42803 70.4051 5.62454C70.6533 4.90597 71.0411 4.24578 71.5453 3.68345C72.041 3.14302 72.6422 2.7142 73.3101 2.42455C74.0238 2.11635 74.7921 1.9615 75.5671 1.96968C76.3099 1.96183 77.0474 2.09819 77.7401 2.37149C78.3884 2.62842 78.9741 3.0258 79.4568 3.53614C79.9575 4.07891 80.3418 4.72197 80.5852 5.42439C80.8714 6.25873 81.0098 7.13829 80.9939 8.022L80.9932 8.02135ZM78.4721 8.31575C78.4732 7.6532 78.433 6.99126 78.3517 6.3339C78.2855 5.74527 78.1402 5.16869 77.92 4.62035C77.7343 4.15188 77.4372 3.7378 77.0555 3.41536C76.65 3.0993 76.1487 2.93818 75.6387 2.96007C75.0837 2.93437 74.5358 3.09425 74.0783 3.41536C73.6664 3.73338 73.3402 4.15243 73.13 4.63351C72.8866 5.18193 72.7246 5.76424 72.6494 6.36129C72.5596 7.0266 72.5153 7.69745 72.5167 8.36902C72.5182 8.99608 72.5584 9.62242 72.6371 10.2443C72.7059 10.8438 72.8596 11.4299 73.0934 11.9844C73.3009 12.4795 73.6172 12.9193 74.018 13.2701C74.4408 13.6201 74.9744 13.8009 75.5187 13.7784C76.0629 13.8047 76.5988 13.634 77.0314 13.2964C77.4284 12.9584 77.7379 12.5262 77.9329 12.0379C78.1594 11.4777 78.3048 10.8869 78.3646 10.284C78.4368 9.63043 78.4729 8.97324 78.4728 8.31554" fill="#030D21"/>
</g>
<defs>
<clipPath id="clip0">
<rect width="103" height="15.7552" fill="white"/>
</clipPath>
</defs>
</svg>
