<svg width="152" height="507" viewBox="0 0 152 507" fill="none" xmlns="http://www.w3.org/2000/svg">
<g opacity="0.35" filter="url(#filter0_b)">
<path opacity="0.5" d="M78.668 40C78.668 51.0457 69.7137 60 58.668 60H16.668C13.9065 60 11.668 57.7614 11.668 55V20C11.668 8.9543 20.6223 0 31.668 0H73.668C76.4294 0 78.668 2.23857 78.668 5V40Z" fill="url(#paint0_linear)"/>
<path d="M-82.416 179C-82.416 195.569 -68.9846 209 -52.416 209H45.6674C48.4288 209 50.6674 206.761 50.6674 204V105.927C50.6674 89.3587 37.236 75.9272 20.6674 75.9272H-77.416C-80.1774 75.9272 -82.416 78.1658 -82.416 80.9272V179Z" fill="url(#paint1_linear)"/>
<path d="M61.5938 498.002C58.8323 498.002 56.5938 495.763 56.5938 493.002L56.5938 472.925C56.5938 461.88 65.5481 452.925 76.5938 452.925L96.6668 452.925C99.4282 452.925 101.667 455.164 101.667 457.925L101.667 478.002C101.667 489.048 92.7125 498.002 81.6668 498.002L61.5938 498.002Z" fill="url(#paint2_linear)"/>
<path opacity="0.3" d="M151.668 502C151.668 504.761 149.429 507 146.668 507H129.47C123.948 507 119.47 502.523 119.47 497V479.805C119.47 477.044 121.709 474.805 124.47 474.805H141.668C147.191 474.805 151.668 479.282 151.668 484.805V502Z" fill="url(#paint3_linear)"/>
<path opacity="0.3" d="M28.668 320C28.668 331.046 19.7137 340 8.66797 340H-32.332C-35.0935 340 -37.332 337.761 -37.332 335V294C-37.332 282.954 -28.3777 274 -17.332 274H23.668C26.4294 274 28.668 276.239 28.668 279V320Z" fill="url(#paint4_linear)"/>
</g>
<defs>
<filter id="filter0_b" x="-140.994" y="-30" width="322.662" height="567" filterUnits="userSpaceOnUse" color-interpolation-filters="sRGB">
<feFlood flood-opacity="0" result="BackgroundImageFix"/>
<feGaussianBlur in="BackgroundImage" stdDeviation="15"/>
<feComposite in2="SourceAlpha" operator="in" result="effect1_backgroundBlur"/>
<feBlend mode="normal" in="SourceGraphic" in2="effect1_backgroundBlur" result="shape"/>
</filter>
<linearGradient id="paint0_linear" x1="8.00301" y1="72.7444" x2="100.79" y2="46.2877" gradientUnits="userSpaceOnUse">
<stop stop-color="#00CE7B"/>
<stop offset="1" stop-color="#5277C0"/>
</linearGradient>
<linearGradient id="paint1_linear" x1="-0.575646" y1="187.658" x2="-101.147" y2="186.614" gradientUnits="userSpaceOnUse">
<stop stop-color="#FB5F47"/>
<stop offset="1" stop-color="#F9BE5A"/>
</linearGradient>
<linearGradient id="paint2_linear" x1="63.8224" y1="470.282" x2="64.1762" y2="504.346" gradientUnits="userSpaceOnUse">
<stop stop-color="#FB5F47"/>
<stop offset="1" stop-color="#F9BE5A"/>
</linearGradient>
<linearGradient id="paint3_linear" x1="117.709" y1="513.838" x2="162.973" y2="502.28" gradientUnits="userSpaceOnUse">
<stop stop-color="#00CE7B"/>
<stop offset="1" stop-color="#5277C0"/>
</linearGradient>
<linearGradient id="paint4_linear" x1="-40.9423" y1="354.019" x2="51.8417" y2="330.327" gradientUnits="userSpaceOnUse">
<stop stop-color="#00CE7B"/>
<stop offset="1" stop-color="#5277C0"/>
</linearGradient>
</defs>
</svg>
