<svg width="40" height="40" viewBox="0 0 40 40" fill="none" xmlns="http://www.w3.org/2000/svg">
<g filter="url(#filter0_b)">
<path opacity="1" fill-rule="evenodd" clip-rule="evenodd" d="M0 20.0003C0 8.95395 8.95429 0 19.9997 0C19.9998 0 19.9999 0 20 0C31.046 0 40.0003 8.95395 40.0003 20.0003C40.0003 31.0457 31.0461 40 20 40C19.9999 40 19.9998 40 19.9997 40C8.95429 40 0 31.0457 0 20.0003Z" fill="url(#paint0_linear)"/>
<path d="M19.6124 13.3694C19.4952 13.4856 19.4022 13.6237 19.3388 13.7759C19.2753 13.9281 19.2426 14.0913 19.2426 14.2562C19.2426 14.4211 19.2753 14.5843 19.3388 14.7365C19.4022 14.8887 19.4952 15.0269 19.6124 15.143L23.7373 19.2521L14.25 19.2521C13.9185 19.2521 13.6005 19.3837 13.3661 19.6179C13.1317 19.8521 13 20.1698 13 20.5011C13 20.8323 13.1317 21.15 13.3661 21.3842C13.6005 21.6184 13.9185 21.75 14.25 21.75L23.7373 21.75L19.6124 25.8591C19.377 26.0943 19.2448 26.4133 19.2448 26.7459C19.2448 27.0785 19.377 27.3975 19.6124 27.6327C19.8477 27.8679 20.167 28 20.4999 28C20.8327 28 21.152 27.8679 21.3873 27.6327L27.6372 21.3878C27.751 21.2691 27.8402 21.129 27.8997 20.9757C27.9658 20.8262 28 20.6645 28 20.5011C28 20.3376 27.9658 20.176 27.8997 20.0265C27.8402 19.8731 27.751 19.7331 27.6372 19.6143L21.3873 13.3694C21.2711 13.2524 21.1329 13.1595 20.9806 13.0961C20.8282 13.0326 20.6649 13 20.4999 13C20.3348 13 20.1715 13.0326 20.0191 13.0961C19.8668 13.1595 19.7286 13.2524 19.6124 13.3694Z" fill="white"/>
</g>
<defs>
<filter id="filter0_b" x="-10" y="-10" width="60.0003" height="60" filterUnits="userSpaceOnUse" color-interpolation-filters="sRGB">
<feFlood flood-opacity="0" result="BackgroundImageFix"/>
<feGaussianBlur in="BackgroundImage" stdDeviation="5"/>
<feComposite in2="SourceAlpha" operator="in" result="effect1_backgroundBlur"/>
<feBlend mode="normal" in="SourceGraphic" in2="effect1_backgroundBlur" result="shape"/>
</filter>
<linearGradient id="paint0_linear" x1="-18.2189" y1="88.0522" x2="75.8221" y2="87.2627" gradientUnits="userSpaceOnUse">
<stop stop-color="#24B04B"/>
<stop offset="1" stop-color="#0263BC"/>
</linearGradient>
</defs>
</svg>

