<svg width="107" height="20" fill="none" xmlns="http://www.w3.org/2000/svg"><path d="M9.897 0l2.223 6.91h7.19l-5.817 4.27 2.222 6.91-5.818-4.27-5.817 4.27 2.222-6.91L.484 6.91h7.191L9.897 0zM31.692 0l2.222 6.91h7.191l-5.817 4.27 2.222 6.91-5.818-4.27-5.817 4.27 2.222-6.91-5.818-4.27h7.191L31.692 0zM53.487 0l2.222 6.91H62.9l-5.817 4.27 2.222 6.91-5.818-4.27-5.817 4.27 2.222-6.91-5.818-4.27h7.191L53.487 0zM75.282 0l2.222 6.91h7.191l-5.817 4.27 2.222 6.91-5.818-4.27-5.817 4.27 2.222-6.91-5.818-4.27h7.191L75.282 0zM97.077 0L99.3 6.91h7.191l-5.817 4.27 2.222 6.91-5.818-4.27-5.817 4.27 2.222-6.91-5.818-4.27h7.191L97.077 0z" fill="#FFC121"/></svg>