<svg class="icon" width="9" height="6" viewBox="0 0 9 6" fill="white" xmlns="http://www.w3.org/2000/svg">
<path d="M5.0327 5.11434L8.77961 1.52404C8.84948 1.45709 8.90491 1.37761 8.94272 1.29013C8.98054 1.20265 9 1.1089 9 1.01422C9 0.822995 8.92072 0.639607 8.77961 0.504393C8.70974 0.437442 8.62679 0.384334 8.5355 0.3481C8.44421 0.311867 8.34636 0.293218 8.24755 0.293218C8.04799 0.293218 7.8566 0.36918 7.71549 0.504393L4.50064 3.59205L1.28579 0.504393C1.21612 0.43709 1.13324 0.383671 1.04192 0.347216C0.950603 0.310761 0.852654 0.291992 0.753727 0.291992C0.654799 0.291992 0.556851 0.310761 0.465532 0.347216C0.374213 0.383671 0.291331 0.43709 0.221666 0.504393C0.151428 0.571146 0.0956774 0.650564 0.0576315 0.738066C0.0195865 0.825568 -2.74259e-08 0.919423 -3.15694e-08 1.01422C-3.57129e-08 1.10901 0.0195865 1.20286 0.0576314 1.29036C0.0956773 1.37787 0.151428 1.45729 0.221666 1.52404L3.96858 5.11434C4.03824 5.18164 4.12112 5.23506 4.21244 5.27152C4.30376 5.30797 4.40171 5.32674 4.50064 5.32674C4.59957 5.32674 4.69751 5.30797 4.78883 5.27152C4.88015 5.23506 4.96304 5.18164 5.0327 5.11434Z" fill="white"/>
</svg>
