<svg width="160" height="512" viewBox="0 0 160 512" fill="none" xmlns="http://www.w3.org/2000/svg">
<g opacity="0.35" filter="url(#filter0_b)">
<path opacity="0.5" d="M80 468C80 456.954 88.9543 448 100 448H139C141.761 448 144 450.239 144 453V492C144 503.046 135.046 512 124 512H85C82.2386 512 80 509.761 80 507V468Z" fill="url(#paint0_linear)"/>
<path d="M238 318C238 301.431 224.569 288 208 288H117C114.239 288 112 290.239 112 293V386C112 402.569 125.431 416 142 416H233C235.761 416 238 413.761 238 411V318Z" fill="url(#paint1_linear)"/>
<path d="M91 -2.18557e-07C93.7614 -9.78513e-08 96 2.23858 96 5L96 28C96 39.0457 87.0457 48 76 48L53 48C50.2386 48 48 45.7614 48 43L48 20C48 8.9543 56.9543 -1.70674e-06 68 -1.22392e-06L91 -2.18557e-07Z" fill="url(#paint2_linear)"/>
<path opacity="0.3" d="M0 5C0 2.23857 2.23858 0 5 0H22.1976C27.7205 0 32.1976 4.47715 32.1976 10V27.195C32.1976 29.9565 29.959 32.195 27.1976 32.195H10C4.47715 32.195 0 27.7179 0 22.195V5Z" fill="url(#paint3_linear)"/>
<path opacity="0.3" d="M128 180C128 168.954 136.954 160 148 160H189C191.761 160 194 162.239 194 165V204C194 215.046 185.046 224 174 224H133C130.239 224 128 221.761 128 219V180Z" fill="url(#paint4_linear)"/>
</g>
<defs>
<filter id="filter0_b" x="-30" y="-30" width="326.661" height="572" filterUnits="userSpaceOnUse" color-interpolation-filters="sRGB">
<feFlood flood-opacity="0" result="BackgroundImageFix"/>
<feGaussianBlur in="BackgroundImage" stdDeviation="15"/>
<feComposite in2="SourceAlpha" operator="in" result="effect1_backgroundBlur"/>
<feBlend mode="normal" in="SourceGraphic" in2="effect1_backgroundBlur" result="shape"/>
</filter>
<linearGradient id="paint0_linear" x1="147.501" y1="434.406" x2="57.5285" y2="457.38" gradientUnits="userSpaceOnUse">
<stop stop-color="#00CE7B"/>
<stop offset="1" stop-color="#5277C0"/>
</linearGradient>
<linearGradient id="paint1_linear" x1="160.516" y1="308.528" x2="255.734" y2="309.502" gradientUnits="userSpaceOnUse">
<stop stop-color="#FB5F47"/>
<stop offset="1" stop-color="#F9BE5A"/>
</linearGradient>
<linearGradient id="paint2_linear" x1="88.302" y1="29.5179" x2="87.9252" y2="-6.75573" gradientUnits="userSpaceOnUse">
<stop stop-color="#FB5F47"/>
<stop offset="1" stop-color="#F9BE5A"/>
</linearGradient>
<linearGradient id="paint3_linear" x1="33.9588" y1="-6.83843" x2="-11.3047" y2="4.7202" gradientUnits="userSpaceOnUse">
<stop stop-color="#00CE7B"/>
<stop offset="1" stop-color="#5277C0"/>
</linearGradient>
<linearGradient id="paint4_linear" x1="197.61" y1="146.406" x2="105.185" y2="170.744" gradientUnits="userSpaceOnUse">
<stop stop-color="#00CE7B"/>
<stop offset="1" stop-color="#5277C0"/>
</linearGradient>
</defs>
</svg>
