<svg width="96" height="545" viewBox="0 0 96 545" fill="none" xmlns="http://www.w3.org/2000/svg">
<g filter="url(#filter0_b)">
<path d="M67.2344 167C67.2344 150.431 80.6658 137 97.2344 137H195.318C198.079 137 200.318 139.239 200.318 142V240.073C200.318 256.641 186.886 270.073 170.318 270.073H72.2344C69.473 270.073 67.2344 267.834 67.2344 265.073V167Z" fill="white"/>
<path d="M0 5C0 2.23858 2.23858 0 5 0H33C44.0457 0 53 8.9543 53 20V43C53 45.7614 50.7614 48 48 48H20C8.95431 48 0 39.0457 0 28V5Z" fill="url(#paint0_linear)"/>
<path opacity="0.65" d="M32 494C32 477.431 45.4315 464 62 464H116C118.761 464 121 466.239 121 469V515C121 531.569 107.569 545 91 545H37C34.2386 545 32 542.761 32 540V494Z" fill="url(#paint1_linear)"/>
</g>
<defs>
<filter id="filter0_b" x="-30" y="-30" width="314.661" height="605" filterUnits="userSpaceOnUse" color-interpolation-filters="sRGB">
<feFlood flood-opacity="0" result="BackgroundImageFix"/>
<feGaussianBlur in="BackgroundImage" stdDeviation="15"/>
<feComposite in2="SourceAlpha" operator="in" result="effect1_backgroundBlur"/>
<feBlend mode="normal" in="SourceGraphic" in2="effect1_backgroundBlur" result="shape"/>
</filter>
<linearGradient id="paint0_linear" x1="26.5" y1="0" x2="26.5" y2="48" gradientUnits="userSpaceOnUse">
<stop stop-color="#FEA496"/>
<stop offset="1" stop-color="#FCD798"/>
</linearGradient>
<linearGradient id="paint1_linear" x1="-8.53672" y1="642.306" x2="200.7" y2="640.376" gradientUnits="userSpaceOnUse">
<stop stop-color="#24B04B"/>
<stop offset="1" stop-color="#0263BC"/>
</linearGradient>
</defs>
</svg>
