<svg id="hover" width="107" height="131" viewBox="0 0 107 131" fill="none" xmlns="http://www.w3.org/2000/svg">
<path d="M104.35 16.2838L58.85 0.962595C55.64 -0.320866 51.36 -0.320871 48.15 0.962614L2.64957 16.2838C1.07703 16.7677 0 18.2528 0 19.9372V76.1148C0 83.4216 2.88356 90.9014 8.57013 98.3464C12.9132 104.032 18.922 109.742 26.429 115.317C39.0403 124.682 51.4587 130.427 51.9813 130.667C52.4644 130.889 52.9824 131 53.5005 131C54.0186 131 54.5366 130.889 55.0197 130.667C55.542 130.427 67.9602 124.682 80.5715 115.317C88.0785 109.742 94.0871 104.032 98.4304 98.3464C104.117 90.9017 107 83.4219 107 76.1148V19.9372C107 18.2528 105.923 16.7677 104.35 16.2838Z" fill="#F47E2A"/>
</svg>
