<svg width="24" height="24" viewBox="0 0 24 24" fill="none" xmlns="http://www.w3.org/2000/svg">
<path fill-rule="evenodd" clip-rule="evenodd" d="M17.4151 6.3549C16.8982 5.838 16.0601 5.838 15.5432 6.3549L11.7987 10.0994L8.05434 6.35499C7.53744 5.83809 6.69938 5.83809 6.18249 6.35499C5.66559 6.87189 5.66559 7.70994 6.18249 8.22684L9.92689 11.9712L6.18398 15.7141C5.66708 16.231 5.66708 17.0691 6.18398 17.586C6.70088 18.1029 7.53893 18.1029 8.05583 17.586L11.7987 13.8431L15.5417 17.5861C16.0586 18.103 16.8967 18.103 17.4136 17.5861C17.9305 17.0692 17.9305 16.2311 17.4136 15.7142L13.6706 11.9712L17.4151 8.22675C17.932 7.70985 17.932 6.87179 17.4151 6.3549Z" fill="#2E3542"/>
</svg>
