<svg width="13" height="8" viewBox="0 0 13 8" fill="none" xmlns="http://www.w3.org/2000/svg">
<path d="M7.26946 7.55377L12.6817 2.54717C12.7826 2.45381 12.8626 2.34297 12.9173 2.22099C12.9719 2.099 13 1.96826 13 1.83623C13 1.56958 12.8855 1.31384 12.6817 1.12529C12.5807 1.03193 12.4609 0.95787 12.3291 0.907343C12.1972 0.856816 12.0559 0.830811 11.9131 0.830811C11.6249 0.830811 11.3484 0.936738 11.1446 1.12529L6.50092 5.43097L1.85725 1.12529C1.75662 1.03144 1.63691 0.956946 1.505 0.90611C1.37309 0.855274 1.23161 0.829101 1.08872 0.829101C0.945823 0.829101 0.804342 0.855274 0.672436 0.90611C0.540531 0.956946 0.420813 1.03144 0.320186 1.12529C0.21873 1.21838 0.138201 1.32912 0.083247 1.45114C0.0282929 1.57316 5.19692e-07 1.70404 5.13971e-07 1.83623C5.0825e-07 1.96842 0.0282928 2.09929 0.0832469 2.22131C0.138201 2.34333 0.21873 2.45408 0.320186 2.54717L5.73239 7.55377C5.83302 7.64763 5.95274 7.72212 6.08464 7.77296C6.21655 7.82379 6.35803 7.84996 6.50092 7.84996C6.64382 7.84997 6.7853 7.82379 6.91721 7.77296C7.04911 7.72212 7.16883 7.64763 7.26946 7.55377Z" fill="#011949"/>
</svg>
