<svg width="40" height="42" viewBox="0 0 40 42" fill="none" xmlns="http://www.w3.org/2000/svg">
<g filter="url(#filter0_b)">
<path opacity="0.9" fill-rule="evenodd" clip-rule="evenodd" d="M0 21.1285C0 9.85549 8.95429 0.717773 19.9997 0.717773C19.9998 0.717773 19.9999 0.717773 20 0.717773C31.046 0.717773 40.0003 9.85549 40.0003 21.1285C40.0003 32.4006 31.0461 41.5387 20 41.5387C19.9999 41.5387 19.9998 41.5387 19.9997 41.5387C8.95429 41.5387 0 32.4006 0 21.1285Z" fill="#3643A2"/>
<path d="M19.6124 14.3617C19.4952 14.4802 19.4022 14.6211 19.3388 14.7764C19.2753 14.9318 19.2426 15.0984 19.2426 15.2666C19.2426 15.4349 19.2753 15.6015 19.3388 15.7568C19.4022 15.9121 19.4952 16.0531 19.6124 16.1716L23.7373 20.365L14.25 20.365C13.9185 20.365 13.6005 20.4993 13.3661 20.7384C13.1317 20.9774 13 21.3016 13 21.6396C13 21.9777 13.1317 22.3019 13.3661 22.5409C13.6005 22.78 13.9185 22.9142 14.25 22.9142L23.7373 22.9142L19.6124 27.1077C19.377 27.3477 19.2448 27.6732 19.2448 28.0127C19.2448 28.3521 19.377 28.6776 19.6124 28.9176C19.8477 29.1576 20.167 29.2925 20.4999 29.2925C20.8327 29.2925 21.152 29.1576 21.3873 28.9176L27.6372 22.5446C27.751 22.4234 27.8402 22.2805 27.8997 22.124C27.9658 21.9714 28 21.8065 28 21.6396C28 21.4728 27.9658 21.3079 27.8997 21.1553C27.8402 20.9988 27.751 20.8559 27.6372 20.7347L21.3873 14.3617C21.2711 14.2422 21.1329 14.1474 20.9806 14.0827C20.8282 14.0179 20.6649 13.9846 20.4999 13.9846C20.3348 13.9846 20.1715 14.0179 20.0191 14.0827C19.8668 14.1474 19.7286 14.2422 19.6124 14.3617Z" fill="white"/>
</g>
<defs>
<filter id="filter0_b" x="-10" y="-9.28223" width="60.0003" height="60.8209" filterUnits="userSpaceOnUse" color-interpolation-filters="sRGB">
<feFlood flood-opacity="0" result="BackgroundImageFix"/>
<feGaussianBlur in="BackgroundImage" stdDeviation="5"/>
<feComposite in2="SourceAlpha" operator="in" result="effect1_backgroundBlur"/>
<feBlend mode="normal" in="SourceGraphic" in2="effect1_backgroundBlur" result="shape"/>
</filter>
</defs>
</svg>
