<svg width="17" height="20" viewBox="0 0 17 20" fill="none" xmlns="http://www.w3.org/2000/svg">
<path fill-rule="evenodd" clip-rule="evenodd" d="M12.8424 6.57145C12.5788 7.46468 12.0419 8.254 11.3062 8.82961C12.572 9.3292 13.6772 10.162 14.5034 11.2386C15.3295 12.3153 15.8455 13.5952 15.996 14.9413C16.0171 15.1371 15.9595 15.3332 15.8358 15.487C15.7121 15.6407 15.5323 15.7396 15.3356 15.7621H15.2531C15.0676 15.7633 14.8883 15.696 14.7497 15.5734C14.6111 15.4507 14.5232 15.2814 14.5028 15.098C14.338 13.6392 13.6386 12.292 12.5382 11.3137C11.4377 10.3353 10.0135 9.79451 8.53744 9.79451C7.06142 9.79451 5.63714 10.3353 4.53672 11.3137C3.4363 12.292 2.73689 13.6392 2.57213 15.098C2.55024 15.2959 2.45019 15.4771 2.29399 15.6016C2.13779 15.7262 1.93824 15.7839 1.73924 15.7621C1.54023 15.7404 1.35807 15.6409 1.23283 15.4855C1.17082 15.4086 1.12465 15.3203 1.09695 15.2256C1.06926 15.131 1.06058 15.0318 1.07142 14.9338C1.22116 13.5916 1.73436 12.3149 2.55629 11.2399C3.37822 10.1649 4.47808 9.33186 5.73862 8.82961C5.00298 8.254 4.46603 7.46468 4.20247 6.57145C3.93891 5.67822 3.96184 4.7255 4.26809 3.84584C4.57433 2.96618 5.14865 2.20332 5.91115 1.66339C6.67365 1.12346 7.5864 0.833313 8.52243 0.833313C9.45846 0.833313 10.3712 1.12346 11.1337 1.66339C11.8962 2.20332 12.4705 2.96618 12.7768 3.84584C13.083 4.7255 13.106 5.67822 12.8424 6.57145ZM6.85494 7.79673C7.34852 8.12472 7.92881 8.29978 8.52243 8.29978C9.31846 8.29978 10.0819 7.9853 10.6448 7.42551C11.2076 6.86572 11.5238 6.10649 11.5238 5.31483C11.5238 4.72447 11.3478 4.14736 11.018 3.65649C10.6882 3.16561 10.2195 2.78303 9.67103 2.5571C9.12259 2.33118 8.5191 2.27207 7.93689 2.38724C7.35467 2.50242 6.81987 2.78671 6.40011 3.20416C5.98036 3.62161 5.6945 4.15348 5.57869 4.7325C5.46288 5.31152 5.52232 5.9117 5.74949 6.45712C5.97666 7.00255 6.36136 7.46874 6.85494 7.79673ZM6.13919 17.2461C6.08503 17.2235 6.03588 17.1904 5.99456 17.1488C5.9529 17.1075 5.91984 17.0583 5.89728 17.0041C5.87471 16.95 5.8631 16.8919 5.8631 16.8332C5.8631 16.7746 5.87471 16.7165 5.89728 16.6623C5.91984 16.6081 5.9529 16.559 5.99456 16.5177L8.21678 14.2954C8.25905 14.255 8.30889 14.2233 8.36345 14.2021C8.41665 14.1786 8.47418 14.1665 8.53234 14.1665C8.5905 14.1665 8.64803 14.1786 8.70123 14.2021C8.75578 14.2233 8.80563 14.255 8.8479 14.2954L11.0701 16.5177C11.1538 16.6014 11.2008 16.7149 11.2008 16.8332C11.2008 16.9516 11.1538 17.0651 11.0701 17.1488C10.9864 17.2325 10.8729 17.2795 10.7546 17.2795C10.6362 17.2795 10.5227 17.2325 10.439 17.1488L8.97678 15.6821L8.97678 19.0554C8.97678 19.1733 8.92996 19.2864 8.84661 19.3697C8.76326 19.4531 8.65021 19.4999 8.53234 19.4999C8.41447 19.4999 8.30142 19.4531 8.21807 19.3697C8.13472 19.2864 8.08789 19.1733 8.08789 19.0554L8.0879 15.6821L6.62567 17.1488C6.58436 17.1904 6.5352 17.2235 6.48104 17.2461C6.42688 17.2686 6.36879 17.2802 6.31012 17.2802C6.25144 17.2802 6.19335 17.2686 6.13919 17.2461Z" fill="#2E3542"/>
<path d="M11.3062 8.82961L11.1522 8.63272L10.8083 8.90182L11.2145 9.06215L11.3062 8.82961ZM12.8424 6.57145L12.6026 6.5007L12.8424 6.57145ZM14.5034 11.2386L14.7017 11.0864L14.5034 11.2386ZM15.996 14.9413L16.2445 14.9145L16.2444 14.9135L15.996 14.9413ZM15.8358 15.487L16.0306 15.6437L15.8358 15.487ZM15.3356 15.7621V16.0121H15.3499L15.3641 16.0105L15.3356 15.7621ZM15.2531 15.7621V15.5121L15.2516 15.5121L15.2531 15.7621ZM14.7497 15.5734L14.584 15.7606L14.7497 15.5734ZM14.5028 15.098L14.7512 15.0704L14.7512 15.0699L14.5028 15.098ZM4.53672 11.3137L4.70283 11.5005L4.53672 11.3137ZM2.57213 15.098L2.32371 15.0699L2.32364 15.0705L2.57213 15.098ZM2.29399 15.6016L2.44985 15.7971L2.44986 15.7971L2.29399 15.6016ZM1.23283 15.4855L1.0382 15.6424L1.03821 15.6424L1.23283 15.4855ZM1.09695 15.2256L1.33689 15.1554L1.33689 15.1554L1.09695 15.2256ZM1.07142 14.9338L0.822962 14.9061L0.822936 14.9063L1.07142 14.9338ZM2.55629 11.2399L2.75489 11.3917L2.55629 11.2399ZM5.73862 8.82961L5.83116 9.06185L6.23532 8.90082L5.89268 8.63272L5.73862 8.82961ZM4.20247 6.57145L3.96269 6.6422L4.20247 6.57145ZM4.26809 3.84584L4.50419 3.92804L4.26809 3.84584ZM5.91115 1.66339L5.76668 1.45936L5.91115 1.66339ZM11.1337 1.66339L11.2782 1.45936L11.1337 1.66339ZM12.7768 3.84584L12.5407 3.92804V3.92804L12.7768 3.84584ZM6.85494 7.79673L6.71657 8.00495L6.85494 7.79673ZM10.6448 7.42551L10.4685 7.24825L10.6448 7.42551ZM9.67103 2.5571L9.5758 2.78826V2.78826L9.67103 2.5571ZM7.93689 2.38724L7.9854 2.63249H7.9854L7.93689 2.38724ZM6.40011 3.20416L6.22382 3.0269L6.40011 3.20416ZM5.57869 4.7325L5.82383 4.78153V4.78153L5.57869 4.7325ZM5.74949 6.45712L5.98027 6.361L5.74949 6.45712ZM5.99456 17.1488L6.17207 16.9727L6.17061 16.9713L5.99456 17.1488ZM5.89728 16.6623L5.6665 16.5662L5.6665 16.5662L5.89728 16.6623ZM5.99456 16.5177L6.17061 16.6952L6.17134 16.6944L5.99456 16.5177ZM8.21678 14.2954L8.04387 14.1148L8.04001 14.1187L8.21678 14.2954ZM8.36345 14.2021L8.45392 14.4355L8.46452 14.4308L8.36345 14.2021ZM8.70123 14.2021L8.60006 14.431L8.61085 14.4352L8.70123 14.2021ZM8.8479 14.2954L9.02471 14.1186L9.02077 14.1149L8.8479 14.2954ZM11.0701 16.5177L11.2469 16.3409L11.2469 16.3409L11.0701 16.5177ZM11.0701 17.1488L11.2469 17.3256L11.2469 17.3256L11.0701 17.1488ZM10.439 17.1488L10.262 17.3253L10.2622 17.3256L10.439 17.1488ZM8.97678 15.6821L9.15383 15.5056L8.72678 15.0773V15.6821H8.97678ZM8.97678 19.0554H8.72678H8.97678ZM8.84661 19.3697L8.66983 19.1929H8.66983L8.84661 19.3697ZM8.21807 19.3697L8.39485 19.1929H8.39485L8.21807 19.3697ZM8.08789 19.0554H7.83789H8.08789ZM8.0879 15.6821H8.3379V15.0773L7.91085 15.5056L8.0879 15.6821ZM6.62567 17.1488L6.44863 16.9723L6.44817 16.9727L6.62567 17.1488ZM11.4603 9.0265C12.2368 8.41891 12.8038 7.58554 13.0822 6.6422L12.6026 6.5007C12.3538 7.34382 11.8469 8.0891 11.1522 8.63272L11.4603 9.0265ZM14.7017 11.0864C13.8479 9.97372 12.7058 9.11324 11.398 8.59707L11.2145 9.06215C12.4382 9.54515 13.5066 10.3502 14.3051 11.3908L14.7017 11.0864ZM16.2444 14.9135C16.0889 13.5221 15.5556 12.1991 14.7017 11.0864L14.3051 11.3908C15.1035 12.4314 15.6021 13.6684 15.7475 14.9691L16.2444 14.9135ZM16.0306 15.6437C16.1957 15.4384 16.2727 15.1763 16.2445 14.9145L15.7474 14.9681C15.7614 15.0978 15.7233 15.228 15.641 15.3303L16.0306 15.6437ZM15.3641 16.0105C15.6259 15.9806 15.8655 15.8489 16.0306 15.6437L15.641 15.3303C15.5587 15.4326 15.4388 15.4987 15.3072 15.5138L15.3641 16.0105ZM15.2531 16.0121H15.3356V15.5121H15.2531V16.0121ZM14.584 15.7606C14.7688 15.9241 15.0077 16.0136 15.2546 16.0121L15.2516 15.5121C15.1275 15.5129 15.0077 15.4679 14.9154 15.3862L14.584 15.7606ZM14.2543 15.1256C14.2816 15.3708 14.3992 15.597 14.584 15.7606L14.9154 15.3862C14.8231 15.3045 14.7647 15.1919 14.7512 15.0704L14.2543 15.1256ZM12.3721 11.5005C13.4265 12.438 14.0965 13.7288 14.2543 15.1261L14.7512 15.0699C14.5795 13.5497 13.8506 12.146 12.7043 11.1268L12.3721 11.5005ZM8.53744 10.0445C9.95239 10.0445 11.3175 10.563 12.3721 11.5005L12.7043 11.1268C11.558 10.1077 10.0745 9.54451 8.53744 9.54451V10.0445ZM4.70283 11.5005C5.75736 10.563 7.12249 10.0445 8.53744 10.0445V9.54451C7.00035 9.54451 5.51692 10.1077 4.37061 11.1268L4.70283 11.5005ZM2.82055 15.1261C2.97837 13.7288 3.64833 12.438 4.70283 11.5005L4.37061 11.1268C3.22427 12.146 2.49542 13.5497 2.32371 15.0699L2.82055 15.1261ZM2.44986 15.7971C2.65784 15.6312 2.79139 15.3897 2.82061 15.1255L2.32364 15.0705C2.30909 15.2021 2.24254 15.3229 2.13813 15.4062L2.44986 15.7971ZM1.71205 16.0107C1.97653 16.0396 2.24192 15.9629 2.44985 15.7971L2.13813 15.4062C2.03367 15.4895 1.89995 15.5282 1.76642 15.5136L1.71205 16.0107ZM1.03821 15.6424C1.2051 15.8495 1.44755 15.9817 1.71205 16.0107L1.76642 15.5136C1.6329 15.499 1.51104 15.4323 1.42745 15.3286L1.03821 15.6424ZM0.857009 15.2958C0.893968 15.4222 0.95556 15.5399 1.0382 15.6424L1.42746 15.3286C1.38608 15.2773 1.35533 15.2184 1.33689 15.1554L0.857009 15.2958ZM0.822936 14.9063C0.808467 15.0372 0.820051 15.1695 0.85701 15.2958L1.33689 15.1554C1.31846 15.0924 1.3127 15.0265 1.31991 14.9613L0.822936 14.9063ZM2.35769 11.088C1.50823 12.199 0.977751 13.5186 0.822962 14.9061L1.31988 14.9615C1.46458 13.6645 1.96049 12.4307 2.75489 11.3917L2.35769 11.088ZM5.64609 8.59736C4.3437 9.11629 3.20714 9.97704 2.35769 11.088L2.75489 11.3917C3.5493 10.3527 4.61247 9.54743 5.83116 9.06185L5.64609 8.59736ZM3.96269 6.6422C4.24103 7.58554 4.80804 8.41891 5.58456 9.0265L5.89268 8.63272C5.19792 8.0891 4.69102 7.34382 4.44225 6.5007L3.96269 6.6422ZM4.03199 3.76365C3.70857 4.69265 3.68434 5.69885 3.96269 6.6422L4.44225 6.5007C4.19348 5.65759 4.21512 4.75836 4.50419 3.92804L4.03199 3.76365ZM5.76668 1.45936C4.96184 2.02927 4.3554 2.83466 4.03199 3.76365L4.50419 3.92804C4.79326 3.0977 5.33547 2.37737 6.05562 1.86742L5.76668 1.45936ZM8.52243 0.583313C7.53475 0.583313 6.5715 0.889464 5.76668 1.45936L6.05562 1.86742C6.7758 1.35746 7.63806 1.08331 8.52243 1.08331V0.583313ZM11.2782 1.45936C10.4734 0.889464 9.51012 0.583313 8.52243 0.583313V1.08331C9.40681 1.08331 10.2691 1.35746 10.9892 1.86742L11.2782 1.45936ZM13.0129 3.76365C12.6895 2.83466 12.083 2.02927 11.2782 1.45936L10.9892 1.86742C11.7094 2.37737 12.2516 3.0977 12.5407 3.92804L13.0129 3.76365ZM13.0822 6.6422C13.3605 5.69885 13.3363 4.69265 13.0129 3.76365L12.5407 3.92804C12.8297 4.75836 12.8514 5.65759 12.6026 6.5007L13.0822 6.6422ZM8.52243 8.04978C7.97795 8.04978 7.44581 7.8892 6.9933 7.58851L6.71657 8.00495C7.25123 8.36023 7.87967 8.54978 8.52243 8.54978V8.04978ZM10.4685 7.24825C9.95258 7.7613 9.2526 8.04978 8.52243 8.04978V8.54978C9.38432 8.54978 10.2112 8.20929 10.821 7.60277L10.4685 7.24825ZM11.2738 5.31483C11.2738 6.03974 10.9843 6.73524 10.4685 7.24825L10.821 7.60277C11.431 6.99621 11.7738 6.17324 11.7738 5.31483H11.2738ZM10.8105 3.79591C11.1127 4.24563 11.2738 4.77422 11.2738 5.31483H11.7738C11.7738 4.67471 11.583 4.04908 11.2255 3.51707L10.8105 3.79591ZM9.5758 2.78826C10.0787 2.99543 10.5083 3.34617 10.8105 3.79591L11.2255 3.51707C10.8681 2.98506 10.3602 2.57062 9.76625 2.32595L9.5758 2.78826ZM7.9854 2.63249C8.51939 2.52685 9.07288 2.58108 9.5758 2.78826L9.76625 2.32595C9.1723 2.08128 8.51881 2.01728 7.88837 2.14199L7.9854 2.63249ZM6.5764 3.38142C6.96111 2.99883 7.45142 2.73812 7.9854 2.63249L7.88837 2.14199C7.25792 2.26671 6.67863 2.57458 6.22382 3.0269L6.5764 3.38142ZM5.82383 4.78153C5.92989 4.25127 6.19171 3.764 6.5764 3.38142L6.22382 3.0269C5.769 3.47922 5.45911 4.05569 5.33354 4.68347L5.82383 4.78153ZM5.98027 6.361C5.7722 5.86143 5.71778 5.31179 5.82383 4.78153L5.33354 4.68347C5.20798 5.31126 5.27244 5.96197 5.5187 6.55324L5.98027 6.361ZM6.9933 7.58851C6.54081 7.28782 6.18835 6.86059 5.98027 6.361L5.5187 6.55324C5.76497 7.14451 6.1819 7.64965 6.71657 8.00495L6.9933 7.58851ZM5.81706 17.3248C5.88162 17.3899 5.95843 17.4416 6.04305 17.4768L6.23534 17.0153C6.21164 17.0054 6.19014 16.991 6.17206 16.9727L5.81706 17.3248ZM5.6665 17.1003C5.70176 17.1849 5.75342 17.2617 5.81851 17.3263L6.17061 16.9713C6.15239 16.9532 6.13792 16.9317 6.12805 16.908L5.6665 17.1003ZM5.6131 16.8332C5.6131 16.9249 5.63125 17.0157 5.6665 17.1003L6.12805 16.908C6.11818 16.8843 6.1131 16.8589 6.1131 16.8332H5.6131ZM5.6665 16.5662C5.63125 16.6508 5.6131 16.7416 5.6131 16.8332H6.1131C6.1131 16.8076 6.11818 16.7821 6.12805 16.7584L5.6665 16.5662ZM5.81851 16.3402C5.75342 16.4047 5.70176 16.4815 5.6665 16.5662L6.12805 16.7584C6.13792 16.7348 6.15239 16.7132 6.17061 16.6952L5.81851 16.3402ZM8.04001 14.1187L5.81778 16.3409L6.17134 16.6944L8.39356 14.4722L8.04001 14.1187ZM8.27308 13.969C8.18783 14.0021 8.10995 14.0516 8.04391 14.1149L8.38966 14.476C8.40815 14.4583 8.42996 14.4445 8.45383 14.4352L8.27308 13.969ZM8.53234 13.9165C8.43937 13.9165 8.34742 13.9359 8.26239 13.9735L8.46452 14.4308C8.48588 14.4213 8.50898 14.4165 8.53234 14.4165V13.9165ZM8.80229 13.9735C8.71726 13.9359 8.62531 13.9165 8.53234 13.9165V14.4165C8.5557 14.4165 8.5788 14.4213 8.60016 14.4308L8.80229 13.9735ZM9.02077 14.1149C8.95473 14.0516 8.87685 14.0021 8.7916 13.969L8.61085 14.4352C8.63472 14.4445 8.65653 14.4583 8.67502 14.476L9.02077 14.1149ZM11.2469 16.3409L9.02467 14.1187L8.67112 14.4722L10.8933 16.6944L11.2469 16.3409ZM11.4508 16.8332C11.4508 16.6486 11.3775 16.4715 11.2469 16.3409L10.8933 16.6944C10.9301 16.7313 10.9508 16.7812 10.9508 16.8332H11.4508ZM11.2469 17.3256C11.3775 17.195 11.4508 17.0179 11.4508 16.8332H10.9508C10.9508 16.8853 10.9301 16.9352 10.8933 16.972L11.2469 17.3256ZM10.7546 17.5295C10.9392 17.5295 11.1163 17.4561 11.2469 17.3256L10.8933 16.972C10.8565 17.0088 10.8066 17.0295 10.7546 17.0295V17.5295ZM10.2622 17.3256C10.3928 17.4561 10.5699 17.5295 10.7546 17.5295V17.0295C10.7025 17.0295 10.6526 17.0088 10.6158 16.972L10.2622 17.3256ZM8.79974 15.8586L10.262 17.3253L10.6161 16.9723L9.15383 15.5056L8.79974 15.8586ZM9.22678 19.0554L9.22678 15.6821H8.72678L8.72678 19.0554H9.22678ZM9.02339 19.5465C9.15362 19.4163 9.22678 19.2396 9.22678 19.0554H8.72678C8.72678 19.107 8.7063 19.1565 8.66983 19.1929L9.02339 19.5465ZM8.53234 19.7499C8.71652 19.7499 8.89315 19.6767 9.02339 19.5465L8.66983 19.1929C8.63337 19.2294 8.58391 19.2499 8.53234 19.2499V19.7499ZM8.04129 19.5465C8.17153 19.6767 8.34816 19.7499 8.53234 19.7499V19.2499C8.48077 19.2499 8.43131 19.2294 8.39485 19.1929L8.04129 19.5465ZM7.83789 19.0554C7.83789 19.2396 7.91106 19.4163 8.04129 19.5465L8.39485 19.1929C8.35838 19.1565 8.33789 19.107 8.33789 19.0554H7.83789ZM7.8379 15.6821L7.83789 19.0554H8.33789L8.3379 15.6821H7.8379ZM6.80272 17.3253L8.26494 15.8586L7.91085 15.5056L6.44863 16.9723L6.80272 17.3253ZM6.57718 17.4768C6.66181 17.4416 6.73861 17.3899 6.80317 17.3248L6.44817 16.9727C6.4301 16.991 6.40859 17.0054 6.3849 17.0153L6.57718 17.4768ZM6.31012 17.5302C6.40179 17.5302 6.49256 17.5121 6.57718 17.4768L6.3849 17.0153C6.3612 17.0252 6.33578 17.0302 6.31012 17.0302V17.5302ZM6.04305 17.4768C6.12767 17.5121 6.21844 17.5302 6.31012 17.5302V17.0302C6.28445 17.0302 6.25904 17.0252 6.23534 17.0153L6.04305 17.4768Z" fill="#2E3542"/>
</svg>
