<svg width="22" height="22" viewBox="0 0 22 22" fill="none" xmlns="http://www.w3.org/2000/svg">
<path d="M20.7309 19.29L17.0209 15.61C18.461 13.8144 19.1584 11.5353 18.9697 9.2413C18.781 6.9473 17.7206 4.81278 16.0064 3.27664C14.2923 1.7405 12.0547 0.919506 9.75382 0.982466C7.45294 1.04543 5.26362 1.98756 3.63604 3.61514C2.00846 5.24272 1.06633 7.43203 1.00337 9.73292C0.940411 12.0338 1.76141 14.2714 3.29754 15.9855C4.83368 17.6997 6.9682 18.7601 9.2622 18.9488C11.5562 19.1375 13.8353 18.4401 15.6309 17L19.3109 20.68C19.4039 20.7737 19.5145 20.8481 19.6363 20.8989C19.7582 20.9497 19.8889 20.9758 20.0209 20.9758C20.1529 20.9758 20.2836 20.9497 20.4055 20.8989C20.5273 20.8481 20.6379 20.7737 20.7309 20.68C20.9111 20.4935 21.0119 20.2443 21.0119 19.985C21.0119 19.7257 20.9111 19.4765 20.7309 19.29ZM10.0209 17C8.63643 17 7.28305 16.5895 6.13191 15.8203C4.98076 15.0511 4.08356 13.9579 3.55374 12.6788C3.02393 11.3997 2.88531 9.99223 3.1554 8.63436C3.4255 7.2765 4.09219 6.02922 5.07115 5.05025C6.05012 4.07128 7.2974 3.4046 8.65527 3.1345C10.0131 2.8644 11.4206 3.00303 12.6997 3.53284C13.9788 4.06265 15.072 4.95986 15.8412 6.111C16.6104 7.26215 17.0209 8.61553 17.0209 10C17.0209 11.8565 16.2834 13.637 14.9706 14.9497C13.6579 16.2625 11.8774 17 10.0209 17Z" fill="#011949" stroke="#011949" stroke-width="0.5"/>
</svg>
