<svg xmlns="http://www.w3.org/2000/svg" width="23" height="22" viewBox="0 0 23 22" fill="none">
<circle cx="11" cy="11" r="11" fill="#60B443"/>
<path d="M16.7481 7.2315C16.6752 7.15815 16.5888 7.09993 16.4934 7.06019C16.398 7.02046 16.2957 7 16.1923 7C16.089 7 15.9868 7.02046 15.8914 7.06019C15.796 7.09993 15.7094 7.15815 15.6366 7.2315L9.80543 13.0701L7.35559 10.6126C7.28004 10.5396 7.19086 10.4823 7.09313 10.4438C6.99541 10.4051 6.89105 10.3863 6.78602 10.3882C6.68101 10.3899 6.57737 10.4125 6.48103 10.4543C6.3847 10.4962 6.29756 10.5566 6.22457 10.6321C6.1516 10.7077 6.09422 10.7969 6.05571 10.8946C6.0172 10.9923 5.99831 11.0967 6.00012 11.2017C6.00194 11.3067 6.02442 11.4103 6.06629 11.5067C6.10817 11.603 6.1686 11.6902 6.24415 11.7631L9.24968 14.7686C9.3225 14.8418 9.40912 14.9 9.5045 14.9398C9.59988 14.9796 9.70215 15 9.80543 15C9.90885 15 10.0111 14.9796 10.1065 14.9398C10.2019 14.9 10.2883 14.8418 10.3612 14.7686L16.7481 8.38202C16.8275 8.30873 16.891 8.21977 16.9342 8.12076C16.9776 8.02176 17 7.91485 17 7.80676C17 7.69867 16.9776 7.59176 16.9342 7.49276C16.891 7.39375 16.8275 7.3048 16.7481 7.2315Z" fill="white" stroke="white"/>
</svg>